<?xml version="1.0" encoding="utf-8" standalone="no"?>
<!DOCTYPE svg PUBLIC "-//W3C//DTD SVG 1.1//EN"
  "http://www.w3.org/Graphics/SVG/1.1/DTD/svg11.dtd">
<!-- Created with matplotlib (https://matplotlib.org/) -->
<svg height="288pt" version="1.1" viewBox="0 0 432 288" width="432pt" xmlns="http://www.w3.org/2000/svg" xmlns:xlink="http://www.w3.org/1999/xlink">
 <defs>
  <style type="text/css">
*{stroke-linecap:butt;stroke-linejoin:round;}
  </style>
 </defs>
 <g id="figure_1">
  <g id="patch_1">
   <path d="M 0 288 
L 432 288 
L 432 0 
L 0 0 
z
" style="fill:none;opacity:0;"/>
  </g>
  <g id="axes_1">
   <g id="patch_2">
    <path d="M 54 252 
L 388.8 252 
L 388.8 34.56 
L 54 34.56 
z
"/>
   </g>
   <g id="matplotlib.axis_1">
    <g id="xtick_1">
     <g id="line2d_1">
      <defs>
       <path d="M 0 0 
L 0 3.5 
" id="m8bd54e0192" style="stroke:#ffffff;stroke-width:0.8;"/>
      </defs>
      <g>
       <use style="fill:#ffffff;stroke:#ffffff;stroke-width:0.8;" x="110.686681" xlink:href="#m8bd54e0192" y="252"/>
      </g>
     </g>
     <g id="text_1">
      <!-- $\mathdefault{10^{1}}$ -->
      <defs>
       <path d="M 12.40625 8.296875 
L 28.515625 8.296875 
L 28.515625 63.921875 
L 10.984375 60.40625 
L 10.984375 69.390625 
L 28.421875 72.90625 
L 38.28125 72.90625 
L 38.28125 8.296875 
L 54.390625 8.296875 
L 54.390625 0 
L 12.40625 0 
z
" id="DejaVuSans-49"/>
       <path d="M 31.78125 66.40625 
Q 24.171875 66.40625 20.328125 58.90625 
Q 16.5 51.421875 16.5 36.375 
Q 16.5 21.390625 20.328125 13.890625 
Q 24.171875 6.390625 31.78125 6.390625 
Q 39.453125 6.390625 43.28125 13.890625 
Q 47.125 21.390625 47.125 36.375 
Q 47.125 51.421875 43.28125 58.90625 
Q 39.453125 66.40625 31.78125 66.40625 
z
M 31.78125 74.21875 
Q 44.046875 74.21875 50.515625 64.515625 
Q 56.984375 54.828125 56.984375 36.375 
Q 56.984375 17.96875 50.515625 8.265625 
Q 44.046875 -1.421875 31.78125 -1.421875 
Q 19.53125 -1.421875 13.0625 8.265625 
Q 6.59375 17.96875 6.59375 36.375 
Q 6.59375 54.828125 13.0625 64.515625 
Q 19.53125 74.21875 31.78125 74.21875 
z
" id="DejaVuSans-48"/>
      </defs>
      <g style="fill:#ffffff;" transform="translate(101.886681 266.598437)scale(0.1 -0.1)">
       <use transform="translate(0 0.684375)" xlink:href="#DejaVuSans-49"/>
       <use transform="translate(63.623047 0.684375)" xlink:href="#DejaVuSans-48"/>
       <use transform="translate(128.203125 38.965625)scale(0.7)" xlink:href="#DejaVuSans-49"/>
      </g>
     </g>
    </g>
    <g id="xtick_2">
     <g id="line2d_2">
      <g>
       <use style="fill:#ffffff;stroke:#ffffff;stroke-width:0.8;" x="188.462666" xlink:href="#m8bd54e0192" y="252"/>
      </g>
     </g>
     <g id="text_2">
      <!-- $\mathdefault{10^{2}}$ -->
      <defs>
       <path d="M 19.1875 8.296875 
L 53.609375 8.296875 
L 53.609375 0 
L 7.328125 0 
L 7.328125 8.296875 
Q 12.9375 14.109375 22.625 23.890625 
Q 32.328125 33.6875 34.8125 36.53125 
Q 39.546875 41.84375 41.421875 45.53125 
Q 43.3125 49.21875 43.3125 52.78125 
Q 43.3125 58.59375 39.234375 62.25 
Q 35.15625 65.921875 28.609375 65.921875 
Q 23.96875 65.921875 18.8125 64.3125 
Q 13.671875 62.703125 7.8125 59.421875 
L 7.8125 69.390625 
Q 13.765625 71.78125 18.9375 73 
Q 24.125 74.21875 28.421875 74.21875 
Q 39.75 74.21875 46.484375 68.546875 
Q 53.21875 62.890625 53.21875 53.421875 
Q 53.21875 48.921875 51.53125 44.890625 
Q 49.859375 40.875 45.40625 35.40625 
Q 44.1875 33.984375 37.640625 27.21875 
Q 31.109375 20.453125 19.1875 8.296875 
z
" id="DejaVuSans-50"/>
      </defs>
      <g style="fill:#ffffff;" transform="translate(179.662666 266.598437)scale(0.1 -0.1)">
       <use transform="translate(0 0.765625)" xlink:href="#DejaVuSans-49"/>
       <use transform="translate(63.623047 0.765625)" xlink:href="#DejaVuSans-48"/>
       <use transform="translate(128.203125 39.046875)scale(0.7)" xlink:href="#DejaVuSans-50"/>
      </g>
     </g>
    </g>
    <g id="xtick_3">
     <g id="line2d_3">
      <g>
       <use style="fill:#ffffff;stroke:#ffffff;stroke-width:0.8;" x="266.238652" xlink:href="#m8bd54e0192" y="252"/>
      </g>
     </g>
     <g id="text_3">
      <!-- $\mathdefault{10^{3}}$ -->
      <defs>
       <path d="M 40.578125 39.3125 
Q 47.65625 37.796875 51.625 33 
Q 55.609375 28.21875 55.609375 21.1875 
Q 55.609375 10.40625 48.1875 4.484375 
Q 40.765625 -1.421875 27.09375 -1.421875 
Q 22.515625 -1.421875 17.65625 -0.515625 
Q 12.796875 0.390625 7.625 2.203125 
L 7.625 11.71875 
Q 11.71875 9.328125 16.59375 8.109375 
Q 21.484375 6.890625 26.8125 6.890625 
Q 36.078125 6.890625 40.9375 10.546875 
Q 45.796875 14.203125 45.796875 21.1875 
Q 45.796875 27.640625 41.28125 31.265625 
Q 36.765625 34.90625 28.71875 34.90625 
L 20.21875 34.90625 
L 20.21875 43.015625 
L 29.109375 43.015625 
Q 36.375 43.015625 40.234375 45.921875 
Q 44.09375 48.828125 44.09375 54.296875 
Q 44.09375 59.90625 40.109375 62.90625 
Q 36.140625 65.921875 28.71875 65.921875 
Q 24.65625 65.921875 20.015625 65.03125 
Q 15.375 64.15625 9.8125 62.3125 
L 9.8125 71.09375 
Q 15.4375 72.65625 20.34375 73.4375 
Q 25.25 74.21875 29.59375 74.21875 
Q 40.828125 74.21875 47.359375 69.109375 
Q 53.90625 64.015625 53.90625 55.328125 
Q 53.90625 49.265625 50.4375 45.09375 
Q 46.96875 40.921875 40.578125 39.3125 
z
" id="DejaVuSans-51"/>
      </defs>
      <g style="fill:#ffffff;" transform="translate(257.438652 266.598437)scale(0.1 -0.1)">
       <use transform="translate(0 0.765625)" xlink:href="#DejaVuSans-49"/>
       <use transform="translate(63.623047 0.765625)" xlink:href="#DejaVuSans-48"/>
       <use transform="translate(128.203125 39.046875)scale(0.7)" xlink:href="#DejaVuSans-51"/>
      </g>
     </g>
    </g>
    <g id="xtick_4">
     <g id="line2d_4">
      <g>
       <use style="fill:#ffffff;stroke:#ffffff;stroke-width:0.8;" x="344.014638" xlink:href="#m8bd54e0192" y="252"/>
      </g>
     </g>
     <g id="text_4">
      <!-- $\mathdefault{10^{4}}$ -->
      <defs>
       <path d="M 37.796875 64.3125 
L 12.890625 25.390625 
L 37.796875 25.390625 
z
M 35.203125 72.90625 
L 47.609375 72.90625 
L 47.609375 25.390625 
L 58.015625 25.390625 
L 58.015625 17.1875 
L 47.609375 17.1875 
L 47.609375 0 
L 37.796875 0 
L 37.796875 17.1875 
L 4.890625 17.1875 
L 4.890625 26.703125 
z
" id="DejaVuSans-52"/>
      </defs>
      <g style="fill:#ffffff;" transform="translate(335.214638 266.598437)scale(0.1 -0.1)">
       <use transform="translate(0 0.684375)" xlink:href="#DejaVuSans-49"/>
       <use transform="translate(63.623047 0.684375)" xlink:href="#DejaVuSans-48"/>
       <use transform="translate(128.203125 38.965625)scale(0.7)" xlink:href="#DejaVuSans-52"/>
      </g>
     </g>
    </g>
    <g id="xtick_5">
     <g id="line2d_5">
      <defs>
       <path d="M 0 0 
L 0 2 
" id="m5156306b09" style="stroke:#ffffff;stroke-width:0.6;"/>
      </defs>
      <g>
       <use style="fill:#ffffff;stroke:#ffffff;stroke-width:0.6;" x="56.3236" xlink:href="#m5156306b09" y="252"/>
      </g>
     </g>
    </g>
    <g id="xtick_6">
     <g id="line2d_6">
      <g>
       <use style="fill:#ffffff;stroke:#ffffff;stroke-width:0.6;" x="70.019271" xlink:href="#m5156306b09" y="252"/>
      </g>
     </g>
    </g>
    <g id="xtick_7">
     <g id="line2d_7">
      <g>
       <use style="fill:#ffffff;stroke:#ffffff;stroke-width:0.6;" x="79.736504" xlink:href="#m5156306b09" y="252"/>
      </g>
     </g>
    </g>
    <g id="xtick_8">
     <g id="line2d_8">
      <g>
       <use style="fill:#ffffff;stroke:#ffffff;stroke-width:0.6;" x="87.273776" xlink:href="#m5156306b09" y="252"/>
      </g>
     </g>
    </g>
    <g id="xtick_9">
     <g id="line2d_9">
      <g>
       <use style="fill:#ffffff;stroke:#ffffff;stroke-width:0.6;" x="93.432176" xlink:href="#m5156306b09" y="252"/>
      </g>
     </g>
    </g>
    <g id="xtick_10">
     <g id="line2d_10">
      <g>
       <use style="fill:#ffffff;stroke:#ffffff;stroke-width:0.6;" x="98.639028" xlink:href="#m5156306b09" y="252"/>
      </g>
     </g>
    </g>
    <g id="xtick_11">
     <g id="line2d_11">
      <g>
       <use style="fill:#ffffff;stroke:#ffffff;stroke-width:0.6;" x="103.149409" xlink:href="#m5156306b09" y="252"/>
      </g>
     </g>
    </g>
    <g id="xtick_12">
     <g id="line2d_12">
      <g>
       <use style="fill:#ffffff;stroke:#ffffff;stroke-width:0.6;" x="107.127847" xlink:href="#m5156306b09" y="252"/>
      </g>
     </g>
    </g>
    <g id="xtick_13">
     <g id="line2d_13">
      <g>
       <use style="fill:#ffffff;stroke:#ffffff;stroke-width:0.6;" x="134.099585" xlink:href="#m5156306b09" y="252"/>
      </g>
     </g>
    </g>
    <g id="xtick_14">
     <g id="line2d_14">
      <g>
       <use style="fill:#ffffff;stroke:#ffffff;stroke-width:0.6;" x="147.795257" xlink:href="#m5156306b09" y="252"/>
      </g>
     </g>
    </g>
    <g id="xtick_15">
     <g id="line2d_15">
      <g>
       <use style="fill:#ffffff;stroke:#ffffff;stroke-width:0.6;" x="157.51249" xlink:href="#m5156306b09" y="252"/>
      </g>
     </g>
    </g>
    <g id="xtick_16">
     <g id="line2d_16">
      <g>
       <use style="fill:#ffffff;stroke:#ffffff;stroke-width:0.6;" x="165.049762" xlink:href="#m5156306b09" y="252"/>
      </g>
     </g>
    </g>
    <g id="xtick_17">
     <g id="line2d_17">
      <g>
       <use style="fill:#ffffff;stroke:#ffffff;stroke-width:0.6;" x="171.208161" xlink:href="#m5156306b09" y="252"/>
      </g>
     </g>
    </g>
    <g id="xtick_18">
     <g id="line2d_18">
      <g>
       <use style="fill:#ffffff;stroke:#ffffff;stroke-width:0.6;" x="176.415014" xlink:href="#m5156306b09" y="252"/>
      </g>
     </g>
    </g>
    <g id="xtick_19">
     <g id="line2d_19">
      <g>
       <use style="fill:#ffffff;stroke:#ffffff;stroke-width:0.6;" x="180.925395" xlink:href="#m5156306b09" y="252"/>
      </g>
     </g>
    </g>
    <g id="xtick_20">
     <g id="line2d_20">
      <g>
       <use style="fill:#ffffff;stroke:#ffffff;stroke-width:0.6;" x="184.903833" xlink:href="#m5156306b09" y="252"/>
      </g>
     </g>
    </g>
    <g id="xtick_21">
     <g id="line2d_21">
      <g>
       <use style="fill:#ffffff;stroke:#ffffff;stroke-width:0.6;" x="211.875571" xlink:href="#m5156306b09" y="252"/>
      </g>
     </g>
    </g>
    <g id="xtick_22">
     <g id="line2d_22">
      <g>
       <use style="fill:#ffffff;stroke:#ffffff;stroke-width:0.6;" x="225.571242" xlink:href="#m5156306b09" y="252"/>
      </g>
     </g>
    </g>
    <g id="xtick_23">
     <g id="line2d_23">
      <g>
       <use style="fill:#ffffff;stroke:#ffffff;stroke-width:0.6;" x="235.288476" xlink:href="#m5156306b09" y="252"/>
      </g>
     </g>
    </g>
    <g id="xtick_24">
     <g id="line2d_24">
      <g>
       <use style="fill:#ffffff;stroke:#ffffff;stroke-width:0.6;" x="242.825747" xlink:href="#m5156306b09" y="252"/>
      </g>
     </g>
    </g>
    <g id="xtick_25">
     <g id="line2d_25">
      <g>
       <use style="fill:#ffffff;stroke:#ffffff;stroke-width:0.6;" x="248.984147" xlink:href="#m5156306b09" y="252"/>
      </g>
     </g>
    </g>
    <g id="xtick_26">
     <g id="line2d_26">
      <g>
       <use style="fill:#ffffff;stroke:#ffffff;stroke-width:0.6;" x="254.190999" xlink:href="#m5156306b09" y="252"/>
      </g>
     </g>
    </g>
    <g id="xtick_27">
     <g id="line2d_27">
      <g>
       <use style="fill:#ffffff;stroke:#ffffff;stroke-width:0.6;" x="258.70138" xlink:href="#m5156306b09" y="252"/>
      </g>
     </g>
    </g>
    <g id="xtick_28">
     <g id="line2d_28">
      <g>
       <use style="fill:#ffffff;stroke:#ffffff;stroke-width:0.6;" x="262.679818" xlink:href="#m5156306b09" y="252"/>
      </g>
     </g>
    </g>
    <g id="xtick_29">
     <g id="line2d_29">
      <g>
       <use style="fill:#ffffff;stroke:#ffffff;stroke-width:0.6;" x="289.651557" xlink:href="#m5156306b09" y="252"/>
      </g>
     </g>
    </g>
    <g id="xtick_30">
     <g id="line2d_30">
      <g>
       <use style="fill:#ffffff;stroke:#ffffff;stroke-width:0.6;" x="303.347228" xlink:href="#m5156306b09" y="252"/>
      </g>
     </g>
    </g>
    <g id="xtick_31">
     <g id="line2d_31">
      <g>
       <use style="fill:#ffffff;stroke:#ffffff;stroke-width:0.6;" x="313.064461" xlink:href="#m5156306b09" y="252"/>
      </g>
     </g>
    </g>
    <g id="xtick_32">
     <g id="line2d_32">
      <g>
       <use style="fill:#ffffff;stroke:#ffffff;stroke-width:0.6;" x="320.601733" xlink:href="#m5156306b09" y="252"/>
      </g>
     </g>
    </g>
    <g id="xtick_33">
     <g id="line2d_33">
      <g>
       <use style="fill:#ffffff;stroke:#ffffff;stroke-width:0.6;" x="326.760132" xlink:href="#m5156306b09" y="252"/>
      </g>
     </g>
    </g>
    <g id="xtick_34">
     <g id="line2d_34">
      <g>
       <use style="fill:#ffffff;stroke:#ffffff;stroke-width:0.6;" x="331.966985" xlink:href="#m5156306b09" y="252"/>
      </g>
     </g>
    </g>
    <g id="xtick_35">
     <g id="line2d_35">
      <g>
       <use style="fill:#ffffff;stroke:#ffffff;stroke-width:0.6;" x="336.477366" xlink:href="#m5156306b09" y="252"/>
      </g>
     </g>
    </g>
    <g id="xtick_36">
     <g id="line2d_36">
      <g>
       <use style="fill:#ffffff;stroke:#ffffff;stroke-width:0.6;" x="340.455804" xlink:href="#m5156306b09" y="252"/>
      </g>
     </g>
    </g>
    <g id="xtick_37">
     <g id="line2d_37">
      <g>
       <use style="fill:#ffffff;stroke:#ffffff;stroke-width:0.6;" x="367.427542" xlink:href="#m5156306b09" y="252"/>
      </g>
     </g>
    </g>
    <g id="xtick_38">
     <g id="line2d_38">
      <g>
       <use style="fill:#ffffff;stroke:#ffffff;stroke-width:0.6;" x="381.123213" xlink:href="#m5156306b09" y="252"/>
      </g>
     </g>
    </g>
    <g id="text_5">
     <!-- Frequency [Hz] -->
     <defs>
      <path d="M 9.8125 72.90625 
L 51.703125 72.90625 
L 51.703125 64.59375 
L 19.671875 64.59375 
L 19.671875 43.109375 
L 48.578125 43.109375 
L 48.578125 34.8125 
L 19.671875 34.8125 
L 19.671875 0 
L 9.8125 0 
z
" id="DejaVuSans-70"/>
      <path d="M 41.109375 46.296875 
Q 39.59375 47.171875 37.8125 47.578125 
Q 36.03125 48 33.890625 48 
Q 26.265625 48 22.1875 43.046875 
Q 18.109375 38.09375 18.109375 28.8125 
L 18.109375 0 
L 9.078125 0 
L 9.078125 54.6875 
L 18.109375 54.6875 
L 18.109375 46.1875 
Q 20.953125 51.171875 25.484375 53.578125 
Q 30.03125 56 36.53125 56 
Q 37.453125 56 38.578125 55.875 
Q 39.703125 55.765625 41.0625 55.515625 
z
" id="DejaVuSans-114"/>
      <path d="M 56.203125 29.59375 
L 56.203125 25.203125 
L 14.890625 25.203125 
Q 15.484375 15.921875 20.484375 11.0625 
Q 25.484375 6.203125 34.421875 6.203125 
Q 39.59375 6.203125 44.453125 7.46875 
Q 49.3125 8.734375 54.109375 11.28125 
L 54.109375 2.78125 
Q 49.265625 0.734375 44.1875 -0.34375 
Q 39.109375 -1.421875 33.890625 -1.421875 
Q 20.796875 -1.421875 13.15625 6.1875 
Q 5.515625 13.8125 5.515625 26.8125 
Q 5.515625 40.234375 12.765625 48.109375 
Q 20.015625 56 32.328125 56 
Q 43.359375 56 49.78125 48.890625 
Q 56.203125 41.796875 56.203125 29.59375 
z
M 47.21875 32.234375 
Q 47.125 39.59375 43.09375 43.984375 
Q 39.0625 48.390625 32.421875 48.390625 
Q 24.90625 48.390625 20.390625 44.140625 
Q 15.875 39.890625 15.1875 32.171875 
z
" id="DejaVuSans-101"/>
      <path d="M 14.796875 27.296875 
Q 14.796875 17.390625 18.875 11.75 
Q 22.953125 6.109375 30.078125 6.109375 
Q 37.203125 6.109375 41.296875 11.75 
Q 45.40625 17.390625 45.40625 27.296875 
Q 45.40625 37.203125 41.296875 42.84375 
Q 37.203125 48.484375 30.078125 48.484375 
Q 22.953125 48.484375 18.875 42.84375 
Q 14.796875 37.203125 14.796875 27.296875 
z
M 45.40625 8.203125 
Q 42.578125 3.328125 38.25 0.953125 
Q 33.9375 -1.421875 27.875 -1.421875 
Q 17.96875 -1.421875 11.734375 6.484375 
Q 5.515625 14.40625 5.515625 27.296875 
Q 5.515625 40.1875 11.734375 48.09375 
Q 17.96875 56 27.875 56 
Q 33.9375 56 38.25 53.625 
Q 42.578125 51.265625 45.40625 46.390625 
L 45.40625 54.6875 
L 54.390625 54.6875 
L 54.390625 -20.796875 
L 45.40625 -20.796875 
z
" id="DejaVuSans-113"/>
      <path d="M 8.5 21.578125 
L 8.5 54.6875 
L 17.484375 54.6875 
L 17.484375 21.921875 
Q 17.484375 14.15625 20.5 10.265625 
Q 23.53125 6.390625 29.59375 6.390625 
Q 36.859375 6.390625 41.078125 11.03125 
Q 45.3125 15.671875 45.3125 23.6875 
L 45.3125 54.6875 
L 54.296875 54.6875 
L 54.296875 0 
L 45.3125 0 
L 45.3125 8.40625 
Q 42.046875 3.421875 37.71875 1 
Q 33.40625 -1.421875 27.6875 -1.421875 
Q 18.265625 -1.421875 13.375 4.4375 
Q 8.5 10.296875 8.5 21.578125 
z
M 31.109375 56 
z
" id="DejaVuSans-117"/>
      <path d="M 54.890625 33.015625 
L 54.890625 0 
L 45.90625 0 
L 45.90625 32.71875 
Q 45.90625 40.484375 42.875 44.328125 
Q 39.84375 48.1875 33.796875 48.1875 
Q 26.515625 48.1875 22.3125 43.546875 
Q 18.109375 38.921875 18.109375 30.90625 
L 18.109375 0 
L 9.078125 0 
L 9.078125 54.6875 
L 18.109375 54.6875 
L 18.109375 46.1875 
Q 21.34375 51.125 25.703125 53.5625 
Q 30.078125 56 35.796875 56 
Q 45.21875 56 50.046875 50.171875 
Q 54.890625 44.34375 54.890625 33.015625 
z
" id="DejaVuSans-110"/>
      <path d="M 48.78125 52.59375 
L 48.78125 44.1875 
Q 44.96875 46.296875 41.140625 47.34375 
Q 37.3125 48.390625 33.40625 48.390625 
Q 24.65625 48.390625 19.8125 42.84375 
Q 14.984375 37.3125 14.984375 27.296875 
Q 14.984375 17.28125 19.8125 11.734375 
Q 24.65625 6.203125 33.40625 6.203125 
Q 37.3125 6.203125 41.140625 7.25 
Q 44.96875 8.296875 48.78125 10.40625 
L 48.78125 2.09375 
Q 45.015625 0.34375 40.984375 -0.53125 
Q 36.96875 -1.421875 32.421875 -1.421875 
Q 20.0625 -1.421875 12.78125 6.34375 
Q 5.515625 14.109375 5.515625 27.296875 
Q 5.515625 40.671875 12.859375 48.328125 
Q 20.21875 56 33.015625 56 
Q 37.15625 56 41.109375 55.140625 
Q 45.0625 54.296875 48.78125 52.59375 
z
" id="DejaVuSans-99"/>
      <path d="M 32.171875 -5.078125 
Q 28.375 -14.84375 24.75 -17.8125 
Q 21.140625 -20.796875 15.09375 -20.796875 
L 7.90625 -20.796875 
L 7.90625 -13.28125 
L 13.1875 -13.28125 
Q 16.890625 -13.28125 18.9375 -11.515625 
Q 21 -9.765625 23.484375 -3.21875 
L 25.09375 0.875 
L 2.984375 54.6875 
L 12.5 54.6875 
L 29.59375 11.921875 
L 46.6875 54.6875 
L 56.203125 54.6875 
z
" id="DejaVuSans-121"/>
      <path id="DejaVuSans-32"/>
      <path d="M 8.59375 75.984375 
L 29.296875 75.984375 
L 29.296875 69 
L 17.578125 69 
L 17.578125 -6.203125 
L 29.296875 -6.203125 
L 29.296875 -13.1875 
L 8.59375 -13.1875 
z
" id="DejaVuSans-91"/>
      <path d="M 9.8125 72.90625 
L 19.671875 72.90625 
L 19.671875 43.015625 
L 55.515625 43.015625 
L 55.515625 72.90625 
L 65.375 72.90625 
L 65.375 0 
L 55.515625 0 
L 55.515625 34.71875 
L 19.671875 34.71875 
L 19.671875 0 
L 9.8125 0 
z
" id="DejaVuSans-72"/>
      <path d="M 5.515625 54.6875 
L 48.1875 54.6875 
L 48.1875 46.484375 
L 14.40625 7.171875 
L 48.1875 7.171875 
L 48.1875 0 
L 4.296875 0 
L 4.296875 8.203125 
L 38.09375 47.515625 
L 5.515625 47.515625 
z
" id="DejaVuSans-122"/>
      <path d="M 30.421875 75.984375 
L 30.421875 -13.1875 
L 9.71875 -13.1875 
L 9.71875 -6.203125 
L 21.390625 -6.203125 
L 21.390625 69 
L 9.71875 69 
L 9.71875 75.984375 
z
" id="DejaVuSans-93"/>
     </defs>
     <g style="fill:#ffffff;" transform="translate(183.227344 280.276563)scale(0.1 -0.1)">
      <use xlink:href="#DejaVuSans-70"/>
      <use x="57.410156" xlink:href="#DejaVuSans-114"/>
      <use x="98.492188" xlink:href="#DejaVuSans-101"/>
      <use x="160.015625" xlink:href="#DejaVuSans-113"/>
      <use x="223.492188" xlink:href="#DejaVuSans-117"/>
      <use x="286.871094" xlink:href="#DejaVuSans-101"/>
      <use x="348.394531" xlink:href="#DejaVuSans-110"/>
      <use x="411.773438" xlink:href="#DejaVuSans-99"/>
      <use x="466.753906" xlink:href="#DejaVuSans-121"/>
      <use x="525.933594" xlink:href="#DejaVuSans-32"/>
      <use x="557.720703" xlink:href="#DejaVuSans-91"/>
      <use x="596.734375" xlink:href="#DejaVuSans-72"/>
      <use x="671.929688" xlink:href="#DejaVuSans-122"/>
      <use x="724.419922" xlink:href="#DejaVuSans-93"/>
     </g>
    </g>
   </g>
   <g id="matplotlib.axis_2">
    <g id="ytick_1">
     <g id="line2d_39">
      <defs>
       <path d="M 0 0 
L -3.5 0 
" id="m74cc4a92cf" style="stroke:#ffffff;stroke-width:0.8;"/>
      </defs>
      <g>
       <use style="fill:#ffffff;stroke:#ffffff;stroke-width:0.8;" x="54" xlink:href="#m74cc4a92cf" y="252"/>
      </g>
     </g>
     <g id="text_6">
      <!-- −10 -->
      <defs>
       <path d="M 10.59375 35.5 
L 73.1875 35.5 
L 73.1875 27.203125 
L 10.59375 27.203125 
z
" id="DejaVuSans-8722"/>
      </defs>
      <g style="fill:#ffffff;" transform="translate(25.895312 255.799219)scale(0.1 -0.1)">
       <use xlink:href="#DejaVuSans-8722"/>
       <use x="83.789062" xlink:href="#DejaVuSans-49"/>
       <use x="147.412109" xlink:href="#DejaVuSans-48"/>
      </g>
     </g>
    </g>
    <g id="ytick_2">
     <g id="line2d_40">
      <g>
       <use style="fill:#ffffff;stroke:#ffffff;stroke-width:0.8;" x="54" xlink:href="#m74cc4a92cf" y="223.389474"/>
      </g>
     </g>
     <g id="text_7">
      <!-- −5 -->
      <defs>
       <path d="M 10.796875 72.90625 
L 49.515625 72.90625 
L 49.515625 64.59375 
L 19.828125 64.59375 
L 19.828125 46.734375 
Q 21.96875 47.46875 24.109375 47.828125 
Q 26.265625 48.1875 28.421875 48.1875 
Q 40.625 48.1875 47.75 41.5 
Q 54.890625 34.8125 54.890625 23.390625 
Q 54.890625 11.625 47.5625 5.09375 
Q 40.234375 -1.421875 26.90625 -1.421875 
Q 22.3125 -1.421875 17.546875 -0.640625 
Q 12.796875 0.140625 7.71875 1.703125 
L 7.71875 11.625 
Q 12.109375 9.234375 16.796875 8.0625 
Q 21.484375 6.890625 26.703125 6.890625 
Q 35.15625 6.890625 40.078125 11.328125 
Q 45.015625 15.765625 45.015625 23.390625 
Q 45.015625 31 40.078125 35.4375 
Q 35.15625 39.890625 26.703125 39.890625 
Q 22.75 39.890625 18.8125 39.015625 
Q 14.890625 38.140625 10.796875 36.28125 
z
" id="DejaVuSans-53"/>
      </defs>
      <g style="fill:#ffffff;" transform="translate(32.257812 227.188692)scale(0.1 -0.1)">
       <use xlink:href="#DejaVuSans-8722"/>
       <use x="83.789062" xlink:href="#DejaVuSans-53"/>
      </g>
     </g>
    </g>
    <g id="ytick_3">
     <g id="line2d_41">
      <g>
       <use style="fill:#ffffff;stroke:#ffffff;stroke-width:0.8;" x="54" xlink:href="#m74cc4a92cf" y="194.778947"/>
      </g>
     </g>
     <g id="text_8">
      <!-- 0 -->
      <g style="fill:#ffffff;" transform="translate(40.6375 198.578166)scale(0.1 -0.1)">
       <use xlink:href="#DejaVuSans-48"/>
      </g>
     </g>
    </g>
    <g id="ytick_4">
     <g id="line2d_42">
      <g>
       <use style="fill:#ffffff;stroke:#ffffff;stroke-width:0.8;" x="54" xlink:href="#m74cc4a92cf" y="166.168421"/>
      </g>
     </g>
     <g id="text_9">
      <!-- 5 -->
      <g style="fill:#ffffff;" transform="translate(40.6375 169.96764)scale(0.1 -0.1)">
       <use xlink:href="#DejaVuSans-53"/>
      </g>
     </g>
    </g>
    <g id="ytick_5">
     <g id="line2d_43">
      <g>
       <use style="fill:#ffffff;stroke:#ffffff;stroke-width:0.8;" x="54" xlink:href="#m74cc4a92cf" y="137.557895"/>
      </g>
     </g>
     <g id="text_10">
      <!-- 10 -->
      <g style="fill:#ffffff;" transform="translate(34.275 141.357113)scale(0.1 -0.1)">
       <use xlink:href="#DejaVuSans-49"/>
       <use x="63.623047" xlink:href="#DejaVuSans-48"/>
      </g>
     </g>
    </g>
    <g id="ytick_6">
     <g id="line2d_44">
      <g>
       <use style="fill:#ffffff;stroke:#ffffff;stroke-width:0.8;" x="54" xlink:href="#m74cc4a92cf" y="108.947368"/>
      </g>
     </g>
     <g id="text_11">
      <!-- 15 -->
      <g style="fill:#ffffff;" transform="translate(34.275 112.746587)scale(0.1 -0.1)">
       <use xlink:href="#DejaVuSans-49"/>
       <use x="63.623047" xlink:href="#DejaVuSans-53"/>
      </g>
     </g>
    </g>
    <g id="ytick_7">
     <g id="line2d_45">
      <g>
       <use style="fill:#ffffff;stroke:#ffffff;stroke-width:0.8;" x="54" xlink:href="#m74cc4a92cf" y="80.336842"/>
      </g>
     </g>
     <g id="text_12">
      <!-- 20 -->
      <g style="fill:#ffffff;" transform="translate(34.275 84.136061)scale(0.1 -0.1)">
       <use xlink:href="#DejaVuSans-50"/>
       <use x="63.623047" xlink:href="#DejaVuSans-48"/>
      </g>
     </g>
    </g>
    <g id="ytick_8">
     <g id="line2d_46">
      <g>
       <use style="fill:#ffffff;stroke:#ffffff;stroke-width:0.8;" x="54" xlink:href="#m74cc4a92cf" y="51.726316"/>
      </g>
     </g>
     <g id="text_13">
      <!-- 25 -->
      <g style="fill:#ffffff;" transform="translate(34.275 55.525535)scale(0.1 -0.1)">
       <use xlink:href="#DejaVuSans-50"/>
       <use x="63.623047" xlink:href="#DejaVuSans-53"/>
      </g>
     </g>
    </g>
    <g id="text_14">
     <!-- Amplitude [dB] -->
     <defs>
      <path d="M 34.1875 63.1875 
L 20.796875 26.90625 
L 47.609375 26.90625 
z
M 28.609375 72.90625 
L 39.796875 72.90625 
L 67.578125 0 
L 57.328125 0 
L 50.6875 18.703125 
L 17.828125 18.703125 
L 11.1875 0 
L 0.78125 0 
z
" id="DejaVuSans-65"/>
      <path d="M 52 44.1875 
Q 55.375 50.25 60.0625 53.125 
Q 64.75 56 71.09375 56 
Q 79.640625 56 84.28125 50.015625 
Q 88.921875 44.046875 88.921875 33.015625 
L 88.921875 0 
L 79.890625 0 
L 79.890625 32.71875 
Q 79.890625 40.578125 77.09375 44.375 
Q 74.3125 48.1875 68.609375 48.1875 
Q 61.625 48.1875 57.5625 43.546875 
Q 53.515625 38.921875 53.515625 30.90625 
L 53.515625 0 
L 44.484375 0 
L 44.484375 32.71875 
Q 44.484375 40.625 41.703125 44.40625 
Q 38.921875 48.1875 33.109375 48.1875 
Q 26.21875 48.1875 22.15625 43.53125 
Q 18.109375 38.875 18.109375 30.90625 
L 18.109375 0 
L 9.078125 0 
L 9.078125 54.6875 
L 18.109375 54.6875 
L 18.109375 46.1875 
Q 21.1875 51.21875 25.484375 53.609375 
Q 29.78125 56 35.6875 56 
Q 41.65625 56 45.828125 52.96875 
Q 50 49.953125 52 44.1875 
z
" id="DejaVuSans-109"/>
      <path d="M 18.109375 8.203125 
L 18.109375 -20.796875 
L 9.078125 -20.796875 
L 9.078125 54.6875 
L 18.109375 54.6875 
L 18.109375 46.390625 
Q 20.953125 51.265625 25.265625 53.625 
Q 29.59375 56 35.59375 56 
Q 45.5625 56 51.78125 48.09375 
Q 58.015625 40.1875 58.015625 27.296875 
Q 58.015625 14.40625 51.78125 6.484375 
Q 45.5625 -1.421875 35.59375 -1.421875 
Q 29.59375 -1.421875 25.265625 0.953125 
Q 20.953125 3.328125 18.109375 8.203125 
z
M 48.6875 27.296875 
Q 48.6875 37.203125 44.609375 42.84375 
Q 40.53125 48.484375 33.40625 48.484375 
Q 26.265625 48.484375 22.1875 42.84375 
Q 18.109375 37.203125 18.109375 27.296875 
Q 18.109375 17.390625 22.1875 11.75 
Q 26.265625 6.109375 33.40625 6.109375 
Q 40.53125 6.109375 44.609375 11.75 
Q 48.6875 17.390625 48.6875 27.296875 
z
" id="DejaVuSans-112"/>
      <path d="M 9.421875 75.984375 
L 18.40625 75.984375 
L 18.40625 0 
L 9.421875 0 
z
" id="DejaVuSans-108"/>
      <path d="M 9.421875 54.6875 
L 18.40625 54.6875 
L 18.40625 0 
L 9.421875 0 
z
M 9.421875 75.984375 
L 18.40625 75.984375 
L 18.40625 64.59375 
L 9.421875 64.59375 
z
" id="DejaVuSans-105"/>
      <path d="M 18.3125 70.21875 
L 18.3125 54.6875 
L 36.8125 54.6875 
L 36.8125 47.703125 
L 18.3125 47.703125 
L 18.3125 18.015625 
Q 18.3125 11.328125 20.140625 9.421875 
Q 21.96875 7.515625 27.59375 7.515625 
L 36.8125 7.515625 
L 36.8125 0 
L 27.59375 0 
Q 17.1875 0 13.234375 3.875 
Q 9.28125 7.765625 9.28125 18.015625 
L 9.28125 47.703125 
L 2.6875 47.703125 
L 2.6875 54.6875 
L 9.28125 54.6875 
L 9.28125 70.21875 
z
" id="DejaVuSans-116"/>
      <path d="M 45.40625 46.390625 
L 45.40625 75.984375 
L 54.390625 75.984375 
L 54.390625 0 
L 45.40625 0 
L 45.40625 8.203125 
Q 42.578125 3.328125 38.25 0.953125 
Q 33.9375 -1.421875 27.875 -1.421875 
Q 17.96875 -1.421875 11.734375 6.484375 
Q 5.515625 14.40625 5.515625 27.296875 
Q 5.515625 40.1875 11.734375 48.09375 
Q 17.96875 56 27.875 56 
Q 33.9375 56 38.25 53.625 
Q 42.578125 51.265625 45.40625 46.390625 
z
M 14.796875 27.296875 
Q 14.796875 17.390625 18.875 11.75 
Q 22.953125 6.109375 30.078125 6.109375 
Q 37.203125 6.109375 41.296875 11.75 
Q 45.40625 17.390625 45.40625 27.296875 
Q 45.40625 37.203125 41.296875 42.84375 
Q 37.203125 48.484375 30.078125 48.484375 
Q 22.953125 48.484375 18.875 42.84375 
Q 14.796875 37.203125 14.796875 27.296875 
z
" id="DejaVuSans-100"/>
      <path d="M 19.671875 34.8125 
L 19.671875 8.109375 
L 35.5 8.109375 
Q 43.453125 8.109375 47.28125 11.40625 
Q 51.125 14.703125 51.125 21.484375 
Q 51.125 28.328125 47.28125 31.5625 
Q 43.453125 34.8125 35.5 34.8125 
z
M 19.671875 64.796875 
L 19.671875 42.828125 
L 34.28125 42.828125 
Q 41.5 42.828125 45.03125 45.53125 
Q 48.578125 48.25 48.578125 53.8125 
Q 48.578125 59.328125 45.03125 62.0625 
Q 41.5 64.796875 34.28125 64.796875 
z
M 9.8125 72.90625 
L 35.015625 72.90625 
Q 46.296875 72.90625 52.390625 68.21875 
Q 58.5 63.53125 58.5 54.890625 
Q 58.5 48.1875 55.375 44.234375 
Q 52.25 40.28125 46.1875 39.3125 
Q 53.46875 37.75 57.5 32.78125 
Q 61.53125 27.828125 61.53125 20.40625 
Q 61.53125 10.640625 54.890625 5.3125 
Q 48.25 0 35.984375 0 
L 9.8125 0 
z
" id="DejaVuSans-66"/>
     </defs>
     <g style="fill:#ffffff;" transform="translate(19.815625 180.997969)rotate(-90)scale(0.1 -0.1)">
      <use xlink:href="#DejaVuSans-65"/>
      <use x="68.408203" xlink:href="#DejaVuSans-109"/>
      <use x="165.820312" xlink:href="#DejaVuSans-112"/>
      <use x="229.296875" xlink:href="#DejaVuSans-108"/>
      <use x="257.080078" xlink:href="#DejaVuSans-105"/>
      <use x="284.863281" xlink:href="#DejaVuSans-116"/>
      <use x="324.072266" xlink:href="#DejaVuSans-117"/>
      <use x="387.451172" xlink:href="#DejaVuSans-100"/>
      <use x="450.927734" xlink:href="#DejaVuSans-101"/>
      <use x="512.451172" xlink:href="#DejaVuSans-32"/>
      <use x="544.238281" xlink:href="#DejaVuSans-91"/>
      <use x="583.251953" xlink:href="#DejaVuSans-100"/>
      <use x="646.728516" xlink:href="#DejaVuSans-66"/>
      <use x="715.332031" xlink:href="#DejaVuSans-93"/>
     </g>
    </g>
   </g>
   <g id="line2d_47">
    <path clip-path="url(#p75615ad09a)" d="M -1 114.969249 
L 69.218182 114.969413 
L 92.631086 115.507672 
L 106.326758 116.379435 
L 116.043991 117.550284 
L 123.581263 118.978206 
L 129.739662 120.617906 
L 134.946515 122.424517 
L 139.456896 124.356305 
L 143.435333 126.376296 
L 146.994167 128.452981 
L 150.213524 130.56034 
L 153.152567 132.677457 
L 158.359419 136.879103 
L 162.8698 140.968415 
L 166.848238 144.897291 
L 172.055091 150.446073 
L 177.944344 157.190304 
L 184.102743 164.65162 
L 192.087408 174.728663 
L 210.735005 198.448674 
L 216.377704 205.181762 
L 220.833911 210.154559 
L 224.430676 213.855582 
L 227.681036 216.884312 
L 230.360847 219.097756 
L 232.84359 220.867721 
L 234.90699 222.09295 
L 236.851566 223.006722 
L 238.690261 223.62002 
L 240.220904 223.915888 
L 241.685181 223.989834 
L 243.08861 223.842503 
L 244.436047 223.472609 
L 245.731788 222.876893 
L 246.979654 222.050008 
L 248.183058 220.984326 
L 249.345058 219.669657 
L 250.46841 218.092846 
L 251.708097 215.948214 
L 252.903892 213.40747 
L 254.058797 210.42946 
L 255.175516 206.960715 
L 256.256494 202.931107 
L 257.432625 197.609986 
L 258.569178 191.275463 
L 259.54831 184.580284 
L 260.499857 176.601526 
L 261.42533 166.942728 
L 262.326122 155.045285 
L 263.203514 140.324035 
L 264.582386 116.066089 
L 264.789612 114.871702 
L 264.89275 114.806054 
L 264.995574 115.103713 
L 265.200288 116.723466 
L 265.60603 123.030945 
L 267.943171 166.460254 
L 268.962602 179.397756 
L 270.040705 190.214861 
L 271.17108 199.26637 
L 272.264849 206.317483 
L 273.404445 212.212727 
L 274.429284 216.418979 
L 275.423942 219.595085 
L 276.316797 221.717855 
L 277.043226 222.940864 
L 277.683918 223.638416 
L 278.243396 223.946765 
L 278.72545 223.978994 
L 279.200722 223.789851 
L 279.735825 223.30041 
L 280.327854 222.39433 
L 280.973719 220.929746 
L 281.67019 218.728485 
L 282.413949 215.557252 
L 283.201626 211.093544 
L 283.971352 205.361237 
L 284.723928 198.044699 
L 285.460101 188.633008 
L 286.125693 177.338454 
L 286.778422 162.314397 
L 287.365875 143.659242 
L 288.202516 115.123045 
L 288.254125 114.81102 
L 288.305654 114.862085 
L 288.408478 116.029141 
L 288.664177 123.648882 
L 289.865288 166.889343 
L 290.594856 183.622644 
L 291.356075 196.270981 
L 292.146505 205.989683 
L 292.963746 213.393707 
L 293.717843 218.325176 
L 294.412524 221.464687 
L 294.966618 223.066725 
L 295.428471 223.801681 
L 295.760441 223.989622 
L 296.048262 223.91694 
L 296.374225 223.562019 
L 296.737213 222.810992 
L 297.175631 221.37087 
L 297.686531 218.883395 
L 298.266586 214.843518 
L 298.874524 208.915794 
L 299.471714 200.887783 
L 300.058529 189.992798 
L 300.599561 175.896958 
L 301.096823 157.254104 
L 301.621603 128.536841 
L 301.932602 114.98421 
L 301.966981 114.787641 
L 302.001325 114.955188 
L 302.10415 117.498219 
L 302.410757 134.703792 
L 303.049041 167.314864 
L 303.642805 186.605368 
L 304.290527 200.841279 
L 304.957527 210.937357 
L 305.611611 217.663457 
L 306.192681 221.51399 
L 306.674367 223.34733 
L 307.031177 223.939125 
L 307.266973 223.970906 
L 307.471953 223.76147 
L 307.762641 223.074091 
L 308.136833 221.477061 
L 308.563504 218.580346 
L 309.040637 213.76151 
L 309.566048 206.028464 
L 310.08341 194.961121 
L 310.56634 179.806611 
L 311.016187 158.32811 
L 311.53786 120.140075 
L 311.692804 114.801671 
L 311.718559 115.084943 
L 311.821383 119.41794 
L 312.932259 186.011791 
L 313.498722 202.161746 
L 314.079858 212.919217 
L 314.627552 219.375745 
L 315.096694 222.619766 
L 315.444323 223.786405 
L 315.674104 223.992433 
L 315.834026 223.867889 
L 316.06118 223.30359 
L 316.354215 221.873245 
L 316.733618 218.737668 
L 317.174586 212.961597 
L 317.631489 203.849063 
L 318.082294 190.278073 
L 318.50611 170.446391 
L 318.88305 141.768026 
L 319.214613 114.816569 
L 319.255831 115.250774 
L 319.379182 123.571053 
L 320.029555 176.514043 
L 320.529086 197.558467 
L 321.060409 211.186683 
L 321.564273 219.009053 
L 322.00382 222.764562 
L 322.306252 223.874523 
L 322.493906 223.975683 
L 322.643282 223.731225 
L 322.866116 222.815167 
L 323.160958 220.525719 
L 323.525929 215.771848 
L 323.940827 207.146809 
L 324.35069 193.802349 
L 324.738134 173.670292 
L 325.08654 143.111801 
L 325.379886 114.788518 
L 325.431389 116.298172 
L 325.602502 134.619641 
L 326.043382 175.763644 
L 326.495208 198.398448 
L 326.990249 212.791475 
L 327.445832 220.309876 
L 327.815517 223.344253 
L 328.054455 223.984553 
L 328.165383 223.934628 
L 328.323223 223.478104 
L 328.558609 221.923769 
L 328.869926 218.112406 
L 329.239758 210.461568 
L 329.620742 197.661425 
L 329.982488 177.766434 
L 330.310719 146.343028 
L 330.591647 114.797872 
L 330.635791 116.634653 
L 330.826419 141.448978 
L 331.218933 180.332528 
L 331.649777 202.691485 
L 332.103366 215.819097 
L 332.509235 221.990148 
L 332.813914 223.862451 
L 332.937768 223.988448 
L 332.96523 223.966786 
L 333.088531 223.645193 
L 333.279443 222.404075 
L 333.550316 218.973327 
L 333.885881 211.509313 
L 334.244585 198.095468 
L 334.586441 176.338575 
L 334.885994 141.847621 
L 335.092824 114.822701 
L 335.144334 117.000832 
L 335.387939 153.163699 
L 335.769038 188.797394 
L 336.195815 209.13846 
L 336.617266 219.644877 
L 336.948242 223.392583 
L 337.154983 223.991701 
L 337.239745 223.858296 
L 337.396598 223.018119 
L 337.624543 220.347589 
L 337.922146 213.895737 
L 338.252377 201.50874 
L 338.579411 180.211719 
L 338.868754 145.127344 
L 339.075557 114.78998 
L 339.132778 118.794772 
L 339.789556 196.431281 
L 340.190879 213.81533 
L 340.565579 221.799143 
L 340.838465 223.91269 
L 340.91448 223.99043 
L 340.95784 223.935542 
L 341.076795 223.410219 
L 341.270548 221.33284 
L 341.537821 215.688778 
L 341.84523 204.058336 
L 342.160322 182.832958 
L 342.431045 148.277542 
L 342.637827 114.794657 
L 342.689325 119.290667 
L 343.270922 195.975142 
L 343.663164 214.57659 
L 344.011339 222.249557 
L 344.257856 223.977145 
L 344.306945 223.980304 
L 344.336364 223.928028 
L 344.453783 223.309927 
L 344.64858 220.776962 
L 344.909786 214.015627 
L 345.20722 199.968123 
L 345.492586 175.271523 
L 345.747371 131.576447 
L 345.850624 114.829416 
L 345.906811 119.807305 
L 346.426763 195.512898 
L 346.802431 214.994002 
L 347.137899 222.646708 
L 347.353731 223.992639 
L 347.416423 223.892134 
L 347.54146 223.021903 
L 347.737015 219.76801 
L 348.001871 211.0156 
L 348.290832 193.135565 
L 348.551397 162.022278 
L 348.79279 114.792026 
L 348.870016 126.048536 
L 349.236566 188.202365 
L 349.590792 212.035558 
L 349.924732 221.93491 
L 350.15654 223.983846 
L 350.189526 223.983846 
L 350.22248 223.91161 
L 350.329358 223.174069 
L 350.509463 220.102616 
L 350.753522 211.661123 
L 351.028008 193.629584 
L 351.276345 161.551601 
L 351.499091 114.792026 
L 351.570377 126.705497 
L 351.916737 189.286454 
L 352.259581 213.227692 
L 352.575948 222.490405 
L 352.775046 223.992639 
L 352.78268 223.988939 
L 352.851311 223.752219 
L 352.988155 222.16167 
L 353.192388 216.753088 
L 353.447825 203.383109 
L 353.701345 177.510131 
L 353.92347 129.546415 
L 354.004551 114.829416 
L 354.056047 123.338553 
L 354.42161 192.634767 
L 354.754469 215.290549 
L 355.048408 223.142572 
L 355.183761 223.992578 
L 355.219291 223.944283 
L 355.311492 223.287616 
L 355.474004 220.172381 
L 355.698815 211.031213 
L 355.949951 190.904503 
L 356.171627 154.24591 
L 356.330062 114.794657 
L 356.391857 125.966835 
L 356.719533 192.127066 
L 357.044061 215.688778 
L 357.325487 223.334981 
L 357.438735 223.992867 
L 357.485256 223.883506 
L 357.59135 222.794214 
L 357.769632 218.141678 
L 357.999346 205.618357 
L 358.240499 178.943626 
L 358.447685 128.201696 
L 358.512171 114.78998 
L 358.563671 124.594719 
L 358.896522 194.54154 
L 359.213507 217.185175 
L 359.477495 223.682356 
L 359.552543 223.992693 
L 359.602482 223.838044 
L 359.714576 222.418636 
L 359.894393 216.764076 
L 360.122435 201.758114 
L 360.348946 170.644998 
L 360.561825 114.822701 
L 360.634504 133.607704 
L 360.917669 194.059952 
L 361.228215 217.530289 
L 361.482874 223.793267 
L 361.541823 223.992058 
L 361.588908 223.825832 
L 361.69461 222.379653 
L 361.870049 216.396395 
L 362.090971 200.419563 
L 362.304699 167.684299 
L 362.488462 114.797872 
L 362.557115 132.169406 
L 362.836013 194.988917 
L 363.135107 218.112406 
L 363.375837 223.8797 
L 363.414864 223.992856 
L 363.464975 223.813155 
L 363.570522 222.213639 
L 363.747543 215.424511 
L 363.967522 197.117324 
L 364.169735 160.175497 
L 364.316535 114.788518 
L 364.376161 130.729595 
L 364.651238 195.894017 
L 364.945401 218.892427 
L 365.173611 223.960969 
L 365.194762 223.99274 
L 365.237023 223.839538 
L 365.337184 222.300211 
L 365.505206 215.629144 
L 365.71927 196.907708 
L 365.916467 158.140026 
L 366.050731 114.816569 
L 366.107375 131.407029 
L 366.378971 197.429321 
L 366.663588 219.611717 
L 366.880517 223.992433 
L 366.915699 223.895723 
L 367.006 222.619766 
L 367.165942 216.407692 
L 367.369767 198.623857 
L 367.562515 160.71806 
L 367.695314 114.801671 
L 367.759069 134.198449 
L 368.017753 198.272546 
L 368.29859 220.271955 
L 368.490919 223.992838 
L 368.500507 223.984896 
L 368.553191 223.617688 
L 368.667853 220.860789 
L 368.84861 210.138277 
L 369.051991 182.984512 
L 369.230709 124.277111 
L 369.268214 114.787641 
L 369.319715 130.64496 
L 369.580692 199.094641 
L 369.853486 220.699085 
L 370.028024 223.99278 
L 370.046344 223.953064 
L 370.114956 223.156645 
L 370.251763 218.325176 
L 370.442368 202.361519 
L 370.631902 165.536395 
L 370.771118 114.81102 
L 370.829328 135.543516 
L 371.07894 200.490249 
L 371.348756 221.42113 
L 371.498215 223.99226 
L 371.528904 223.865184 
L 371.616434 222.264834 
L 371.769067 214.615003 
L 371.959975 192.515934 
L 372.132597 143.58125 
L 372.205695 114.806054 
L 372.261487 134.11413 
L 372.509288 201.257286 
L 372.772183 221.770289 
L 372.902868 223.992813 
L 372.940714 223.816368 
L 373.033049 221.816362 
L 373.191944 212.460904 
L 373.379147 186.640016 
L 373.544684 128.452981 
L 373.581818 114.969413 
L 373.581818 114.969413 
" style="fill:none;stroke:#8dd3c7;stroke-linecap:square;stroke-width:1.5;"/>
   </g>
   <g id="line2d_48">
    <path clip-path="url(#p75615ad09a)" d="M -1 223.990616 
L 134.946515 223.882245 
L 153.152567 223.667309 
L 164.917559 223.338079 
L 173.626429 222.893067 
L 180.543909 222.330233 
L 186.282705 221.646948 
L 191.186617 220.839942 
L 195.467995 219.905244 
L 199.267241 218.838098 
L 202.682033 217.632865 
L 205.783079 216.282896 
L 208.623212 214.780378 
L 211.242949 213.116138 
L 213.674047 211.279395 
L 215.941857 209.257457 
L 218.06694 207.03532 
L 220.066203 204.595171 
L 221.953716 201.915732 
L 223.741312 198.971414 
L 225.43904 195.731192 
L 227.055505 192.157124 
L 228.598133 188.202365 
L 230.073376 183.808511 
L 231.486874 178.902111 
L 232.84359 173.390252 
L 234.147909 167.155709 
L 235.40373 160.054206 
L 236.614529 151.923564 
L 237.783424 142.639812 
L 239.354762 128.118038 
L 240.434013 118.734319 
L 240.856239 116.218847 
L 241.273253 114.915953 
L 241.479845 114.792026 
L 241.685181 115.032023 
L 242.092146 116.547696 
L 242.494266 119.227515 
L 243.284423 126.705497 
L 246.09305 155.834258 
L 247.500657 167.57902 
L 248.851944 177.122943 
L 250.3102 185.906139 
L 251.859907 193.859754 
L 253.341622 200.372349 
L 254.899779 206.240728 
L 256.389216 211.0156 
L 257.815741 214.881278 
L 259.184453 217.964816 
L 260.382369 220.164663 
L 261.539252 221.839209 
L 262.547616 222.925052 
L 263.419346 223.569501 
L 264.269144 223.920051 
L 264.995574 223.988939 
L 265.706709 223.836543 
L 266.403181 223.461531 
L 267.181951 222.756022 
L 267.943171 221.747064 
L 268.779525 220.233824 
L 269.59567 218.29642 
L 270.479953 215.60522 
L 271.341675 212.286062 
L 272.264849 207.805328 
L 273.163462 202.295078 
L 274.038786 195.512898 
L 274.891999 187.087753 
L 275.72419 176.426393 
L 276.463338 163.978115 
L 277.186656 147.761735 
L 278.519697 114.836712 
L 278.588421 114.829416 
L 278.72545 115.886387 
L 278.997852 121.466916 
L 280.909685 171.771575 
L 281.7328 185.302247 
L 282.597358 196.163698 
L 283.499754 204.920379 
L 284.436457 211.901594 
L 285.291633 216.742091 
L 286.070725 220.032169 
L 286.778422 222.15643 
L 287.365875 223.309927 
L 287.839033 223.835034 
L 288.254125 223.992578 
L 288.613192 223.893338 
L 289.018935 223.5078 
L 289.469645 222.721558 
L 289.963479 221.396064 
L 290.546705 219.14178 
L 291.167373 215.8073 
L 291.823271 211.031213 
L 292.512166 204.266048 
L 293.187292 195.293229 
L 293.805463 184.141014 
L 294.412524 168.930804 
L 294.966618 149.007967 
L 295.801709 114.794657 
L 295.842926 114.904025 
L 295.966277 117.294131 
L 296.252357 130.137487 
L 297.016864 164.372037 
L 297.647504 182.832958 
L 298.343179 197.038871 
L 299.062283 207.478288 
L 299.766396 214.767719 
L 300.420178 219.486143 
L 300.990881 222.198129 
L 301.447581 223.480841 
L 301.794734 223.935542 
L 302.06991 223.973101 
L 302.308863 223.76874 
L 302.613626 223.177532 
L 302.982419 221.940469 
L 303.446041 219.502998 
L 303.968219 215.412383 
L 304.514327 209.274405 
L 305.083095 200.206535 
L 305.642444 187.394834 
L 306.131984 171.039812 
L 306.584572 148.424234 
L 307.178742 114.78998 
L 307.208178 115.015516 
L 307.325666 119.16469 
L 308.619988 186.743781 
L 309.235162 202.072522 
L 309.866538 212.50436 
L 310.459618 218.901452 
L 310.963573 222.239333 
L 311.356189 223.626974 
L 311.641235 223.986196 
L 311.821383 223.92995 
L 312.026097 223.593961 
L 312.305568 222.651172 
L 312.657946 220.612995 
L 313.08095 216.764076 
L 313.547534 210.381206 
L 314.03181 200.607703 
L 314.509241 186.257255 
L 314.933234 166.782407 
L 315.328844 138.038119 
L 315.674104 114.822701 
L 315.742735 116.860121 
L 315.970502 135.711035 
L 316.466247 171.723133 
L 316.976863 193.339798 
L 317.523262 207.769208 
L 318.060963 216.731084 
L 318.548201 221.586988 
L 318.924674 223.523622 
L 319.193986 223.988448 
L 319.338115 223.922088 
L 319.522525 223.510455 
L 319.78713 222.254657 
L 320.130054 219.367192 
L 320.529086 213.935797 
L 320.962644 204.798882 
L 321.390708 190.935555 
L 321.794315 170.246978 
L 322.155374 139.431478 
L 322.437719 114.797872 
L 322.475188 115.346996 
L 322.587344 123.883326 
L 323.197633 177.766434 
L 323.67082 198.921991 
L 324.173099 212.373687 
L 324.650468 219.889226 
L 325.051861 223.167122 
L 325.328304 223.971466 
L 325.465681 223.93824 
L 325.619566 223.554472 
L 325.857558 222.213639 
L 326.161104 219.080086 
L 326.528438 212.791475 
L 326.924661 201.960614 
L 327.316291 184.798196 
L 327.671339 158.640217 
L 328.086186 114.788518 
L 328.165383 119.102195 
L 328.962764 191.581834 
L 329.423167 208.933 
L 329.877378 218.663954 
L 330.266147 222.917101 
L 330.532698 223.960969 
L 330.635791 223.969184 
L 330.650493 223.952301 
L 330.782523 223.596367 
L 330.986883 222.300211 
L 331.276698 218.783451 
L 331.621224 211.570177 
L 331.990538 198.822917 
L 332.34188 178.652209 
L 332.648066 147.909487 
L 332.924029 114.816569 
L 332.978952 118.093111 
L 333.805649 198.070093 
L 334.244585 213.653354 
L 334.651788 221.268814 
L 334.963704 223.746581 
L 335.105708 223.992163 
L 335.131463 223.978084 
L 335.234288 223.740877 
L 335.41348 222.619766 
L 335.667831 219.375745 
L 335.9831 212.198026 
L 336.332743 198.623857 
L 336.666505 176.162435 
L 336.960439 139.512923 
L 337.142857 114.801671 
L 337.191336 117.194631 
L 338.087665 205.539509 
L 338.497949 218.10263 
L 338.845698 223.074091 
L 339.075557 223.992838 
L 339.15564 223.886008 
L 339.292484 223.184434 
L 339.508026 220.684819 
L 339.789556 214.499482 
L 340.113217 201.983029 
L 340.433806 180.050122 
L 340.707754 144.82046 
L 340.903631 114.787641 
L 340.95784 119.040033 
L 341.569752 195.866932 
L 341.961105 213.868978 
L 342.327178 221.962627 
L 342.58625 223.940874 
L 342.648133 223.989622 
L 342.689325 223.931843 
L 342.802346 223.398491 
L 342.996676 221.144951 
L 343.260804 215.031392 
L 343.563022 202.361519 
L 343.86256 179.725142 
L 344.120028 142.244574 
L 344.287318 114.81102 
L 344.336364 119.546486 
L 344.880863 195.403236 
L 345.264486 214.627786 
L 345.606061 222.39433 
L 345.84125 223.987928 
L 345.897453 223.946765 
L 345.906811 223.924097 
L 346.018905 223.297223 
L 346.204906 220.748758 
L 346.463598 213.626207 
L 346.756841 198.648806 
L 347.038513 171.577514 
L 347.299902 121.179942 
L 347.353731 114.806054 
L 347.407475 120.072937 
L 347.896178 194.933303 
L 348.264665 215.043835 
L 348.59463 222.773072 
L 348.79279 223.992813 
L 348.80138 223.991278 
L 348.870016 223.816368 
L 349.006872 222.587987 
L 349.219605 218.170869 
L 349.481547 207.569575 
L 349.758175 186.640016 
L 349.999415 150.446073 
L 350.173037 114.787349 
L 350.230713 122.424517 
L 350.631713 191.520759 
L 350.979731 213.855582 
L 351.300281 222.587987 
L 351.499091 223.992813 
L 351.507019 223.989834 
L 351.570377 223.803342 
L 351.696737 222.55121 
L 351.90107 217.845265 
L 352.158648 206.009081 
L 352.421993 182.718937 
L 352.652663 140.324035 
L 352.775046 114.806054 
L 352.828449 123.030945 
L 353.207467 192.515934 
L 353.544984 214.93148 
L 353.849591 223.036964 
L 354.004551 223.99235 
L 354.033987 223.947577 
L 354.129477 223.30041 
L 354.297762 220.20317 
L 354.530512 211.093544 
L 354.790453 191.028561 
L 355.019844 154.513531 
L 355.183761 114.81102 
L 355.247687 125.641042 
L 355.586597 192.00659 
L 355.915183 215.339404 
L 356.206132 223.241903 
L 356.330062 223.99278 
L 356.371271 223.91694 
L 356.467231 223.103254 
L 356.637911 219.3243 
L 356.868662 208.481414 
L 357.117995 184.906724 
L 357.332159 141.048673 
L 357.438735 114.787641 
L 357.491897 124.277111 
L 357.82885 193.71607 
L 358.149454 216.59825 
L 358.421857 223.556995 
L 358.512171 223.992838 
L 358.563671 223.843975 
L 358.672849 222.555834 
L 358.851906 217.343308 
L 359.080736 203.489683 
L 359.314317 174.409062 
L 359.552543 114.801671 
L 359.633657 135.375848 
L 359.919121 193.94569 
L 360.232819 217.227551 
L 360.495065 223.740877 
L 360.561825 223.992433 
L 360.610295 223.831996 
L 360.7191 222.399206 
L 360.899665 216.441523 
L 361.127004 200.513776 
L 361.3469 167.894202 
L 361.535933 114.816569 
L 361.606548 131.830583 
L 361.887543 194.173852 
L 362.189338 217.571431 
L 362.442615 223.839538 
L 362.488462 223.99274 
L 362.539965 223.819552 
L 362.648437 222.23421 
L 362.824674 215.771848 
L 363.045093 198.498822 
L 363.252887 163.353123 
L 363.414864 114.788518 
L 363.481662 132.508142 
L 363.758576 195.785552 
L 364.055114 218.626884 
L 364.289398 223.93824 
L 364.316535 223.992856 
L 364.365327 223.806642 
L 364.473503 222.06079 
L 364.651238 214.75505 
L 364.865428 195.676747 
L 365.062352 156.806034 
L 365.194762 114.797872 
L 365.252858 131.068247 
L 365.52615 196.670328 
L 365.818013 219.367192 
L 366.040422 223.987095 
L 366.055885 223.988448 
L 366.08164 223.900407 
L 366.16906 222.747451 
L 366.327894 217.003394 
L 366.531743 200.537284 
L 366.729318 165.26151 
L 366.880517 114.822701 
L 366.945826 133.861021 
L 367.20581 197.532678 
L 367.488511 219.849033 
L 367.695314 223.992693 
L 367.700223 223.991701 
L 367.744367 223.779426 
L 367.847146 221.833509 
L 368.017753 213.55815 
L 368.221351 191.612334 
L 368.404506 145.127344 
L 368.490919 114.78998 
L 368.543618 130.306574 
L 368.805887 198.373307 
L 369.084984 220.489002 
L 369.268214 223.992867 
L 369.282268 223.972018 
L 369.343099 223.410219 
L 369.469092 219.694361 
L 369.654888 206.546375 
L 369.84888 175.629946 
L 370.028024 114.794657 
L 370.096673 139.349974 
L 370.3472 200.980578 
L 370.618399 221.396064 
L 370.771118 223.992578 
L 370.797996 223.90156 
L 370.878505 222.642237 
L 371.025607 216.179912 
L 371.216329 196.828766 
L 371.397183 153.027096 
L 371.493828 114.829416 
L 371.550808 133.776604 
L 371.799511 200.584248 
L 372.063654 221.446068 
L 372.205695 223.992639 
L 372.240039 223.859688 
L 372.325748 222.244449 
L 372.479477 214.239733 
L 372.67066 190.873425 
L 372.839697 139.26841 
L 372.902868 114.792026 
L 372.957521 134.451249 
L 373.200286 201.348966 
L 373.462017 221.93491 
L 373.581818 223.990614 
L 373.581818 223.990614 
" style="fill:none;stroke:#feffb3;stroke-linecap:square;stroke-width:1.5;"/>
   </g>
   <g id="line2d_49">
    <path clip-path="url(#p75615ad09a)" d="M -1 194.778947 
L 373.581818 194.778947 
L 373.581818 194.778947 
" style="fill:none;stroke:#bfbbd9;stroke-linecap:square;stroke-width:1.5;"/>
   </g>
   <g id="line2d_50">
    <path clip-path="url(#p75615ad09a)" d="M 264.85978 252 
L 264.85978 34.56 
" style="fill:none;stroke:#ffffff;stroke-linecap:square;stroke-width:1.5;"/>
   </g>
   <g id="patch_3">
    <path d="M 54 252 
L 54 34.56 
" style="fill:none;stroke:#ffffff;stroke-linecap:square;stroke-linejoin:miter;stroke-width:0.8;"/>
   </g>
   <g id="patch_4">
    <path d="M 388.8 252 
L 388.8 34.56 
" style="fill:none;stroke:#ffffff;stroke-linecap:square;stroke-linejoin:miter;stroke-width:0.8;"/>
   </g>
   <g id="patch_5">
    <path d="M 54 252 
L 388.8 252 
" style="fill:none;stroke:#ffffff;stroke-linecap:square;stroke-linejoin:miter;stroke-width:0.8;"/>
   </g>
   <g id="patch_6">
    <path d="M 54 34.56 
L 388.8 34.56 
" style="fill:none;stroke:#ffffff;stroke-linecap:square;stroke-linejoin:miter;stroke-width:0.8;"/>
   </g>
   <g id="text_15">
    <!--   Delay frequency -->
    <defs>
     <path d="M 19.671875 64.796875 
L 19.671875 8.109375 
L 31.59375 8.109375 
Q 46.6875 8.109375 53.6875 14.9375 
Q 60.6875 21.78125 60.6875 36.53125 
Q 60.6875 51.171875 53.6875 57.984375 
Q 46.6875 64.796875 31.59375 64.796875 
z
M 9.8125 72.90625 
L 30.078125 72.90625 
Q 51.265625 72.90625 61.171875 64.09375 
Q 71.09375 55.28125 71.09375 36.53125 
Q 71.09375 17.671875 61.125 8.828125 
Q 51.171875 0 30.078125 0 
L 9.8125 0 
z
" id="DejaVuSans-68"/>
     <path d="M 34.28125 27.484375 
Q 23.390625 27.484375 19.1875 25 
Q 14.984375 22.515625 14.984375 16.5 
Q 14.984375 11.71875 18.140625 8.90625 
Q 21.296875 6.109375 26.703125 6.109375 
Q 34.1875 6.109375 38.703125 11.40625 
Q 43.21875 16.703125 43.21875 25.484375 
L 43.21875 27.484375 
z
M 52.203125 31.203125 
L 52.203125 0 
L 43.21875 0 
L 43.21875 8.296875 
Q 40.140625 3.328125 35.546875 0.953125 
Q 30.953125 -1.421875 24.3125 -1.421875 
Q 15.921875 -1.421875 10.953125 3.296875 
Q 6 8.015625 6 15.921875 
Q 6 25.140625 12.171875 29.828125 
Q 18.359375 34.515625 30.609375 34.515625 
L 43.21875 34.515625 
L 43.21875 35.40625 
Q 43.21875 41.609375 39.140625 45 
Q 35.0625 48.390625 27.6875 48.390625 
Q 23 48.390625 18.546875 47.265625 
Q 14.109375 46.140625 10.015625 43.890625 
L 10.015625 52.203125 
Q 14.9375 54.109375 19.578125 55.046875 
Q 24.21875 56 28.609375 56 
Q 40.484375 56 46.34375 49.84375 
Q 52.203125 43.703125 52.203125 31.203125 
z
" id="DejaVuSans-97"/>
     <path d="M 37.109375 75.984375 
L 37.109375 68.5 
L 28.515625 68.5 
Q 23.6875 68.5 21.796875 66.546875 
Q 19.921875 64.59375 19.921875 59.515625 
L 19.921875 54.6875 
L 34.71875 54.6875 
L 34.71875 47.703125 
L 19.921875 47.703125 
L 19.921875 0 
L 10.890625 0 
L 10.890625 47.703125 
L 2.296875 47.703125 
L 2.296875 54.6875 
L 10.890625 54.6875 
L 10.890625 58.5 
Q 10.890625 67.625 15.140625 71.796875 
Q 19.390625 75.984375 28.609375 75.984375 
z
" id="DejaVuSans-102"/>
    </defs>
    <g style="fill:#ffffff;" transform="translate(264.85978 108.947368)scale(0.1 -0.1)">
     <use xlink:href="#DejaVuSans-32"/>
     <use x="31.787109" xlink:href="#DejaVuSans-32"/>
     <use x="63.574219" xlink:href="#DejaVuSans-68"/>
     <use x="140.576172" xlink:href="#DejaVuSans-101"/>
     <use x="202.099609" xlink:href="#DejaVuSans-108"/>
     <use x="229.882812" xlink:href="#DejaVuSans-97"/>
     <use x="291.162109" xlink:href="#DejaVuSans-121"/>
     <use x="350.341797" xlink:href="#DejaVuSans-32"/>
     <use x="382.128906" xlink:href="#DejaVuSans-102"/>
     <use x="417.333984" xlink:href="#DejaVuSans-114"/>
     <use x="458.416016" xlink:href="#DejaVuSans-101"/>
     <use x="519.939453" xlink:href="#DejaVuSans-113"/>
     <use x="583.416016" xlink:href="#DejaVuSans-117"/>
     <use x="646.794922" xlink:href="#DejaVuSans-101"/>
     <use x="708.318359" xlink:href="#DejaVuSans-110"/>
     <use x="771.697266" xlink:href="#DejaVuSans-99"/>
     <use x="826.677734" xlink:href="#DejaVuSans-121"/>
    </g>
   </g>
   <g id="text_16">
    <!-- Feedback -->
    <defs>
     <path d="M 48.6875 27.296875 
Q 48.6875 37.203125 44.609375 42.84375 
Q 40.53125 48.484375 33.40625 48.484375 
Q 26.265625 48.484375 22.1875 42.84375 
Q 18.109375 37.203125 18.109375 27.296875 
Q 18.109375 17.390625 22.1875 11.75 
Q 26.265625 6.109375 33.40625 6.109375 
Q 40.53125 6.109375 44.609375 11.75 
Q 48.6875 17.390625 48.6875 27.296875 
z
M 18.109375 46.390625 
Q 20.953125 51.265625 25.265625 53.625 
Q 29.59375 56 35.59375 56 
Q 45.5625 56 51.78125 48.09375 
Q 58.015625 40.1875 58.015625 27.296875 
Q 58.015625 14.40625 51.78125 6.484375 
Q 45.5625 -1.421875 35.59375 -1.421875 
Q 29.59375 -1.421875 25.265625 0.953125 
Q 20.953125 3.328125 18.109375 8.203125 
L 18.109375 0 
L 9.078125 0 
L 9.078125 75.984375 
L 18.109375 75.984375 
z
" id="DejaVuSans-98"/>
     <path d="M 9.078125 75.984375 
L 18.109375 75.984375 
L 18.109375 31.109375 
L 44.921875 54.6875 
L 56.390625 54.6875 
L 27.390625 29.109375 
L 57.625 0 
L 45.90625 0 
L 18.109375 26.703125 
L 18.109375 0 
L 9.078125 0 
z
" id="DejaVuSans-107"/>
    </defs>
    <g style="fill:#ffffff;" transform="translate(192.501563 28.56)scale(0.12 -0.12)">
     <use xlink:href="#DejaVuSans-70"/>
     <use x="57.441406" xlink:href="#DejaVuSans-101"/>
     <use x="118.964844" xlink:href="#DejaVuSans-101"/>
     <use x="180.488281" xlink:href="#DejaVuSans-100"/>
     <use x="243.964844" xlink:href="#DejaVuSans-98"/>
     <use x="307.441406" xlink:href="#DejaVuSans-97"/>
     <use x="368.720703" xlink:href="#DejaVuSans-99"/>
     <use x="423.701172" xlink:href="#DejaVuSans-107"/>
    </g>
   </g>
   <g id="legend_1">
    <g id="patch_7">
     <path d="M 61 86.594375 
L 187 86.594375 
Q 189 86.594375 189 84.594375 
L 189 41.56 
Q 189 39.56 187 39.56 
L 61 39.56 
Q 59 39.56 59 41.56 
L 59 84.594375 
Q 59 86.594375 61 86.594375 
z
" style="opacity:0.8;stroke:#cccccc;stroke-linejoin:miter;"/>
    </g>
    <g id="line2d_51">
     <path d="M 63 47.658438 
L 83 47.658438 
" style="fill:none;stroke:#8dd3c7;stroke-linecap:square;stroke-width:1.5;"/>
    </g>
    <g id="line2d_52"/>
    <g id="text_17">
     <!-- Positive feedback -->
     <defs>
      <path d="M 19.671875 64.796875 
L 19.671875 37.40625 
L 32.078125 37.40625 
Q 38.96875 37.40625 42.71875 40.96875 
Q 46.484375 44.53125 46.484375 51.125 
Q 46.484375 57.671875 42.71875 61.234375 
Q 38.96875 64.796875 32.078125 64.796875 
z
M 9.8125 72.90625 
L 32.078125 72.90625 
Q 44.34375 72.90625 50.609375 67.359375 
Q 56.890625 61.8125 56.890625 51.125 
Q 56.890625 40.328125 50.609375 34.8125 
Q 44.34375 29.296875 32.078125 29.296875 
L 19.671875 29.296875 
L 19.671875 0 
L 9.8125 0 
z
" id="DejaVuSans-80"/>
      <path d="M 30.609375 48.390625 
Q 23.390625 48.390625 19.1875 42.75 
Q 14.984375 37.109375 14.984375 27.296875 
Q 14.984375 17.484375 19.15625 11.84375 
Q 23.34375 6.203125 30.609375 6.203125 
Q 37.796875 6.203125 41.984375 11.859375 
Q 46.1875 17.53125 46.1875 27.296875 
Q 46.1875 37.015625 41.984375 42.703125 
Q 37.796875 48.390625 30.609375 48.390625 
z
M 30.609375 56 
Q 42.328125 56 49.015625 48.375 
Q 55.71875 40.765625 55.71875 27.296875 
Q 55.71875 13.875 49.015625 6.21875 
Q 42.328125 -1.421875 30.609375 -1.421875 
Q 18.84375 -1.421875 12.171875 6.21875 
Q 5.515625 13.875 5.515625 27.296875 
Q 5.515625 40.765625 12.171875 48.375 
Q 18.84375 56 30.609375 56 
z
" id="DejaVuSans-111"/>
      <path d="M 44.28125 53.078125 
L 44.28125 44.578125 
Q 40.484375 46.53125 36.375 47.5 
Q 32.28125 48.484375 27.875 48.484375 
Q 21.1875 48.484375 17.84375 46.4375 
Q 14.5 44.390625 14.5 40.28125 
Q 14.5 37.15625 16.890625 35.375 
Q 19.28125 33.59375 26.515625 31.984375 
L 29.59375 31.296875 
Q 39.15625 29.25 43.1875 25.515625 
Q 47.21875 21.78125 47.21875 15.09375 
Q 47.21875 7.46875 41.1875 3.015625 
Q 35.15625 -1.421875 24.609375 -1.421875 
Q 20.21875 -1.421875 15.453125 -0.5625 
Q 10.6875 0.296875 5.421875 2 
L 5.421875 11.28125 
Q 10.40625 8.6875 15.234375 7.390625 
Q 20.0625 6.109375 24.8125 6.109375 
Q 31.15625 6.109375 34.5625 8.28125 
Q 37.984375 10.453125 37.984375 14.40625 
Q 37.984375 18.0625 35.515625 20.015625 
Q 33.0625 21.96875 24.703125 23.78125 
L 21.578125 24.515625 
Q 13.234375 26.265625 9.515625 29.90625 
Q 5.8125 33.546875 5.8125 39.890625 
Q 5.8125 47.609375 11.28125 51.796875 
Q 16.75 56 26.8125 56 
Q 31.78125 56 36.171875 55.265625 
Q 40.578125 54.546875 44.28125 53.078125 
z
" id="DejaVuSans-115"/>
      <path d="M 2.984375 54.6875 
L 12.5 54.6875 
L 29.59375 8.796875 
L 46.6875 54.6875 
L 56.203125 54.6875 
L 35.6875 0 
L 23.484375 0 
z
" id="DejaVuSans-118"/>
     </defs>
     <g style="fill:#ffffff;" transform="translate(91 51.158438)scale(0.1 -0.1)">
      <use xlink:href="#DejaVuSans-80"/>
      <use x="60.255859" xlink:href="#DejaVuSans-111"/>
      <use x="121.4375" xlink:href="#DejaVuSans-115"/>
      <use x="173.537109" xlink:href="#DejaVuSans-105"/>
      <use x="201.320312" xlink:href="#DejaVuSans-116"/>
      <use x="240.529297" xlink:href="#DejaVuSans-105"/>
      <use x="268.3125" xlink:href="#DejaVuSans-118"/>
      <use x="327.492188" xlink:href="#DejaVuSans-101"/>
      <use x="389.015625" xlink:href="#DejaVuSans-32"/>
      <use x="420.802734" xlink:href="#DejaVuSans-102"/>
      <use x="456.007812" xlink:href="#DejaVuSans-101"/>
      <use x="517.53125" xlink:href="#DejaVuSans-101"/>
      <use x="579.054688" xlink:href="#DejaVuSans-100"/>
      <use x="642.53125" xlink:href="#DejaVuSans-98"/>
      <use x="706.007812" xlink:href="#DejaVuSans-97"/>
      <use x="767.287109" xlink:href="#DejaVuSans-99"/>
      <use x="822.267578" xlink:href="#DejaVuSans-107"/>
     </g>
    </g>
    <g id="line2d_53">
     <path d="M 63 62.336563 
L 83 62.336563 
" style="fill:none;stroke:#feffb3;stroke-linecap:square;stroke-width:1.5;"/>
    </g>
    <g id="line2d_54"/>
    <g id="text_18">
     <!-- Negative feedback -->
     <defs>
      <path d="M 9.8125 72.90625 
L 23.09375 72.90625 
L 55.421875 11.921875 
L 55.421875 72.90625 
L 64.984375 72.90625 
L 64.984375 0 
L 51.703125 0 
L 19.390625 60.984375 
L 19.390625 0 
L 9.8125 0 
z
" id="DejaVuSans-78"/>
      <path d="M 45.40625 27.984375 
Q 45.40625 37.75 41.375 43.109375 
Q 37.359375 48.484375 30.078125 48.484375 
Q 22.859375 48.484375 18.828125 43.109375 
Q 14.796875 37.75 14.796875 27.984375 
Q 14.796875 18.265625 18.828125 12.890625 
Q 22.859375 7.515625 30.078125 7.515625 
Q 37.359375 7.515625 41.375 12.890625 
Q 45.40625 18.265625 45.40625 27.984375 
z
M 54.390625 6.78125 
Q 54.390625 -7.171875 48.1875 -13.984375 
Q 42 -20.796875 29.203125 -20.796875 
Q 24.46875 -20.796875 20.265625 -20.09375 
Q 16.0625 -19.390625 12.109375 -17.921875 
L 12.109375 -9.1875 
Q 16.0625 -11.328125 19.921875 -12.34375 
Q 23.78125 -13.375 27.78125 -13.375 
Q 36.625 -13.375 41.015625 -8.765625 
Q 45.40625 -4.15625 45.40625 5.171875 
L 45.40625 9.625 
Q 42.625 4.78125 38.28125 2.390625 
Q 33.9375 0 27.875 0 
Q 17.828125 0 11.671875 7.65625 
Q 5.515625 15.328125 5.515625 27.984375 
Q 5.515625 40.671875 11.671875 48.328125 
Q 17.828125 56 27.875 56 
Q 33.9375 56 38.28125 53.609375 
Q 42.625 51.21875 45.40625 46.390625 
L 45.40625 54.6875 
L 54.390625 54.6875 
z
" id="DejaVuSans-103"/>
     </defs>
     <g style="fill:#ffffff;" transform="translate(91 65.836563)scale(0.1 -0.1)">
      <use xlink:href="#DejaVuSans-78"/>
      <use x="74.804688" xlink:href="#DejaVuSans-101"/>
      <use x="136.328125" xlink:href="#DejaVuSans-103"/>
      <use x="199.804688" xlink:href="#DejaVuSans-97"/>
      <use x="261.083984" xlink:href="#DejaVuSans-116"/>
      <use x="300.292969" xlink:href="#DejaVuSans-105"/>
      <use x="328.076172" xlink:href="#DejaVuSans-118"/>
      <use x="387.255859" xlink:href="#DejaVuSans-101"/>
      <use x="448.779297" xlink:href="#DejaVuSans-32"/>
      <use x="480.566406" xlink:href="#DejaVuSans-102"/>
      <use x="515.771484" xlink:href="#DejaVuSans-101"/>
      <use x="577.294922" xlink:href="#DejaVuSans-101"/>
      <use x="638.818359" xlink:href="#DejaVuSans-100"/>
      <use x="702.294922" xlink:href="#DejaVuSans-98"/>
      <use x="765.771484" xlink:href="#DejaVuSans-97"/>
      <use x="827.050781" xlink:href="#DejaVuSans-99"/>
      <use x="882.03125" xlink:href="#DejaVuSans-107"/>
     </g>
    </g>
    <g id="line2d_55">
     <path d="M 63 77.014688 
L 83 77.014688 
" style="fill:none;stroke:#bfbbd9;stroke-linecap:square;stroke-width:1.5;"/>
    </g>
    <g id="line2d_56"/>
    <g id="text_19">
     <!-- Allpass -->
     <g style="fill:#ffffff;" transform="translate(91 80.514688)scale(0.1 -0.1)">
      <use xlink:href="#DejaVuSans-65"/>
      <use x="68.408203" xlink:href="#DejaVuSans-108"/>
      <use x="96.191406" xlink:href="#DejaVuSans-108"/>
      <use x="123.974609" xlink:href="#DejaVuSans-112"/>
      <use x="187.451172" xlink:href="#DejaVuSans-97"/>
      <use x="248.730469" xlink:href="#DejaVuSans-115"/>
      <use x="300.830078" xlink:href="#DejaVuSans-115"/>
     </g>
    </g>
   </g>
  </g>
 </g>
 <defs>
  <clipPath id="p75615ad09a">
   <rect height="217.44" width="334.8" x="54" y="34.56"/>
  </clipPath>
 </defs>
</svg>
