<?xml version="1.0" encoding="utf-8" standalone="no"?>
<!DOCTYPE svg PUBLIC "-//W3C//DTD SVG 1.1//EN"
  "http://www.w3.org/Graphics/SVG/1.1/DTD/svg11.dtd">
<!-- Created with matplotlib (https://matplotlib.org/) -->
<svg height="198pt" version="1.1" viewBox="0 0 432 198" width="432pt" xmlns="http://www.w3.org/2000/svg" xmlns:xlink="http://www.w3.org/1999/xlink">
 <defs>
  <style type="text/css">
*{stroke-linecap:butt;stroke-linejoin:round;}
  </style>
 </defs>
 <g id="figure_1">
  <g id="patch_1">
   <path d="M 0 198 
L 432 198 
L 432 0 
L 0 0 
z
" style="fill:none;opacity:0;"/>
  </g>
  <g id="axes_1">
   <g id="patch_2">
    <path d="M 56.05 173.2 
L 214.1 173.2 
L 214.1 26.8 
L 56.05 26.8 
z
"/>
   </g>
   <g id="matplotlib.axis_1">
    <g id="text_1">
     <!-- Time -->
     <defs>
      <path d="M -0.296875 72.90625 
L 61.375 72.90625 
L 61.375 64.59375 
L 35.5 64.59375 
L 35.5 0 
L 25.59375 0 
L 25.59375 64.59375 
L -0.296875 64.59375 
z
" id="DejaVuSans-84"/>
      <path d="M 9.421875 54.6875 
L 18.40625 54.6875 
L 18.40625 0 
L 9.421875 0 
z
M 9.421875 75.984375 
L 18.40625 75.984375 
L 18.40625 64.59375 
L 9.421875 64.59375 
z
" id="DejaVuSans-105"/>
      <path d="M 52 44.1875 
Q 55.375 50.25 60.0625 53.125 
Q 64.75 56 71.09375 56 
Q 79.640625 56 84.28125 50.015625 
Q 88.921875 44.046875 88.921875 33.015625 
L 88.921875 0 
L 79.890625 0 
L 79.890625 32.71875 
Q 79.890625 40.578125 77.09375 44.375 
Q 74.3125 48.1875 68.609375 48.1875 
Q 61.625 48.1875 57.5625 43.546875 
Q 53.515625 38.921875 53.515625 30.90625 
L 53.515625 0 
L 44.484375 0 
L 44.484375 32.71875 
Q 44.484375 40.625 41.703125 44.40625 
Q 38.921875 48.1875 33.109375 48.1875 
Q 26.21875 48.1875 22.15625 43.53125 
Q 18.109375 38.875 18.109375 30.90625 
L 18.109375 0 
L 9.078125 0 
L 9.078125 54.6875 
L 18.109375 54.6875 
L 18.109375 46.1875 
Q 21.1875 51.21875 25.484375 53.609375 
Q 29.78125 56 35.6875 56 
Q 41.65625 56 45.828125 52.96875 
Q 50 49.953125 52 44.1875 
z
" id="DejaVuSans-109"/>
      <path d="M 56.203125 29.59375 
L 56.203125 25.203125 
L 14.890625 25.203125 
Q 15.484375 15.921875 20.484375 11.0625 
Q 25.484375 6.203125 34.421875 6.203125 
Q 39.59375 6.203125 44.453125 7.46875 
Q 49.3125 8.734375 54.109375 11.28125 
L 54.109375 2.78125 
Q 49.265625 0.734375 44.1875 -0.34375 
Q 39.109375 -1.421875 33.890625 -1.421875 
Q 20.796875 -1.421875 13.15625 6.1875 
Q 5.515625 13.8125 5.515625 26.8125 
Q 5.515625 40.234375 12.765625 48.109375 
Q 20.015625 56 32.328125 56 
Q 43.359375 56 49.78125 48.890625 
Q 56.203125 41.796875 56.203125 29.59375 
z
M 47.21875 32.234375 
Q 47.125 39.59375 43.09375 43.984375 
Q 39.0625 48.390625 32.421875 48.390625 
Q 24.90625 48.390625 20.390625 44.140625 
Q 15.875 39.890625 15.1875 32.171875 
z
" id="DejaVuSans-101"/>
     </defs>
     <g style="fill:#ffffff;" transform="translate(122.6875 184.798438)scale(0.1 -0.1)">
      <use xlink:href="#DejaVuSans-84"/>
      <use x="61.037109" xlink:href="#DejaVuSans-105"/>
      <use x="88.820312" xlink:href="#DejaVuSans-109"/>
      <use x="186.232422" xlink:href="#DejaVuSans-101"/>
     </g>
    </g>
   </g>
   <g id="matplotlib.axis_2">
    <g id="ytick_1">
     <g id="line2d_1">
      <defs>
       <path d="M 0 0 
L -3.5 0 
" id="ma81ad7338a" style="stroke:#ffffff;stroke-width:0.8;"/>
      </defs>
      <g>
       <use style="fill:#ffffff;stroke:#ffffff;stroke-width:0.8;" x="56.05" xlink:href="#ma81ad7338a" y="166.546106"/>
      </g>
     </g>
     <g id="text_2">
      <!-- −1.0 -->
      <defs>
       <path d="M 10.59375 35.5 
L 73.1875 35.5 
L 73.1875 27.203125 
L 10.59375 27.203125 
z
" id="DejaVuSans-8722"/>
       <path d="M 12.40625 8.296875 
L 28.515625 8.296875 
L 28.515625 63.921875 
L 10.984375 60.40625 
L 10.984375 69.390625 
L 28.421875 72.90625 
L 38.28125 72.90625 
L 38.28125 8.296875 
L 54.390625 8.296875 
L 54.390625 0 
L 12.40625 0 
z
" id="DejaVuSans-49"/>
       <path d="M 10.6875 12.40625 
L 21 12.40625 
L 21 0 
L 10.6875 0 
z
" id="DejaVuSans-46"/>
       <path d="M 31.78125 66.40625 
Q 24.171875 66.40625 20.328125 58.90625 
Q 16.5 51.421875 16.5 36.375 
Q 16.5 21.390625 20.328125 13.890625 
Q 24.171875 6.390625 31.78125 6.390625 
Q 39.453125 6.390625 43.28125 13.890625 
Q 47.125 21.390625 47.125 36.375 
Q 47.125 51.421875 43.28125 58.90625 
Q 39.453125 66.40625 31.78125 66.40625 
z
M 31.78125 74.21875 
Q 44.046875 74.21875 50.515625 64.515625 
Q 56.984375 54.828125 56.984375 36.375 
Q 56.984375 17.96875 50.515625 8.265625 
Q 44.046875 -1.421875 31.78125 -1.421875 
Q 19.53125 -1.421875 13.0625 8.265625 
Q 6.59375 17.96875 6.59375 36.375 
Q 6.59375 54.828125 13.0625 64.515625 
Q 19.53125 74.21875 31.78125 74.21875 
z
" id="DejaVuSans-48"/>
      </defs>
      <g style="fill:#ffffff;" transform="translate(24.767187 170.345325)scale(0.1 -0.1)">
       <use xlink:href="#DejaVuSans-8722"/>
       <use x="83.789062" xlink:href="#DejaVuSans-49"/>
       <use x="147.412109" xlink:href="#DejaVuSans-46"/>
       <use x="179.199219" xlink:href="#DejaVuSans-48"/>
      </g>
     </g>
    </g>
    <g id="ytick_2">
     <g id="line2d_2">
      <g>
       <use style="fill:#ffffff;stroke:#ffffff;stroke-width:0.8;" x="56.05" xlink:href="#ma81ad7338a" y="133.266121"/>
      </g>
     </g>
     <g id="text_3">
      <!-- −0.5 -->
      <defs>
       <path d="M 10.796875 72.90625 
L 49.515625 72.90625 
L 49.515625 64.59375 
L 19.828125 64.59375 
L 19.828125 46.734375 
Q 21.96875 47.46875 24.109375 47.828125 
Q 26.265625 48.1875 28.421875 48.1875 
Q 40.625 48.1875 47.75 41.5 
Q 54.890625 34.8125 54.890625 23.390625 
Q 54.890625 11.625 47.5625 5.09375 
Q 40.234375 -1.421875 26.90625 -1.421875 
Q 22.3125 -1.421875 17.546875 -0.640625 
Q 12.796875 0.140625 7.71875 1.703125 
L 7.71875 11.625 
Q 12.109375 9.234375 16.796875 8.0625 
Q 21.484375 6.890625 26.703125 6.890625 
Q 35.15625 6.890625 40.078125 11.328125 
Q 45.015625 15.765625 45.015625 23.390625 
Q 45.015625 31 40.078125 35.4375 
Q 35.15625 39.890625 26.703125 39.890625 
Q 22.75 39.890625 18.8125 39.015625 
Q 14.890625 38.140625 10.796875 36.28125 
z
" id="DejaVuSans-53"/>
      </defs>
      <g style="fill:#ffffff;" transform="translate(24.767187 137.06534)scale(0.1 -0.1)">
       <use xlink:href="#DejaVuSans-8722"/>
       <use x="83.789062" xlink:href="#DejaVuSans-48"/>
       <use x="147.412109" xlink:href="#DejaVuSans-46"/>
       <use x="179.199219" xlink:href="#DejaVuSans-53"/>
      </g>
     </g>
    </g>
    <g id="ytick_3">
     <g id="line2d_3">
      <g>
       <use style="fill:#ffffff;stroke:#ffffff;stroke-width:0.8;" x="56.05" xlink:href="#ma81ad7338a" y="99.986135"/>
      </g>
     </g>
     <g id="text_4">
      <!-- 0.0 -->
      <g style="fill:#ffffff;" transform="translate(33.146875 103.785354)scale(0.1 -0.1)">
       <use xlink:href="#DejaVuSans-48"/>
       <use x="63.623047" xlink:href="#DejaVuSans-46"/>
       <use x="95.410156" xlink:href="#DejaVuSans-48"/>
      </g>
     </g>
    </g>
    <g id="ytick_4">
     <g id="line2d_4">
      <g>
       <use style="fill:#ffffff;stroke:#ffffff;stroke-width:0.8;" x="56.05" xlink:href="#ma81ad7338a" y="66.70615"/>
      </g>
     </g>
     <g id="text_5">
      <!-- 0.5 -->
      <g style="fill:#ffffff;" transform="translate(33.146875 70.505369)scale(0.1 -0.1)">
       <use xlink:href="#DejaVuSans-48"/>
       <use x="63.623047" xlink:href="#DejaVuSans-46"/>
       <use x="95.410156" xlink:href="#DejaVuSans-53"/>
      </g>
     </g>
    </g>
    <g id="ytick_5">
     <g id="line2d_5">
      <g>
       <use style="fill:#ffffff;stroke:#ffffff;stroke-width:0.8;" x="56.05" xlink:href="#ma81ad7338a" y="33.426164"/>
      </g>
     </g>
     <g id="text_6">
      <!-- 1.0 -->
      <g style="fill:#ffffff;" transform="translate(33.146875 37.225383)scale(0.1 -0.1)">
       <use xlink:href="#DejaVuSans-49"/>
       <use x="63.623047" xlink:href="#DejaVuSans-46"/>
       <use x="95.410156" xlink:href="#DejaVuSans-48"/>
      </g>
     </g>
    </g>
    <g id="text_7">
     <!-- Signal -->
     <defs>
      <path d="M 53.515625 70.515625 
L 53.515625 60.890625 
Q 47.90625 63.578125 42.921875 64.890625 
Q 37.9375 66.21875 33.296875 66.21875 
Q 25.25 66.21875 20.875 63.09375 
Q 16.5 59.96875 16.5 54.203125 
Q 16.5 49.359375 19.40625 46.890625 
Q 22.3125 44.4375 30.421875 42.921875 
L 36.375 41.703125 
Q 47.40625 39.59375 52.65625 34.296875 
Q 57.90625 29 57.90625 20.125 
Q 57.90625 9.515625 50.796875 4.046875 
Q 43.703125 -1.421875 29.984375 -1.421875 
Q 24.8125 -1.421875 18.96875 -0.25 
Q 13.140625 0.921875 6.890625 3.21875 
L 6.890625 13.375 
Q 12.890625 10.015625 18.65625 8.296875 
Q 24.421875 6.59375 29.984375 6.59375 
Q 38.421875 6.59375 43.015625 9.90625 
Q 47.609375 13.234375 47.609375 19.390625 
Q 47.609375 24.75 44.3125 27.78125 
Q 41.015625 30.8125 33.5 32.328125 
L 27.484375 33.5 
Q 16.453125 35.6875 11.515625 40.375 
Q 6.59375 45.0625 6.59375 53.421875 
Q 6.59375 63.09375 13.40625 68.65625 
Q 20.21875 74.21875 32.171875 74.21875 
Q 37.3125 74.21875 42.625 73.28125 
Q 47.953125 72.359375 53.515625 70.515625 
z
" id="DejaVuSans-83"/>
      <path d="M 45.40625 27.984375 
Q 45.40625 37.75 41.375 43.109375 
Q 37.359375 48.484375 30.078125 48.484375 
Q 22.859375 48.484375 18.828125 43.109375 
Q 14.796875 37.75 14.796875 27.984375 
Q 14.796875 18.265625 18.828125 12.890625 
Q 22.859375 7.515625 30.078125 7.515625 
Q 37.359375 7.515625 41.375 12.890625 
Q 45.40625 18.265625 45.40625 27.984375 
z
M 54.390625 6.78125 
Q 54.390625 -7.171875 48.1875 -13.984375 
Q 42 -20.796875 29.203125 -20.796875 
Q 24.46875 -20.796875 20.265625 -20.09375 
Q 16.0625 -19.390625 12.109375 -17.921875 
L 12.109375 -9.1875 
Q 16.0625 -11.328125 19.921875 -12.34375 
Q 23.78125 -13.375 27.78125 -13.375 
Q 36.625 -13.375 41.015625 -8.765625 
Q 45.40625 -4.15625 45.40625 5.171875 
L 45.40625 9.625 
Q 42.625 4.78125 38.28125 2.390625 
Q 33.9375 0 27.875 0 
Q 17.828125 0 11.671875 7.65625 
Q 5.515625 15.328125 5.515625 27.984375 
Q 5.515625 40.671875 11.671875 48.328125 
Q 17.828125 56 27.875 56 
Q 33.9375 56 38.28125 53.609375 
Q 42.625 51.21875 45.40625 46.390625 
L 45.40625 54.6875 
L 54.390625 54.6875 
z
" id="DejaVuSans-103"/>
      <path d="M 54.890625 33.015625 
L 54.890625 0 
L 45.90625 0 
L 45.90625 32.71875 
Q 45.90625 40.484375 42.875 44.328125 
Q 39.84375 48.1875 33.796875 48.1875 
Q 26.515625 48.1875 22.3125 43.546875 
Q 18.109375 38.921875 18.109375 30.90625 
L 18.109375 0 
L 9.078125 0 
L 9.078125 54.6875 
L 18.109375 54.6875 
L 18.109375 46.1875 
Q 21.34375 51.125 25.703125 53.5625 
Q 30.078125 56 35.796875 56 
Q 45.21875 56 50.046875 50.171875 
Q 54.890625 44.34375 54.890625 33.015625 
z
" id="DejaVuSans-110"/>
      <path d="M 34.28125 27.484375 
Q 23.390625 27.484375 19.1875 25 
Q 14.984375 22.515625 14.984375 16.5 
Q 14.984375 11.71875 18.140625 8.90625 
Q 21.296875 6.109375 26.703125 6.109375 
Q 34.1875 6.109375 38.703125 11.40625 
Q 43.21875 16.703125 43.21875 25.484375 
L 43.21875 27.484375 
z
M 52.203125 31.203125 
L 52.203125 0 
L 43.21875 0 
L 43.21875 8.296875 
Q 40.140625 3.328125 35.546875 0.953125 
Q 30.953125 -1.421875 24.3125 -1.421875 
Q 15.921875 -1.421875 10.953125 3.296875 
Q 6 8.015625 6 15.921875 
Q 6 25.140625 12.171875 29.828125 
Q 18.359375 34.515625 30.609375 34.515625 
L 43.21875 34.515625 
L 43.21875 35.40625 
Q 43.21875 41.609375 39.140625 45 
Q 35.0625 48.390625 27.6875 48.390625 
Q 23 48.390625 18.546875 47.265625 
Q 14.109375 46.140625 10.015625 43.890625 
L 10.015625 52.203125 
Q 14.9375 54.109375 19.578125 55.046875 
Q 24.21875 56 28.609375 56 
Q 40.484375 56 46.34375 49.84375 
Q 52.203125 43.703125 52.203125 31.203125 
z
" id="DejaVuSans-97"/>
      <path d="M 9.421875 75.984375 
L 18.40625 75.984375 
L 18.40625 0 
L 9.421875 0 
z
" id="DejaVuSans-108"/>
     </defs>
     <g style="fill:#ffffff;" transform="translate(18.6875 115.359375)rotate(-90)scale(0.1 -0.1)">
      <use xlink:href="#DejaVuSans-83"/>
      <use x="63.476562" xlink:href="#DejaVuSans-105"/>
      <use x="91.259766" xlink:href="#DejaVuSans-103"/>
      <use x="154.736328" xlink:href="#DejaVuSans-110"/>
      <use x="218.115234" xlink:href="#DejaVuSans-97"/>
      <use x="279.394531" xlink:href="#DejaVuSans-108"/>
     </g>
    </g>
   </g>
   <g id="line2d_6">
    <path clip-path="url(#p4a9a8580e8)" d="M 63.234091 99.986135 
L 64.383545 93.341226 
L 65.533 86.762711 
L 66.682455 80.316319 
L 67.831909 74.066462 
L 68.981364 68.075586 
L 70.130818 62.403549 
L 71.280273 57.107025 
L 72.429727 52.238935 
L 73.579182 47.847919 
L 74.728636 43.977851 
L 75.878091 40.667399 
L 77.027545 37.949641 
L 78.177 35.851731 
L 79.326455 34.39463 
L 80.475909 33.592898 
L 81.625364 33.454545 
L 82.774818 33.980954 
L 83.924273 35.166865 
L 85.073727 37.000429 
L 86.223182 39.463325 
L 87.372636 42.530945 
L 88.522091 46.172638 
L 89.671545 50.352018 
L 90.821 55.027326 
L 91.970455 60.151847 
L 93.119909 65.674379 
L 94.269364 71.539743 
L 95.418818 77.689334 
L 96.568273 84.061707 
L 97.717727 90.593192 
L 98.867182 97.218528 
L 100.016636 103.871517 
L 101.166091 110.485684 
L 102.315545 116.994944 
L 103.465 123.334257 
L 104.614455 129.440283 
L 105.763909 135.252014 
L 106.913364 140.711379 
L 108.062818 145.763831 
L 109.212273 150.358888 
L 110.361727 154.450636 
L 111.511182 157.998194 
L 112.660636 160.966114 
L 113.810091 163.324742 
L 114.959545 165.050512 
L 116.109 166.12618 
L 117.258455 166.540998 
L 118.407909 166.290823 
L 119.557364 165.378153 
L 120.706818 163.812107 
L 121.856273 161.608334 
L 123.005727 158.788852 
L 124.155182 155.381832 
L 125.304636 151.421317 
L 126.454091 146.946879 
L 127.603545 142.003225 
L 128.753 136.639749 
L 129.902455 130.910043 
L 131.051909 124.871355 
L 132.201364 118.584023 
L 133.350818 112.110866 
L 134.500273 105.516564 
L 135.649727 98.867003 
L 136.799182 92.228624 
L 137.948636 85.667755 
L 139.098091 79.249951 
L 140.247545 73.039336 
L 141.397 67.097965 
L 142.546455 61.485202 
L 143.695909 56.257127 
L 144.845364 51.465977 
L 145.994818 47.159625 
L 147.144273 43.381099 
L 148.293727 40.168151 
L 149.443182 37.552884 
L 150.592636 35.56143 
L 151.742091 34.213686 
L 152.891545 33.523119 
L 154.041 33.496629 
L 155.190455 34.134479 
L 156.339909 35.430298 
L 157.489364 37.371137 
L 158.638818 39.937604 
L 159.788273 43.104057 
L 160.937727 46.838856 
L 162.087182 51.104686 
L 163.236636 55.858923 
L 164.386091 61.054064 
L 165.535545 66.638202 
L 166.685 72.555541 
L 167.834455 78.746958 
L 168.983909 85.150589 
L 170.133364 91.702453 
L 171.282818 98.337084 
L 172.432273 104.988192 
L 173.581727 111.589321 
L 174.731182 118.074515 
L 175.880636 124.378976 
L 177.030091 130.439711 
L 178.179545 136.196165 
L 179.329 141.59082 
L 180.478455 146.569774 
L 181.627909 151.083281 
L 182.777364 155.086241 
L 183.926818 158.53866 
L 185.076273 161.406041 
L 186.225727 163.659734 
L 187.375182 165.277222 
L 188.524636 166.242344 
L 189.674091 166.545455 
L 190.823545 166.183527 
L 191.973 165.160177 
L 193.122455 163.485629 
L 194.271909 161.176615 
L 195.421364 158.256207 
L 196.570818 154.753583 
L 197.720273 150.703741 
L 198.869727 146.147145 
L 200.019182 141.129324 
L 201.168636 135.700413 
L 202.318091 129.914658 
L 203.467545 123.829866 
L 204.617 117.506836 
L 205.766455 111.008745 
L 206.915909 104.400519 
" style="fill:none;stroke:#8dd3c7;stroke-linecap:square;stroke-width:1.5;"/>
   </g>
   <g id="patch_3">
    <path d="M 56.05 173.2 
L 56.05 26.8 
" style="fill:none;stroke:#ffffff;stroke-linecap:square;stroke-linejoin:miter;stroke-width:0.8;"/>
   </g>
   <g id="patch_4">
    <path d="M 214.1 173.2 
L 214.1 26.8 
" style="fill:none;stroke:#ffffff;stroke-linecap:square;stroke-linejoin:miter;stroke-width:0.8;"/>
   </g>
   <g id="patch_5">
    <path d="M 56.05 173.2 
L 214.1 173.2 
" style="fill:none;stroke:#ffffff;stroke-linecap:square;stroke-linejoin:miter;stroke-width:0.8;"/>
   </g>
   <g id="patch_6">
    <path d="M 56.05 26.8 
L 214.1 26.8 
" style="fill:none;stroke:#ffffff;stroke-linecap:square;stroke-linejoin:miter;stroke-width:0.8;"/>
   </g>
   <g id="text_8">
    <!-- Input signal -->
    <defs>
     <path d="M 9.8125 72.90625 
L 19.671875 72.90625 
L 19.671875 0 
L 9.8125 0 
z
" id="DejaVuSans-73"/>
     <path d="M 18.109375 8.203125 
L 18.109375 -20.796875 
L 9.078125 -20.796875 
L 9.078125 54.6875 
L 18.109375 54.6875 
L 18.109375 46.390625 
Q 20.953125 51.265625 25.265625 53.625 
Q 29.59375 56 35.59375 56 
Q 45.5625 56 51.78125 48.09375 
Q 58.015625 40.1875 58.015625 27.296875 
Q 58.015625 14.40625 51.78125 6.484375 
Q 45.5625 -1.421875 35.59375 -1.421875 
Q 29.59375 -1.421875 25.265625 0.953125 
Q 20.953125 3.328125 18.109375 8.203125 
z
M 48.6875 27.296875 
Q 48.6875 37.203125 44.609375 42.84375 
Q 40.53125 48.484375 33.40625 48.484375 
Q 26.265625 48.484375 22.1875 42.84375 
Q 18.109375 37.203125 18.109375 27.296875 
Q 18.109375 17.390625 22.1875 11.75 
Q 26.265625 6.109375 33.40625 6.109375 
Q 40.53125 6.109375 44.609375 11.75 
Q 48.6875 17.390625 48.6875 27.296875 
z
" id="DejaVuSans-112"/>
     <path d="M 8.5 21.578125 
L 8.5 54.6875 
L 17.484375 54.6875 
L 17.484375 21.921875 
Q 17.484375 14.15625 20.5 10.265625 
Q 23.53125 6.390625 29.59375 6.390625 
Q 36.859375 6.390625 41.078125 11.03125 
Q 45.3125 15.671875 45.3125 23.6875 
L 45.3125 54.6875 
L 54.296875 54.6875 
L 54.296875 0 
L 45.3125 0 
L 45.3125 8.40625 
Q 42.046875 3.421875 37.71875 1 
Q 33.40625 -1.421875 27.6875 -1.421875 
Q 18.265625 -1.421875 13.375 4.4375 
Q 8.5 10.296875 8.5 21.578125 
z
M 31.109375 56 
z
" id="DejaVuSans-117"/>
     <path d="M 18.3125 70.21875 
L 18.3125 54.6875 
L 36.8125 54.6875 
L 36.8125 47.703125 
L 18.3125 47.703125 
L 18.3125 18.015625 
Q 18.3125 11.328125 20.140625 9.421875 
Q 21.96875 7.515625 27.59375 7.515625 
L 36.8125 7.515625 
L 36.8125 0 
L 27.59375 0 
Q 17.1875 0 13.234375 3.875 
Q 9.28125 7.765625 9.28125 18.015625 
L 9.28125 47.703125 
L 2.6875 47.703125 
L 2.6875 54.6875 
L 9.28125 54.6875 
L 9.28125 70.21875 
z
" id="DejaVuSans-116"/>
     <path id="DejaVuSans-32"/>
     <path d="M 44.28125 53.078125 
L 44.28125 44.578125 
Q 40.484375 46.53125 36.375 47.5 
Q 32.28125 48.484375 27.875 48.484375 
Q 21.1875 48.484375 17.84375 46.4375 
Q 14.5 44.390625 14.5 40.28125 
Q 14.5 37.15625 16.890625 35.375 
Q 19.28125 33.59375 26.515625 31.984375 
L 29.59375 31.296875 
Q 39.15625 29.25 43.1875 25.515625 
Q 47.21875 21.78125 47.21875 15.09375 
Q 47.21875 7.46875 41.1875 3.015625 
Q 35.15625 -1.421875 24.609375 -1.421875 
Q 20.21875 -1.421875 15.453125 -0.5625 
Q 10.6875 0.296875 5.421875 2 
L 5.421875 11.28125 
Q 10.40625 8.6875 15.234375 7.390625 
Q 20.0625 6.109375 24.8125 6.109375 
Q 31.15625 6.109375 34.5625 8.28125 
Q 37.984375 10.453125 37.984375 14.40625 
Q 37.984375 18.0625 35.515625 20.015625 
Q 33.0625 21.96875 24.703125 23.78125 
L 21.578125 24.515625 
Q 13.234375 26.265625 9.515625 29.90625 
Q 5.8125 33.546875 5.8125 39.890625 
Q 5.8125 47.609375 11.28125 51.796875 
Q 16.75 56 26.8125 56 
Q 31.78125 56 36.171875 55.265625 
Q 40.578125 54.546875 44.28125 53.078125 
z
" id="DejaVuSans-115"/>
    </defs>
    <g style="fill:#ffffff;" transform="translate(99.884062 20.8)scale(0.12 -0.12)">
     <use xlink:href="#DejaVuSans-73"/>
     <use x="29.492188" xlink:href="#DejaVuSans-110"/>
     <use x="92.871094" xlink:href="#DejaVuSans-112"/>
     <use x="156.347656" xlink:href="#DejaVuSans-117"/>
     <use x="219.726562" xlink:href="#DejaVuSans-116"/>
     <use x="258.935547" xlink:href="#DejaVuSans-32"/>
     <use x="290.722656" xlink:href="#DejaVuSans-115"/>
     <use x="342.822266" xlink:href="#DejaVuSans-105"/>
     <use x="370.605469" xlink:href="#DejaVuSans-103"/>
     <use x="434.082031" xlink:href="#DejaVuSans-110"/>
     <use x="497.460938" xlink:href="#DejaVuSans-97"/>
     <use x="558.740234" xlink:href="#DejaVuSans-108"/>
    </g>
   </g>
  </g>
  <g id="axes_2">
   <g id="patch_7">
    <path d="M 259.65 173.2 
L 417.7 173.2 
L 417.7 26.8 
L 259.65 26.8 
z
"/>
   </g>
   <g id="matplotlib.axis_3">
    <g id="text_9">
     <!-- Time -->
     <g style="fill:#ffffff;" transform="translate(326.2875 184.798438)scale(0.1 -0.1)">
      <use xlink:href="#DejaVuSans-84"/>
      <use x="61.037109" xlink:href="#DejaVuSans-105"/>
      <use x="88.820312" xlink:href="#DejaVuSans-109"/>
      <use x="186.232422" xlink:href="#DejaVuSans-101"/>
     </g>
    </g>
   </g>
   <g id="matplotlib.axis_4">
    <g id="ytick_6">
     <g id="line2d_7">
      <g>
       <use style="fill:#ffffff;stroke:#ffffff;stroke-width:0.8;" x="259.65" xlink:href="#ma81ad7338a" y="166.573841"/>
      </g>
     </g>
     <g id="text_10">
      <!-- −1.0 -->
      <g style="fill:#ffffff;" transform="translate(228.367188 170.37306)scale(0.1 -0.1)">
       <use xlink:href="#DejaVuSans-8722"/>
       <use x="83.789062" xlink:href="#DejaVuSans-49"/>
       <use x="147.412109" xlink:href="#DejaVuSans-46"/>
       <use x="179.199219" xlink:href="#DejaVuSans-48"/>
      </g>
     </g>
    </g>
    <g id="ytick_7">
     <g id="line2d_8">
      <g>
       <use style="fill:#ffffff;stroke:#ffffff;stroke-width:0.8;" x="259.65" xlink:href="#ma81ad7338a" y="133.286921"/>
      </g>
     </g>
     <g id="text_11">
      <!-- −0.5 -->
      <g style="fill:#ffffff;" transform="translate(228.367188 137.086139)scale(0.1 -0.1)">
       <use xlink:href="#DejaVuSans-8722"/>
       <use x="83.789062" xlink:href="#DejaVuSans-48"/>
       <use x="147.412109" xlink:href="#DejaVuSans-46"/>
       <use x="179.199219" xlink:href="#DejaVuSans-53"/>
      </g>
     </g>
    </g>
    <g id="ytick_8">
     <g id="line2d_9">
      <g>
       <use style="fill:#ffffff;stroke:#ffffff;stroke-width:0.8;" x="259.65" xlink:href="#ma81ad7338a" y="100"/>
      </g>
     </g>
     <g id="text_12">
      <!-- 0.0 -->
      <g style="fill:#ffffff;" transform="translate(236.746875 103.799219)scale(0.1 -0.1)">
       <use xlink:href="#DejaVuSans-48"/>
       <use x="63.623047" xlink:href="#DejaVuSans-46"/>
       <use x="95.410156" xlink:href="#DejaVuSans-48"/>
      </g>
     </g>
    </g>
    <g id="ytick_9">
     <g id="line2d_10">
      <g>
       <use style="fill:#ffffff;stroke:#ffffff;stroke-width:0.8;" x="259.65" xlink:href="#ma81ad7338a" y="66.713079"/>
      </g>
     </g>
     <g id="text_13">
      <!-- 0.5 -->
      <g style="fill:#ffffff;" transform="translate(236.746875 70.512298)scale(0.1 -0.1)">
       <use xlink:href="#DejaVuSans-48"/>
       <use x="63.623047" xlink:href="#DejaVuSans-46"/>
       <use x="95.410156" xlink:href="#DejaVuSans-53"/>
      </g>
     </g>
    </g>
    <g id="ytick_10">
     <g id="line2d_11">
      <g>
       <use style="fill:#ffffff;stroke:#ffffff;stroke-width:0.8;" x="259.65" xlink:href="#ma81ad7338a" y="33.426159"/>
      </g>
     </g>
     <g id="text_14">
      <!-- 1.0 -->
      <g style="fill:#ffffff;" transform="translate(236.746875 37.225377)scale(0.1 -0.1)">
       <use xlink:href="#DejaVuSans-49"/>
       <use x="63.623047" xlink:href="#DejaVuSans-46"/>
       <use x="95.410156" xlink:href="#DejaVuSans-48"/>
      </g>
     </g>
    </g>
   </g>
   <g id="line2d_12">
    <path clip-path="url(#pf3c348c6c8)" d="M 266.834091 100 
L 268.002236 93.353706 
L 269.170381 86.773819 
L 270.338525 80.326085 
L 271.50667 74.074925 
L 272.674815 68.0828 
L 273.84296 62.409582 
L 275.011105 57.111954 
L 276.17925 52.242849 
L 277.347395 47.850919 
L 278.51554 43.980044 
L 279.683684 40.668903 
L 280.851829 37.950578 
L 282.019974 35.85223 
L 283.188119 34.394826 
L 284.356264 33.592927 
L 285.524409 33.454545 
L 286.692554 33.981064 
L 287.860698 35.167222 
L 289.028843 37.001168 
L 290.196988 39.464577 
L 291.365133 42.532837 
L 292.533278 46.175289 
L 293.701423 50.355539 
L 294.869568 55.031821 
L 296.037712 60.15741 
L 297.205857 65.681093 
L 298.374002 71.54768 
L 299.542147 77.698552 
L 300.710292 84.072253 
L 301.878437 90.605099 
L 303.046582 100 
L 304.214727 93.353706 
L 305.382871 86.773819 
L 306.551016 80.326085 
L 307.719161 74.074925 
L 308.887306 68.0828 
L 310.055451 62.409582 
L 311.223596 57.111954 
L 312.391741 52.242849 
L 313.559885 47.850919 
L 314.72803 43.980044 
L 315.896175 40.668903 
L 317.06432 37.950578 
L 318.232465 35.85223 
L 319.40061 34.394826 
L 320.568755 33.592927 
L 321.736899 33.454545 
L 322.905044 33.981064 
L 324.073189 35.167222 
L 325.241334 37.001168 
L 326.409479 39.464577 
L 327.577624 42.532837 
L 328.745769 46.175289 
L 329.913914 50.355539 
L 331.082058 55.031821 
L 332.250203 60.15741 
L 333.418348 65.681093 
L 334.586493 71.54768 
L 335.754638 77.698552 
L 336.922783 84.072253 
L 338.090928 90.605099 
L 339.259072 100 
L 340.427217 106.646294 
L 341.595362 113.226181 
L 342.763507 119.673915 
L 343.931652 125.925075 
L 345.099797 131.9172 
L 346.267942 137.590418 
L 347.436086 142.888046 
L 348.604231 147.757151 
L 349.772376 152.149081 
L 350.940521 156.019956 
L 352.108666 159.331097 
L 353.276811 162.049422 
L 354.444956 164.14777 
L 355.613101 165.605174 
L 356.781245 166.407073 
L 357.94939 166.545455 
L 359.117535 166.018936 
L 360.28568 164.832778 
L 361.453825 162.998832 
L 362.62197 160.535423 
L 363.790115 157.467163 
L 364.958259 153.824711 
L 366.126404 149.644461 
L 367.294549 144.968179 
L 368.462694 139.84259 
L 369.630839 134.318907 
L 370.798984 128.45232 
L 371.967129 122.301448 
L 373.135273 115.927747 
L 374.303418 109.394901 
L 375.471563 100 
L 376.639708 106.646294 
L 377.807853 113.226181 
L 378.975998 119.673915 
L 380.144143 125.925075 
L 381.312288 131.9172 
L 382.480432 137.590418 
L 383.648577 142.888046 
L 384.816722 147.757151 
L 385.984867 152.149081 
L 387.153012 156.019956 
L 388.321157 159.331097 
L 389.489302 162.049422 
L 390.657446 164.14777 
L 391.825591 165.605174 
L 392.993736 166.407073 
L 394.161881 166.545455 
L 395.330026 166.018936 
L 396.498171 164.832778 
L 397.666316 162.998832 
L 398.83446 160.535423 
L 400.002605 157.467163 
L 401.17075 153.824711 
L 402.338895 149.644461 
L 403.50704 144.968179 
L 404.675185 139.84259 
L 405.84333 134.318907 
L 407.011475 128.45232 
L 408.179619 122.301448 
L 409.347764 115.927747 
L 410.515909 109.394901 
" style="fill:none;stroke:#8dd3c7;stroke-linecap:square;stroke-width:1.5;"/>
   </g>
   <g id="patch_8">
    <path d="M 259.65 173.2 
L 259.65 26.8 
" style="fill:none;stroke:#ffffff;stroke-linecap:square;stroke-linejoin:miter;stroke-width:0.8;"/>
   </g>
   <g id="patch_9">
    <path d="M 417.7 173.2 
L 417.7 26.8 
" style="fill:none;stroke:#ffffff;stroke-linecap:square;stroke-linejoin:miter;stroke-width:0.8;"/>
   </g>
   <g id="patch_10">
    <path d="M 259.65 173.2 
L 417.7 173.2 
" style="fill:none;stroke:#ffffff;stroke-linecap:square;stroke-linejoin:miter;stroke-width:0.8;"/>
   </g>
   <g id="patch_11">
    <path d="M 259.65 26.8 
L 417.7 26.8 
" style="fill:none;stroke:#ffffff;stroke-linecap:square;stroke-linejoin:miter;stroke-width:0.8;"/>
   </g>
   <g id="text_15">
    <!-- Octaved signal -->
    <defs>
     <path d="M 39.40625 66.21875 
Q 28.65625 66.21875 22.328125 58.203125 
Q 16.015625 50.203125 16.015625 36.375 
Q 16.015625 22.609375 22.328125 14.59375 
Q 28.65625 6.59375 39.40625 6.59375 
Q 50.140625 6.59375 56.421875 14.59375 
Q 62.703125 22.609375 62.703125 36.375 
Q 62.703125 50.203125 56.421875 58.203125 
Q 50.140625 66.21875 39.40625 66.21875 
z
M 39.40625 74.21875 
Q 54.734375 74.21875 63.90625 63.9375 
Q 73.09375 53.65625 73.09375 36.375 
Q 73.09375 19.140625 63.90625 8.859375 
Q 54.734375 -1.421875 39.40625 -1.421875 
Q 24.03125 -1.421875 14.8125 8.828125 
Q 5.609375 19.09375 5.609375 36.375 
Q 5.609375 53.65625 14.8125 63.9375 
Q 24.03125 74.21875 39.40625 74.21875 
z
" id="DejaVuSans-79"/>
     <path d="M 48.78125 52.59375 
L 48.78125 44.1875 
Q 44.96875 46.296875 41.140625 47.34375 
Q 37.3125 48.390625 33.40625 48.390625 
Q 24.65625 48.390625 19.8125 42.84375 
Q 14.984375 37.3125 14.984375 27.296875 
Q 14.984375 17.28125 19.8125 11.734375 
Q 24.65625 6.203125 33.40625 6.203125 
Q 37.3125 6.203125 41.140625 7.25 
Q 44.96875 8.296875 48.78125 10.40625 
L 48.78125 2.09375 
Q 45.015625 0.34375 40.984375 -0.53125 
Q 36.96875 -1.421875 32.421875 -1.421875 
Q 20.0625 -1.421875 12.78125 6.34375 
Q 5.515625 14.109375 5.515625 27.296875 
Q 5.515625 40.671875 12.859375 48.328125 
Q 20.21875 56 33.015625 56 
Q 37.15625 56 41.109375 55.140625 
Q 45.0625 54.296875 48.78125 52.59375 
z
" id="DejaVuSans-99"/>
     <path d="M 2.984375 54.6875 
L 12.5 54.6875 
L 29.59375 8.796875 
L 46.6875 54.6875 
L 56.203125 54.6875 
L 35.6875 0 
L 23.484375 0 
z
" id="DejaVuSans-118"/>
     <path d="M 45.40625 46.390625 
L 45.40625 75.984375 
L 54.390625 75.984375 
L 54.390625 0 
L 45.40625 0 
L 45.40625 8.203125 
Q 42.578125 3.328125 38.25 0.953125 
Q 33.9375 -1.421875 27.875 -1.421875 
Q 17.96875 -1.421875 11.734375 6.484375 
Q 5.515625 14.40625 5.515625 27.296875 
Q 5.515625 40.1875 11.734375 48.09375 
Q 17.96875 56 27.875 56 
Q 33.9375 56 38.25 53.625 
Q 42.578125 51.265625 45.40625 46.390625 
z
M 14.796875 27.296875 
Q 14.796875 17.390625 18.875 11.75 
Q 22.953125 6.109375 30.078125 6.109375 
Q 37.203125 6.109375 41.296875 11.75 
Q 45.40625 17.390625 45.40625 27.296875 
Q 45.40625 37.203125 41.296875 42.84375 
Q 37.203125 48.484375 30.078125 48.484375 
Q 22.953125 48.484375 18.875 42.84375 
Q 14.796875 37.203125 14.796875 27.296875 
z
" id="DejaVuSans-100"/>
    </defs>
    <g style="fill:#ffffff;" transform="translate(293.916875 20.8)scale(0.12 -0.12)">
     <use xlink:href="#DejaVuSans-79"/>
     <use x="78.710938" xlink:href="#DejaVuSans-99"/>
     <use x="133.691406" xlink:href="#DejaVuSans-116"/>
     <use x="172.900391" xlink:href="#DejaVuSans-97"/>
     <use x="234.179688" xlink:href="#DejaVuSans-118"/>
     <use x="293.359375" xlink:href="#DejaVuSans-101"/>
     <use x="354.882812" xlink:href="#DejaVuSans-100"/>
     <use x="418.359375" xlink:href="#DejaVuSans-32"/>
     <use x="450.146484" xlink:href="#DejaVuSans-115"/>
     <use x="502.246094" xlink:href="#DejaVuSans-105"/>
     <use x="530.029297" xlink:href="#DejaVuSans-103"/>
     <use x="593.505859" xlink:href="#DejaVuSans-110"/>
     <use x="656.884766" xlink:href="#DejaVuSans-97"/>
     <use x="718.164062" xlink:href="#DejaVuSans-108"/>
    </g>
   </g>
  </g>
 </g>
 <defs>
  <clipPath id="p4a9a8580e8">
   <rect height="146.4" width="158.05" x="56.05" y="26.8"/>
  </clipPath>
  <clipPath id="pf3c348c6c8">
   <rect height="146.4" width="158.05" x="259.65" y="26.8"/>
  </clipPath>
 </defs>
</svg>
