<?xml version="1.0" encoding="utf-8" standalone="no"?>
<!DOCTYPE svg PUBLIC "-//W3C//DTD SVG 1.1//EN"
  "http://www.w3.org/Graphics/SVG/1.1/DTD/svg11.dtd">
<!-- Created with matplotlib (https://matplotlib.org/) -->
<svg height="576pt" version="1.1" viewBox="0 0 864 576" width="864pt" xmlns="http://www.w3.org/2000/svg" xmlns:xlink="http://www.w3.org/1999/xlink">
 <defs>
  <style type="text/css">
*{stroke-linecap:butt;stroke-linejoin:round;}
  </style>
 </defs>
 <g id="figure_1">
  <g id="patch_1">
   <path d="M 0 576 
L 864 576 
L 864 0 
L 0 0 
z
" style="fill:none;opacity:0;"/>
  </g>
  <g id="axes_1">
   <g id="patch_2">
    <path d="M 62.425 251.6 
L 430.1 251.6 
L 430.1 26.8 
L 62.425 26.8 
z
"/>
   </g>
   <g id="matplotlib.axis_1">
    <g id="xtick_1">
     <g id="line2d_1">
      <defs>
       <path d="M 0 0 
L 0 3.5 
" id="m598823fee0" style="stroke:#ffffff;stroke-width:0.8;"/>
      </defs>
      <g>
       <use style="fill:#ffffff;stroke:#ffffff;stroke-width:0.8;" x="79.1375" xlink:href="#m598823fee0" y="251.6"/>
      </g>
     </g>
     <g id="text_1">
      <!-- 0 -->
      <defs>
       <path d="M 31.78125 66.40625 
Q 24.171875 66.40625 20.328125 58.90625 
Q 16.5 51.421875 16.5 36.375 
Q 16.5 21.390625 20.328125 13.890625 
Q 24.171875 6.390625 31.78125 6.390625 
Q 39.453125 6.390625 43.28125 13.890625 
Q 47.125 21.390625 47.125 36.375 
Q 47.125 51.421875 43.28125 58.90625 
Q 39.453125 66.40625 31.78125 66.40625 
z
M 31.78125 74.21875 
Q 44.046875 74.21875 50.515625 64.515625 
Q 56.984375 54.828125 56.984375 36.375 
Q 56.984375 17.96875 50.515625 8.265625 
Q 44.046875 -1.421875 31.78125 -1.421875 
Q 19.53125 -1.421875 13.0625 8.265625 
Q 6.59375 17.96875 6.59375 36.375 
Q 6.59375 54.828125 13.0625 64.515625 
Q 19.53125 74.21875 31.78125 74.21875 
z
" id="DejaVuSans-48"/>
      </defs>
      <g style="fill:#ffffff;" transform="translate(75.95625 266.198437)scale(0.1 -0.1)">
       <use xlink:href="#DejaVuSans-48"/>
      </g>
     </g>
    </g>
    <g id="xtick_2">
     <g id="line2d_2">
      <g>
       <use style="fill:#ffffff;stroke:#ffffff;stroke-width:0.8;" x="132.362022" xlink:href="#m598823fee0" y="251.6"/>
      </g>
     </g>
     <g id="text_2">
      <!-- 50 -->
      <defs>
       <path d="M 10.796875 72.90625 
L 49.515625 72.90625 
L 49.515625 64.59375 
L 19.828125 64.59375 
L 19.828125 46.734375 
Q 21.96875 47.46875 24.109375 47.828125 
Q 26.265625 48.1875 28.421875 48.1875 
Q 40.625 48.1875 47.75 41.5 
Q 54.890625 34.8125 54.890625 23.390625 
Q 54.890625 11.625 47.5625 5.09375 
Q 40.234375 -1.421875 26.90625 -1.421875 
Q 22.3125 -1.421875 17.546875 -0.640625 
Q 12.796875 0.140625 7.71875 1.703125 
L 7.71875 11.625 
Q 12.109375 9.234375 16.796875 8.0625 
Q 21.484375 6.890625 26.703125 6.890625 
Q 35.15625 6.890625 40.078125 11.328125 
Q 45.015625 15.765625 45.015625 23.390625 
Q 45.015625 31 40.078125 35.4375 
Q 35.15625 39.890625 26.703125 39.890625 
Q 22.75 39.890625 18.8125 39.015625 
Q 14.890625 38.140625 10.796875 36.28125 
z
" id="DejaVuSans-53"/>
      </defs>
      <g style="fill:#ffffff;" transform="translate(125.999522 266.198437)scale(0.1 -0.1)">
       <use xlink:href="#DejaVuSans-53"/>
       <use x="63.623047" xlink:href="#DejaVuSans-48"/>
      </g>
     </g>
    </g>
    <g id="xtick_3">
     <g id="line2d_3">
      <g>
       <use style="fill:#ffffff;stroke:#ffffff;stroke-width:0.8;" x="185.586545" xlink:href="#m598823fee0" y="251.6"/>
      </g>
     </g>
     <g id="text_3">
      <!-- 100 -->
      <defs>
       <path d="M 12.40625 8.296875 
L 28.515625 8.296875 
L 28.515625 63.921875 
L 10.984375 60.40625 
L 10.984375 69.390625 
L 28.421875 72.90625 
L 38.28125 72.90625 
L 38.28125 8.296875 
L 54.390625 8.296875 
L 54.390625 0 
L 12.40625 0 
z
" id="DejaVuSans-49"/>
      </defs>
      <g style="fill:#ffffff;" transform="translate(176.042795 266.198437)scale(0.1 -0.1)">
       <use xlink:href="#DejaVuSans-49"/>
       <use x="63.623047" xlink:href="#DejaVuSans-48"/>
       <use x="127.246094" xlink:href="#DejaVuSans-48"/>
      </g>
     </g>
    </g>
    <g id="xtick_4">
     <g id="line2d_4">
      <g>
       <use style="fill:#ffffff;stroke:#ffffff;stroke-width:0.8;" x="238.811067" xlink:href="#m598823fee0" y="251.6"/>
      </g>
     </g>
     <g id="text_4">
      <!-- 150 -->
      <g style="fill:#ffffff;" transform="translate(229.267317 266.198437)scale(0.1 -0.1)">
       <use xlink:href="#DejaVuSans-49"/>
       <use x="63.623047" xlink:href="#DejaVuSans-53"/>
       <use x="127.246094" xlink:href="#DejaVuSans-48"/>
      </g>
     </g>
    </g>
    <g id="xtick_5">
     <g id="line2d_5">
      <g>
       <use style="fill:#ffffff;stroke:#ffffff;stroke-width:0.8;" x="292.035589" xlink:href="#m598823fee0" y="251.6"/>
      </g>
     </g>
     <g id="text_5">
      <!-- 200 -->
      <defs>
       <path d="M 19.1875 8.296875 
L 53.609375 8.296875 
L 53.609375 0 
L 7.328125 0 
L 7.328125 8.296875 
Q 12.9375 14.109375 22.625 23.890625 
Q 32.328125 33.6875 34.8125 36.53125 
Q 39.546875 41.84375 41.421875 45.53125 
Q 43.3125 49.21875 43.3125 52.78125 
Q 43.3125 58.59375 39.234375 62.25 
Q 35.15625 65.921875 28.609375 65.921875 
Q 23.96875 65.921875 18.8125 64.3125 
Q 13.671875 62.703125 7.8125 59.421875 
L 7.8125 69.390625 
Q 13.765625 71.78125 18.9375 73 
Q 24.125 74.21875 28.421875 74.21875 
Q 39.75 74.21875 46.484375 68.546875 
Q 53.21875 62.890625 53.21875 53.421875 
Q 53.21875 48.921875 51.53125 44.890625 
Q 49.859375 40.875 45.40625 35.40625 
Q 44.1875 33.984375 37.640625 27.21875 
Q 31.109375 20.453125 19.1875 8.296875 
z
" id="DejaVuSans-50"/>
      </defs>
      <g style="fill:#ffffff;" transform="translate(282.491839 266.198437)scale(0.1 -0.1)">
       <use xlink:href="#DejaVuSans-50"/>
       <use x="63.623047" xlink:href="#DejaVuSans-48"/>
       <use x="127.246094" xlink:href="#DejaVuSans-48"/>
      </g>
     </g>
    </g>
    <g id="xtick_6">
     <g id="line2d_6">
      <g>
       <use style="fill:#ffffff;stroke:#ffffff;stroke-width:0.8;" x="345.260111" xlink:href="#m598823fee0" y="251.6"/>
      </g>
     </g>
     <g id="text_6">
      <!-- 250 -->
      <g style="fill:#ffffff;" transform="translate(335.716361 266.198437)scale(0.1 -0.1)">
       <use xlink:href="#DejaVuSans-50"/>
       <use x="63.623047" xlink:href="#DejaVuSans-53"/>
       <use x="127.246094" xlink:href="#DejaVuSans-48"/>
      </g>
     </g>
    </g>
    <g id="xtick_7">
     <g id="line2d_7">
      <g>
       <use style="fill:#ffffff;stroke:#ffffff;stroke-width:0.8;" x="398.484634" xlink:href="#m598823fee0" y="251.6"/>
      </g>
     </g>
     <g id="text_7">
      <!-- 300 -->
      <defs>
       <path d="M 40.578125 39.3125 
Q 47.65625 37.796875 51.625 33 
Q 55.609375 28.21875 55.609375 21.1875 
Q 55.609375 10.40625 48.1875 4.484375 
Q 40.765625 -1.421875 27.09375 -1.421875 
Q 22.515625 -1.421875 17.65625 -0.515625 
Q 12.796875 0.390625 7.625 2.203125 
L 7.625 11.71875 
Q 11.71875 9.328125 16.59375 8.109375 
Q 21.484375 6.890625 26.8125 6.890625 
Q 36.078125 6.890625 40.9375 10.546875 
Q 45.796875 14.203125 45.796875 21.1875 
Q 45.796875 27.640625 41.28125 31.265625 
Q 36.765625 34.90625 28.71875 34.90625 
L 20.21875 34.90625 
L 20.21875 43.015625 
L 29.109375 43.015625 
Q 36.375 43.015625 40.234375 45.921875 
Q 44.09375 48.828125 44.09375 54.296875 
Q 44.09375 59.90625 40.109375 62.90625 
Q 36.140625 65.921875 28.71875 65.921875 
Q 24.65625 65.921875 20.015625 65.03125 
Q 15.375 64.15625 9.8125 62.3125 
L 9.8125 71.09375 
Q 15.4375 72.65625 20.34375 73.4375 
Q 25.25 74.21875 29.59375 74.21875 
Q 40.828125 74.21875 47.359375 69.109375 
Q 53.90625 64.015625 53.90625 55.328125 
Q 53.90625 49.265625 50.4375 45.09375 
Q 46.96875 40.921875 40.578125 39.3125 
z
" id="DejaVuSans-51"/>
      </defs>
      <g style="fill:#ffffff;" transform="translate(388.940884 266.198437)scale(0.1 -0.1)">
       <use xlink:href="#DejaVuSans-51"/>
       <use x="63.623047" xlink:href="#DejaVuSans-48"/>
       <use x="127.246094" xlink:href="#DejaVuSans-48"/>
      </g>
     </g>
    </g>
    <g id="text_8">
     <!-- Time -->
     <defs>
      <path d="M -0.296875 72.90625 
L 61.375 72.90625 
L 61.375 64.59375 
L 35.5 64.59375 
L 35.5 0 
L 25.59375 0 
L 25.59375 64.59375 
L -0.296875 64.59375 
z
" id="DejaVuSans-84"/>
      <path d="M 9.421875 54.6875 
L 18.40625 54.6875 
L 18.40625 0 
L 9.421875 0 
z
M 9.421875 75.984375 
L 18.40625 75.984375 
L 18.40625 64.59375 
L 9.421875 64.59375 
z
" id="DejaVuSans-105"/>
      <path d="M 52 44.1875 
Q 55.375 50.25 60.0625 53.125 
Q 64.75 56 71.09375 56 
Q 79.640625 56 84.28125 50.015625 
Q 88.921875 44.046875 88.921875 33.015625 
L 88.921875 0 
L 79.890625 0 
L 79.890625 32.71875 
Q 79.890625 40.578125 77.09375 44.375 
Q 74.3125 48.1875 68.609375 48.1875 
Q 61.625 48.1875 57.5625 43.546875 
Q 53.515625 38.921875 53.515625 30.90625 
L 53.515625 0 
L 44.484375 0 
L 44.484375 32.71875 
Q 44.484375 40.625 41.703125 44.40625 
Q 38.921875 48.1875 33.109375 48.1875 
Q 26.21875 48.1875 22.15625 43.53125 
Q 18.109375 38.875 18.109375 30.90625 
L 18.109375 0 
L 9.078125 0 
L 9.078125 54.6875 
L 18.109375 54.6875 
L 18.109375 46.1875 
Q 21.1875 51.21875 25.484375 53.609375 
Q 29.78125 56 35.6875 56 
Q 41.65625 56 45.828125 52.96875 
Q 50 49.953125 52 44.1875 
z
" id="DejaVuSans-109"/>
      <path d="M 56.203125 29.59375 
L 56.203125 25.203125 
L 14.890625 25.203125 
Q 15.484375 15.921875 20.484375 11.0625 
Q 25.484375 6.203125 34.421875 6.203125 
Q 39.59375 6.203125 44.453125 7.46875 
Q 49.3125 8.734375 54.109375 11.28125 
L 54.109375 2.78125 
Q 49.265625 0.734375 44.1875 -0.34375 
Q 39.109375 -1.421875 33.890625 -1.421875 
Q 20.796875 -1.421875 13.15625 6.1875 
Q 5.515625 13.8125 5.515625 26.8125 
Q 5.515625 40.234375 12.765625 48.109375 
Q 20.015625 56 32.328125 56 
Q 43.359375 56 49.78125 48.890625 
Q 56.203125 41.796875 56.203125 29.59375 
z
M 47.21875 32.234375 
Q 47.125 39.59375 43.09375 43.984375 
Q 39.0625 48.390625 32.421875 48.390625 
Q 24.90625 48.390625 20.390625 44.140625 
Q 15.875 39.890625 15.1875 32.171875 
z
" id="DejaVuSans-101"/>
     </defs>
     <g style="fill:#ffffff;" transform="translate(233.875 279.876562)scale(0.1 -0.1)">
      <use xlink:href="#DejaVuSans-84"/>
      <use x="61.037109" xlink:href="#DejaVuSans-105"/>
      <use x="88.820312" xlink:href="#DejaVuSans-109"/>
      <use x="186.232422" xlink:href="#DejaVuSans-101"/>
     </g>
    </g>
   </g>
   <g id="matplotlib.axis_2">
    <g id="ytick_1">
     <g id="line2d_8">
      <defs>
       <path d="M 0 0 
L -3.5 0 
" id="m42db72685d" style="stroke:#ffffff;stroke-width:0.8;"/>
      </defs>
      <g>
       <use style="fill:#ffffff;stroke:#ffffff;stroke-width:0.8;" x="62.425" xlink:href="#m42db72685d" y="241.608556"/>
      </g>
     </g>
     <g id="text_9">
      <!-- −1.00 -->
      <defs>
       <path d="M 10.59375 35.5 
L 73.1875 35.5 
L 73.1875 27.203125 
L 10.59375 27.203125 
z
" id="DejaVuSans-8722"/>
       <path d="M 10.6875 12.40625 
L 21 12.40625 
L 21 0 
L 10.6875 0 
z
" id="DejaVuSans-46"/>
      </defs>
      <g style="fill:#ffffff;" transform="translate(24.779688 245.407775)scale(0.1 -0.1)">
       <use xlink:href="#DejaVuSans-8722"/>
       <use x="83.789062" xlink:href="#DejaVuSans-49"/>
       <use x="147.412109" xlink:href="#DejaVuSans-46"/>
       <use x="179.199219" xlink:href="#DejaVuSans-48"/>
       <use x="242.822266" xlink:href="#DejaVuSans-48"/>
      </g>
     </g>
    </g>
    <g id="ytick_2">
     <g id="line2d_9">
      <g>
       <use style="fill:#ffffff;stroke:#ffffff;stroke-width:0.8;" x="62.425" xlink:href="#m42db72685d" y="216.034759"/>
      </g>
     </g>
     <g id="text_10">
      <!-- −0.75 -->
      <defs>
       <path d="M 8.203125 72.90625 
L 55.078125 72.90625 
L 55.078125 68.703125 
L 28.609375 0 
L 18.3125 0 
L 43.21875 64.59375 
L 8.203125 64.59375 
z
" id="DejaVuSans-55"/>
      </defs>
      <g style="fill:#ffffff;" transform="translate(24.779688 219.833978)scale(0.1 -0.1)">
       <use xlink:href="#DejaVuSans-8722"/>
       <use x="83.789062" xlink:href="#DejaVuSans-48"/>
       <use x="147.412109" xlink:href="#DejaVuSans-46"/>
       <use x="179.199219" xlink:href="#DejaVuSans-55"/>
       <use x="242.822266" xlink:href="#DejaVuSans-53"/>
      </g>
     </g>
    </g>
    <g id="ytick_3">
     <g id="line2d_10">
      <g>
       <use style="fill:#ffffff;stroke:#ffffff;stroke-width:0.8;" x="62.425" xlink:href="#m42db72685d" y="190.460962"/>
      </g>
     </g>
     <g id="text_11">
      <!-- −0.50 -->
      <g style="fill:#ffffff;" transform="translate(24.779688 194.260181)scale(0.1 -0.1)">
       <use xlink:href="#DejaVuSans-8722"/>
       <use x="83.789062" xlink:href="#DejaVuSans-48"/>
       <use x="147.412109" xlink:href="#DejaVuSans-46"/>
       <use x="179.199219" xlink:href="#DejaVuSans-53"/>
       <use x="242.822266" xlink:href="#DejaVuSans-48"/>
      </g>
     </g>
    </g>
    <g id="ytick_4">
     <g id="line2d_11">
      <g>
       <use style="fill:#ffffff;stroke:#ffffff;stroke-width:0.8;" x="62.425" xlink:href="#m42db72685d" y="164.887166"/>
      </g>
     </g>
     <g id="text_12">
      <!-- −0.25 -->
      <g style="fill:#ffffff;" transform="translate(24.779688 168.686384)scale(0.1 -0.1)">
       <use xlink:href="#DejaVuSans-8722"/>
       <use x="83.789062" xlink:href="#DejaVuSans-48"/>
       <use x="147.412109" xlink:href="#DejaVuSans-46"/>
       <use x="179.199219" xlink:href="#DejaVuSans-50"/>
       <use x="242.822266" xlink:href="#DejaVuSans-53"/>
      </g>
     </g>
    </g>
    <g id="ytick_5">
     <g id="line2d_12">
      <g>
       <use style="fill:#ffffff;stroke:#ffffff;stroke-width:0.8;" x="62.425" xlink:href="#m42db72685d" y="139.313369"/>
      </g>
     </g>
     <g id="text_13">
      <!-- 0.00 -->
      <g style="fill:#ffffff;" transform="translate(33.159375 143.112588)scale(0.1 -0.1)">
       <use xlink:href="#DejaVuSans-48"/>
       <use x="63.623047" xlink:href="#DejaVuSans-46"/>
       <use x="95.410156" xlink:href="#DejaVuSans-48"/>
       <use x="159.033203" xlink:href="#DejaVuSans-48"/>
      </g>
     </g>
    </g>
    <g id="ytick_6">
     <g id="line2d_13">
      <g>
       <use style="fill:#ffffff;stroke:#ffffff;stroke-width:0.8;" x="62.425" xlink:href="#m42db72685d" y="113.739572"/>
      </g>
     </g>
     <g id="text_14">
      <!-- 0.25 -->
      <g style="fill:#ffffff;" transform="translate(33.159375 117.538791)scale(0.1 -0.1)">
       <use xlink:href="#DejaVuSans-48"/>
       <use x="63.623047" xlink:href="#DejaVuSans-46"/>
       <use x="95.410156" xlink:href="#DejaVuSans-50"/>
       <use x="159.033203" xlink:href="#DejaVuSans-53"/>
      </g>
     </g>
    </g>
    <g id="ytick_7">
     <g id="line2d_14">
      <g>
       <use style="fill:#ffffff;stroke:#ffffff;stroke-width:0.8;" x="62.425" xlink:href="#m42db72685d" y="88.165775"/>
      </g>
     </g>
     <g id="text_15">
      <!-- 0.50 -->
      <g style="fill:#ffffff;" transform="translate(33.159375 91.964994)scale(0.1 -0.1)">
       <use xlink:href="#DejaVuSans-48"/>
       <use x="63.623047" xlink:href="#DejaVuSans-46"/>
       <use x="95.410156" xlink:href="#DejaVuSans-53"/>
       <use x="159.033203" xlink:href="#DejaVuSans-48"/>
      </g>
     </g>
    </g>
    <g id="ytick_8">
     <g id="line2d_15">
      <g>
       <use style="fill:#ffffff;stroke:#ffffff;stroke-width:0.8;" x="62.425" xlink:href="#m42db72685d" y="62.591979"/>
      </g>
     </g>
     <g id="text_16">
      <!-- 0.75 -->
      <g style="fill:#ffffff;" transform="translate(33.159375 66.391197)scale(0.1 -0.1)">
       <use xlink:href="#DejaVuSans-48"/>
       <use x="63.623047" xlink:href="#DejaVuSans-46"/>
       <use x="95.410156" xlink:href="#DejaVuSans-55"/>
       <use x="159.033203" xlink:href="#DejaVuSans-53"/>
      </g>
     </g>
    </g>
    <g id="ytick_9">
     <g id="line2d_16">
      <g>
       <use style="fill:#ffffff;stroke:#ffffff;stroke-width:0.8;" x="62.425" xlink:href="#m42db72685d" y="37.018182"/>
      </g>
     </g>
     <g id="text_17">
      <!-- 1.00 -->
      <g style="fill:#ffffff;" transform="translate(33.159375 40.817401)scale(0.1 -0.1)">
       <use xlink:href="#DejaVuSans-49"/>
       <use x="63.623047" xlink:href="#DejaVuSans-46"/>
       <use x="95.410156" xlink:href="#DejaVuSans-48"/>
       <use x="159.033203" xlink:href="#DejaVuSans-48"/>
      </g>
     </g>
    </g>
    <g id="text_18">
     <!-- Signal -->
     <defs>
      <path d="M 53.515625 70.515625 
L 53.515625 60.890625 
Q 47.90625 63.578125 42.921875 64.890625 
Q 37.9375 66.21875 33.296875 66.21875 
Q 25.25 66.21875 20.875 63.09375 
Q 16.5 59.96875 16.5 54.203125 
Q 16.5 49.359375 19.40625 46.890625 
Q 22.3125 44.4375 30.421875 42.921875 
L 36.375 41.703125 
Q 47.40625 39.59375 52.65625 34.296875 
Q 57.90625 29 57.90625 20.125 
Q 57.90625 9.515625 50.796875 4.046875 
Q 43.703125 -1.421875 29.984375 -1.421875 
Q 24.8125 -1.421875 18.96875 -0.25 
Q 13.140625 0.921875 6.890625 3.21875 
L 6.890625 13.375 
Q 12.890625 10.015625 18.65625 8.296875 
Q 24.421875 6.59375 29.984375 6.59375 
Q 38.421875 6.59375 43.015625 9.90625 
Q 47.609375 13.234375 47.609375 19.390625 
Q 47.609375 24.75 44.3125 27.78125 
Q 41.015625 30.8125 33.5 32.328125 
L 27.484375 33.5 
Q 16.453125 35.6875 11.515625 40.375 
Q 6.59375 45.0625 6.59375 53.421875 
Q 6.59375 63.09375 13.40625 68.65625 
Q 20.21875 74.21875 32.171875 74.21875 
Q 37.3125 74.21875 42.625 73.28125 
Q 47.953125 72.359375 53.515625 70.515625 
z
" id="DejaVuSans-83"/>
      <path d="M 45.40625 27.984375 
Q 45.40625 37.75 41.375 43.109375 
Q 37.359375 48.484375 30.078125 48.484375 
Q 22.859375 48.484375 18.828125 43.109375 
Q 14.796875 37.75 14.796875 27.984375 
Q 14.796875 18.265625 18.828125 12.890625 
Q 22.859375 7.515625 30.078125 7.515625 
Q 37.359375 7.515625 41.375 12.890625 
Q 45.40625 18.265625 45.40625 27.984375 
z
M 54.390625 6.78125 
Q 54.390625 -7.171875 48.1875 -13.984375 
Q 42 -20.796875 29.203125 -20.796875 
Q 24.46875 -20.796875 20.265625 -20.09375 
Q 16.0625 -19.390625 12.109375 -17.921875 
L 12.109375 -9.1875 
Q 16.0625 -11.328125 19.921875 -12.34375 
Q 23.78125 -13.375 27.78125 -13.375 
Q 36.625 -13.375 41.015625 -8.765625 
Q 45.40625 -4.15625 45.40625 5.171875 
L 45.40625 9.625 
Q 42.625 4.78125 38.28125 2.390625 
Q 33.9375 0 27.875 0 
Q 17.828125 0 11.671875 7.65625 
Q 5.515625 15.328125 5.515625 27.984375 
Q 5.515625 40.671875 11.671875 48.328125 
Q 17.828125 56 27.875 56 
Q 33.9375 56 38.28125 53.609375 
Q 42.625 51.21875 45.40625 46.390625 
L 45.40625 54.6875 
L 54.390625 54.6875 
z
" id="DejaVuSans-103"/>
      <path d="M 54.890625 33.015625 
L 54.890625 0 
L 45.90625 0 
L 45.90625 32.71875 
Q 45.90625 40.484375 42.875 44.328125 
Q 39.84375 48.1875 33.796875 48.1875 
Q 26.515625 48.1875 22.3125 43.546875 
Q 18.109375 38.921875 18.109375 30.90625 
L 18.109375 0 
L 9.078125 0 
L 9.078125 54.6875 
L 18.109375 54.6875 
L 18.109375 46.1875 
Q 21.34375 51.125 25.703125 53.5625 
Q 30.078125 56 35.796875 56 
Q 45.21875 56 50.046875 50.171875 
Q 54.890625 44.34375 54.890625 33.015625 
z
" id="DejaVuSans-110"/>
      <path d="M 34.28125 27.484375 
Q 23.390625 27.484375 19.1875 25 
Q 14.984375 22.515625 14.984375 16.5 
Q 14.984375 11.71875 18.140625 8.90625 
Q 21.296875 6.109375 26.703125 6.109375 
Q 34.1875 6.109375 38.703125 11.40625 
Q 43.21875 16.703125 43.21875 25.484375 
L 43.21875 27.484375 
z
M 52.203125 31.203125 
L 52.203125 0 
L 43.21875 0 
L 43.21875 8.296875 
Q 40.140625 3.328125 35.546875 0.953125 
Q 30.953125 -1.421875 24.3125 -1.421875 
Q 15.921875 -1.421875 10.953125 3.296875 
Q 6 8.015625 6 15.921875 
Q 6 25.140625 12.171875 29.828125 
Q 18.359375 34.515625 30.609375 34.515625 
L 43.21875 34.515625 
L 43.21875 35.40625 
Q 43.21875 41.609375 39.140625 45 
Q 35.0625 48.390625 27.6875 48.390625 
Q 23 48.390625 18.546875 47.265625 
Q 14.109375 46.140625 10.015625 43.890625 
L 10.015625 52.203125 
Q 14.9375 54.109375 19.578125 55.046875 
Q 24.21875 56 28.609375 56 
Q 40.484375 56 46.34375 49.84375 
Q 52.203125 43.703125 52.203125 31.203125 
z
" id="DejaVuSans-97"/>
      <path d="M 9.421875 75.984375 
L 18.40625 75.984375 
L 18.40625 0 
L 9.421875 0 
z
" id="DejaVuSans-108"/>
     </defs>
     <g style="fill:#ffffff;" transform="translate(18.7 154.559375)rotate(-90)scale(0.1 -0.1)">
      <use xlink:href="#DejaVuSans-83"/>
      <use x="63.476562" xlink:href="#DejaVuSans-105"/>
      <use x="91.259766" xlink:href="#DejaVuSans-103"/>
      <use x="154.736328" xlink:href="#DejaVuSans-110"/>
      <use x="218.115234" xlink:href="#DejaVuSans-97"/>
      <use x="279.394531" xlink:href="#DejaVuSans-108"/>
     </g>
    </g>
   </g>
   <g id="line2d_17">
    <path clip-path="url(#p7497326a59)" d="M 79.1375 139.313369 
L 81.266481 88.596862 
L 82.330971 67.63184 
L 83.395462 51.512152 
L 84.459952 41.182763 
L 85.524443 37.091913 
L 86.588933 39.155826 
L 87.653424 46.770678 
L 88.717914 58.870725 
L 90.846895 90.580186 
L 91.911385 106.788422 
L 92.975876 120.988999 
L 94.040366 131.747274 
L 95.104857 137.986849 
L 96.169347 139.086866 
L 97.233838 134.938108 
L 98.298328 125.952859 
L 99.362818 113.027665 
L 103.62078 51.333584 
L 104.685271 41.700317 
L 105.749761 37.225993 
L 106.814252 38.716131 
L 107.878742 46.47498 
L 108.943232 60.273978 
L 110.007723 79.36752 
L 111.072213 102.554703 
L 115.330175 202.793786 
L 116.394666 221.069731 
L 117.459156 233.891692 
L 118.523646 240.597891 
L 119.588137 241.049548 
L 120.652627 235.638675 
L 121.717118 225.24874 
L 122.781608 211.171754 
L 125.97508 163.201422 
L 127.03957 150.857504 
L 128.104061 142.635195 
L 129.168551 139.354156 
L 130.233041 141.340326 
L 131.297532 148.396472 
L 132.362022 159.820011 
L 133.426513 174.466488 
L 136.619984 222.046936 
L 137.684475 233.484331 
L 138.748965 240.228798 
L 139.813455 241.286359 
L 140.877946 236.13778 
L 141.942436 224.789202 
L 143.006927 207.776123 
L 144.071417 186.120339 
L 146.200398 134.845988 
L 148.329379 84.786502 
L 149.393869 64.551025 
L 150.45836 49.351632 
L 151.52285 40.054185 
L 152.587341 37.018667 
L 153.651831 40.071727 
L 154.716322 48.526602 
L 155.780812 61.248606 
L 160.038774 123.073114 
L 161.103264 133.135468 
L 162.167755 138.540787 
L 163.232245 138.751541 
L 164.296736 133.746806 
L 165.361226 124.024155 
L 166.425717 110.554706 
L 169.619188 62.402908 
L 170.683678 49.400956 
L 171.748169 40.559417 
L 172.812659 37.044593 
L 173.87715 39.581887 
L 174.94164 48.386888 
L 176.006131 63.153599 
L 177.070621 83.053825 
L 179.199602 132.749262 
L 181.328583 183.984137 
L 182.393073 205.694415 
L 183.457564 222.791039 
L 184.522054 234.245802 
L 185.586545 239.524848 
L 186.651035 238.629835 
L 187.715525 232.090016 
L 188.780016 220.906342 
L 189.844506 206.453052 
L 191.973487 174.291664 
L 193.037978 159.926413 
L 194.102468 148.668571 
L 195.166959 141.589249 
L 196.231449 139.318256 
L 197.295939 141.99189 
L 198.36043 149.247176 
L 199.42492 160.262524 
L 201.553901 188.524294 
L 202.618392 202.737246 
L 203.682882 214.931195 
L 204.747373 223.730769 
L 205.811863 228.059706 
L 206.876354 227.237999 
L 207.940844 221.041272 
L 209.005334 209.717509 
L 210.069825 193.96029 
L 211.134315 174.841759 
L 214.327787 111.456943 
L 215.392277 93.26201 
L 216.456768 78.662172 
L 217.521258 68.494722 
L 218.585748 63.199314 
L 219.650239 62.791522 
L 220.714729 66.875594 
L 221.77922 74.694187 
L 222.84371 85.209509 
L 226.037182 120.616428 
L 227.101672 129.766516 
L 228.166162 136.076057 
L 229.230653 139.076567 
L 230.295143 138.650585 
L 231.359634 135.028638 
L 232.424124 128.753878 
L 233.488615 120.618815 
L 235.617596 102.666593 
L 236.682086 94.870374 
L 237.746576 89.063227 
L 238.811067 85.913977 
L 239.875557 85.833272 
L 240.940048 88.943636 
L 242.004538 95.077521 
L 243.069029 103.802405 
L 244.133519 114.469503 
L 247.32699 149.862991 
L 248.391481 159.998238 
L 249.455971 168.14625 
L 250.520462 173.880617 
L 251.584952 177.000439 
L 252.649443 177.535211 
L 253.713933 175.728148 
L 254.778424 172.000675 
L 255.842914 166.902481 
L 259.036385 149.555582 
L 260.100876 144.960984 
L 261.165366 141.633795 
L 262.229857 139.755314 
L 263.294347 139.344346 
L 264.358838 140.268765 
L 265.423328 142.27088 
L 266.487818 145.00317 
L 268.616799 151.071781 
L 269.68129 153.643991 
L 270.74578 155.492481 
L 271.810271 156.416888 
L 272.874761 156.323622 
L 273.939252 155.226913 
L 275.003742 153.23888 
L 276.068232 150.55051 
L 280.326194 137.882673 
L 281.390685 135.441812 
L 282.455175 133.621269 
L 283.519666 132.473982 
L 284.584156 131.986415 
L 285.648646 132.087592 
L 286.713137 132.663227 
L 287.777627 133.572879 
L 290.971099 136.875785 
L 292.035589 137.784046 
L 293.10008 138.482339 
L 294.16457 138.955436 
L 295.229061 139.218859 
L 296.293551 139.311046 
L 298.422532 139.192136 
L 301.616003 138.965804 
L 304.809475 139.117584 
L 308.002946 139.306661 
L 326.099283 139.313369 
L 413.3875 139.313369 
L 413.3875 139.313369 
" style="fill:none;stroke:#8dd3c7;stroke-linecap:square;stroke-width:1.5;"/>
   </g>
   <g id="line2d_18">
    <path clip-path="url(#p7497326a59)" d="M 79.1375 139.313369 
L 180.264092 139.235891 
L 182.393073 138.802534 
L 187.715525 137.194178 
L 188.780016 137.1203 
L 189.844506 137.214496 
L 190.908997 137.476342 
L 193.037978 138.353806 
L 195.166959 139.180009 
L 196.231449 139.31305 
L 197.295939 139.11998 
L 198.36043 138.52256 
L 199.42492 137.481703 
L 200.489411 136.009508 
L 201.553901 134.1765 
L 204.747373 128.065105 
L 205.811863 126.548277 
L 206.876354 125.690161 
L 207.940844 125.699578 
L 209.005334 126.72834 
L 210.069825 128.848504 
L 211.134315 132.036035 
L 212.198806 136.163315 
L 214.327787 146.237595 
L 216.456768 156.361939 
L 217.521258 160.44894 
L 218.585748 163.408794 
L 219.650239 164.986135 
L 220.714729 165.04757 
L 221.77922 163.60359 
L 222.84371 160.817038 
L 223.908201 156.996286 
L 227.101672 144.026767 
L 228.166162 140.998519 
L 229.230653 139.443275 
L 230.295143 139.696399 
L 231.359634 141.920992 
L 232.424124 146.078625 
L 233.488615 151.918618 
L 235.617596 166.662759 
L 236.682086 174.197255 
L 237.746576 180.789869 
L 238.811067 185.657204 
L 239.875557 188.111152 
L 240.940048 187.630917 
L 242.004538 183.922692 
L 243.069029 176.960514 
L 244.133519 167.003369 
L 245.19801 154.585773 
L 249.455971 97.972249 
L 250.520462 87.160338 
L 251.584952 79.46635 
L 252.649443 75.409485 
L 253.713933 75.191735 
L 254.778424 78.67057 
L 255.842914 85.363581 
L 256.907404 94.485727 
L 260.100876 125.614971 
L 261.165366 133.365062 
L 262.229857 138.115223 
L 263.294347 139.224487 
L 264.358838 136.409778 
L 265.423328 129.784914 
L 266.487818 119.862785 
L 268.616799 93.922601 
L 269.68129 80.430044 
L 270.74578 68.467391 
L 271.810271 59.395701 
L 272.874761 54.381572 
L 273.939252 54.281951 
L 275.003742 59.554898 
L 276.068232 70.205311 
L 277.132723 85.77148 
L 278.197213 105.354595 
L 282.455175 195.442702 
L 283.519666 212.962702 
L 284.584156 225.762305 
L 285.648646 233.068855 
L 286.713137 234.58672 
L 287.777627 230.526036 
L 288.842118 221.585011 
L 289.906608 208.886939 
L 293.10008 163.496064 
L 294.16457 151.345449 
L 295.229061 143.022198 
L 296.293551 139.421094 
L 297.358041 140.960838 
L 298.422532 147.541007 
L 299.487022 158.547311 
L 300.551513 172.904986 
L 303.744984 220.696088 
L 304.809475 232.533708 
L 305.873965 239.77836 
L 306.938455 241.381818 
L 308.002946 236.771753 
L 309.067436 225.910813 
L 310.131927 209.317341 
L 311.196417 187.983751 
L 313.325398 136.961133 
L 315.454379 86.578223 
L 316.518869 65.992518 
L 317.58336 50.354071 
L 318.64785 40.566475 
L 319.712341 37.031624 
L 320.776831 39.61853 
L 321.841322 47.679489 
L 322.905812 60.112105 
L 325.034793 92.054092 
L 326.099283 108.149377 
L 327.163774 122.098718 
L 328.228264 132.494349 
L 329.292755 138.296818 
L 330.357245 138.928946 
L 331.421736 134.327975 
L 332.486226 124.95123 
L 333.550717 111.734815 
L 337.808678 50.301869 
L 338.873169 41.081119 
L 339.937659 37.109169 
L 341.00215 39.149618 
L 342.06664 47.460144 
L 343.131131 61.765086 
L 344.195621 81.275408 
L 346.324602 130.622582 
L 348.453583 182.33261 
L 349.518073 204.605364 
L 350.582564 222.437856 
L 351.647054 234.737774 
L 352.711545 240.888102 
L 353.776035 240.797424 
L 354.840525 234.903516 
L 355.905016 224.129944 
L 356.969506 209.799601 
L 360.162978 161.971873 
L 361.227468 149.94824 
L 362.291959 142.13707 
L 363.356449 139.316695 
L 364.420939 141.767246 
L 365.48543 149.245349 
L 366.54992 161.006113 
L 367.614411 175.870431 
L 369.743392 208.691672 
L 370.807882 223.215449 
L 371.872373 234.28817 
L 372.936863 240.562948 
L 374.001354 241.084654 
L 375.065844 235.37918 
L 376.130334 223.500058 
L 377.194825 206.028238 
L 378.259315 184.024992 
L 382.517277 82.822988 
L 383.581768 62.986531 
L 384.646258 48.281638 
L 385.710748 39.531692 
L 386.775239 37.049885 
L 387.839729 40.615927 
L 388.90422 49.500133 
L 389.96871 62.532717 
L 394.226672 124.128752 
L 395.291162 133.813127 
L 396.355653 138.772982 
L 397.420143 138.51522 
L 398.484634 133.065431 
L 399.549124 122.965584 
L 400.613615 109.225062 
L 403.807086 61.120953 
L 404.871576 48.43076 
L 405.936067 40.019463 
L 407.000557 37.018182 
L 408.065048 40.109341 
L 409.129538 49.461574 
L 410.194029 64.710214 
L 411.258519 84.985167 
L 413.3875 135.081812 
L 413.3875 135.081812 
" style="fill:none;stroke:#feffb3;stroke-linecap:square;stroke-width:1.5;"/>
   </g>
   <g id="line2d_19">
    <path clip-path="url(#p7497326a59)" d="M 79.1375 37.018182 
L 177.070621 37.082103 
L 180.264092 37.417252 
L 183.457564 38.037728 
L 186.651035 38.940043 
L 189.844506 40.119122 
L 193.037978 41.568337 
L 196.231449 43.279539 
L 199.42492 45.243109 
L 202.618392 47.448005 
L 205.811863 49.881831 
L 210.069825 53.459219 
L 214.327787 57.383384 
L 218.585748 61.615116 
L 223.908201 67.272626 
L 229.230653 73.256166 
L 236.682086 82.002349 
L 254.778424 103.486193 
L 260.100876 109.450685 
L 265.423328 115.083032 
L 269.68129 119.290494 
L 273.939252 123.186968 
L 278.197213 126.733522 
L 281.390685 129.142343 
L 284.584156 131.32078 
L 287.777627 133.256583 
L 290.971099 134.93887 
L 294.16457 136.358181 
L 297.358041 137.506536 
L 300.551513 138.377481 
L 303.744984 138.966116 
L 306.938455 139.269134 
L 311.196417 139.313369 
L 413.3875 139.313369 
L 413.3875 139.313369 
" style="fill:none;stroke:#bfbbd9;stroke-linecap:square;stroke-width:1.5;"/>
   </g>
   <g id="line2d_20">
    <path clip-path="url(#p7497326a59)" d="M 79.1375 139.313369 
L 177.070621 139.249448 
L 180.264092 138.914298 
L 183.457564 138.293822 
L 186.651035 137.391508 
L 189.844506 136.212429 
L 193.037978 134.763214 
L 196.231449 133.052012 
L 199.42492 131.088442 
L 202.618392 128.883546 
L 205.811863 126.44972 
L 210.069825 122.872331 
L 214.327787 118.948166 
L 218.585748 114.716434 
L 223.908201 109.058925 
L 229.230653 103.075385 
L 236.682086 94.329202 
L 254.778424 72.845357 
L 260.100876 66.880866 
L 265.423328 61.248519 
L 269.68129 57.041057 
L 273.939252 53.144583 
L 278.197213 49.598029 
L 281.390685 47.189207 
L 284.584156 45.010771 
L 287.777627 43.074968 
L 290.971099 41.392681 
L 294.16457 39.97337 
L 297.358041 38.825014 
L 300.551513 37.95407 
L 303.744984 37.365434 
L 306.938455 37.062417 
L 311.196417 37.018182 
L 413.3875 37.018182 
L 413.3875 37.018182 
" style="fill:none;stroke:#fa8174;stroke-linecap:square;stroke-width:1.5;"/>
   </g>
   <g id="patch_3">
    <path d="M 62.425 251.6 
L 62.425 26.8 
" style="fill:none;stroke:#ffffff;stroke-linecap:square;stroke-linejoin:miter;stroke-width:0.8;"/>
   </g>
   <g id="patch_4">
    <path d="M 430.1 251.6 
L 430.1 26.8 
" style="fill:none;stroke:#ffffff;stroke-linecap:square;stroke-linejoin:miter;stroke-width:0.8;"/>
   </g>
   <g id="patch_5">
    <path d="M 62.425 251.6 
L 430.1 251.6 
" style="fill:none;stroke:#ffffff;stroke-linecap:square;stroke-linejoin:miter;stroke-width:0.8;"/>
   </g>
   <g id="patch_6">
    <path d="M 62.425 26.8 
L 430.1 26.8 
" style="fill:none;stroke:#ffffff;stroke-linecap:square;stroke-linejoin:miter;stroke-width:0.8;"/>
   </g>
   <g id="text_19">
    <!-- Individual waves (naive) -->
    <defs>
     <path d="M 9.8125 72.90625 
L 19.671875 72.90625 
L 19.671875 0 
L 9.8125 0 
z
" id="DejaVuSans-73"/>
     <path d="M 45.40625 46.390625 
L 45.40625 75.984375 
L 54.390625 75.984375 
L 54.390625 0 
L 45.40625 0 
L 45.40625 8.203125 
Q 42.578125 3.328125 38.25 0.953125 
Q 33.9375 -1.421875 27.875 -1.421875 
Q 17.96875 -1.421875 11.734375 6.484375 
Q 5.515625 14.40625 5.515625 27.296875 
Q 5.515625 40.1875 11.734375 48.09375 
Q 17.96875 56 27.875 56 
Q 33.9375 56 38.25 53.625 
Q 42.578125 51.265625 45.40625 46.390625 
z
M 14.796875 27.296875 
Q 14.796875 17.390625 18.875 11.75 
Q 22.953125 6.109375 30.078125 6.109375 
Q 37.203125 6.109375 41.296875 11.75 
Q 45.40625 17.390625 45.40625 27.296875 
Q 45.40625 37.203125 41.296875 42.84375 
Q 37.203125 48.484375 30.078125 48.484375 
Q 22.953125 48.484375 18.875 42.84375 
Q 14.796875 37.203125 14.796875 27.296875 
z
" id="DejaVuSans-100"/>
     <path d="M 2.984375 54.6875 
L 12.5 54.6875 
L 29.59375 8.796875 
L 46.6875 54.6875 
L 56.203125 54.6875 
L 35.6875 0 
L 23.484375 0 
z
" id="DejaVuSans-118"/>
     <path d="M 8.5 21.578125 
L 8.5 54.6875 
L 17.484375 54.6875 
L 17.484375 21.921875 
Q 17.484375 14.15625 20.5 10.265625 
Q 23.53125 6.390625 29.59375 6.390625 
Q 36.859375 6.390625 41.078125 11.03125 
Q 45.3125 15.671875 45.3125 23.6875 
L 45.3125 54.6875 
L 54.296875 54.6875 
L 54.296875 0 
L 45.3125 0 
L 45.3125 8.40625 
Q 42.046875 3.421875 37.71875 1 
Q 33.40625 -1.421875 27.6875 -1.421875 
Q 18.265625 -1.421875 13.375 4.4375 
Q 8.5 10.296875 8.5 21.578125 
z
M 31.109375 56 
z
" id="DejaVuSans-117"/>
     <path id="DejaVuSans-32"/>
     <path d="M 4.203125 54.6875 
L 13.1875 54.6875 
L 24.421875 12.015625 
L 35.59375 54.6875 
L 46.1875 54.6875 
L 57.421875 12.015625 
L 68.609375 54.6875 
L 77.59375 54.6875 
L 63.28125 0 
L 52.6875 0 
L 40.921875 44.828125 
L 29.109375 0 
L 18.5 0 
z
" id="DejaVuSans-119"/>
     <path d="M 44.28125 53.078125 
L 44.28125 44.578125 
Q 40.484375 46.53125 36.375 47.5 
Q 32.28125 48.484375 27.875 48.484375 
Q 21.1875 48.484375 17.84375 46.4375 
Q 14.5 44.390625 14.5 40.28125 
Q 14.5 37.15625 16.890625 35.375 
Q 19.28125 33.59375 26.515625 31.984375 
L 29.59375 31.296875 
Q 39.15625 29.25 43.1875 25.515625 
Q 47.21875 21.78125 47.21875 15.09375 
Q 47.21875 7.46875 41.1875 3.015625 
Q 35.15625 -1.421875 24.609375 -1.421875 
Q 20.21875 -1.421875 15.453125 -0.5625 
Q 10.6875 0.296875 5.421875 2 
L 5.421875 11.28125 
Q 10.40625 8.6875 15.234375 7.390625 
Q 20.0625 6.109375 24.8125 6.109375 
Q 31.15625 6.109375 34.5625 8.28125 
Q 37.984375 10.453125 37.984375 14.40625 
Q 37.984375 18.0625 35.515625 20.015625 
Q 33.0625 21.96875 24.703125 23.78125 
L 21.578125 24.515625 
Q 13.234375 26.265625 9.515625 29.90625 
Q 5.8125 33.546875 5.8125 39.890625 
Q 5.8125 47.609375 11.28125 51.796875 
Q 16.75 56 26.8125 56 
Q 31.78125 56 36.171875 55.265625 
Q 40.578125 54.546875 44.28125 53.078125 
z
" id="DejaVuSans-115"/>
     <path d="M 31 75.875 
Q 24.46875 64.65625 21.28125 53.65625 
Q 18.109375 42.671875 18.109375 31.390625 
Q 18.109375 20.125 21.3125 9.0625 
Q 24.515625 -2 31 -13.1875 
L 23.1875 -13.1875 
Q 15.875 -1.703125 12.234375 9.375 
Q 8.59375 20.453125 8.59375 31.390625 
Q 8.59375 42.28125 12.203125 53.3125 
Q 15.828125 64.359375 23.1875 75.875 
z
" id="DejaVuSans-40"/>
     <path d="M 8.015625 75.875 
L 15.828125 75.875 
Q 23.140625 64.359375 26.78125 53.3125 
Q 30.421875 42.28125 30.421875 31.390625 
Q 30.421875 20.453125 26.78125 9.375 
Q 23.140625 -1.703125 15.828125 -13.1875 
L 8.015625 -13.1875 
Q 14.5 -2 17.703125 9.0625 
Q 20.90625 20.125 20.90625 31.390625 
Q 20.90625 42.671875 17.703125 53.65625 
Q 14.5 64.65625 8.015625 75.875 
z
" id="DejaVuSans-41"/>
    </defs>
    <g style="fill:#ffffff;" transform="translate(173.203125 20.8)scale(0.12 -0.12)">
     <use xlink:href="#DejaVuSans-73"/>
     <use x="29.492188" xlink:href="#DejaVuSans-110"/>
     <use x="92.871094" xlink:href="#DejaVuSans-100"/>
     <use x="156.347656" xlink:href="#DejaVuSans-105"/>
     <use x="184.130859" xlink:href="#DejaVuSans-118"/>
     <use x="243.310547" xlink:href="#DejaVuSans-105"/>
     <use x="271.09375" xlink:href="#DejaVuSans-100"/>
     <use x="334.570312" xlink:href="#DejaVuSans-117"/>
     <use x="397.949219" xlink:href="#DejaVuSans-97"/>
     <use x="459.228516" xlink:href="#DejaVuSans-108"/>
     <use x="487.011719" xlink:href="#DejaVuSans-32"/>
     <use x="518.798828" xlink:href="#DejaVuSans-119"/>
     <use x="600.585938" xlink:href="#DejaVuSans-97"/>
     <use x="661.865234" xlink:href="#DejaVuSans-118"/>
     <use x="721.044922" xlink:href="#DejaVuSans-101"/>
     <use x="782.568359" xlink:href="#DejaVuSans-115"/>
     <use x="834.667969" xlink:href="#DejaVuSans-32"/>
     <use x="866.455078" xlink:href="#DejaVuSans-40"/>
     <use x="905.46875" xlink:href="#DejaVuSans-110"/>
     <use x="968.847656" xlink:href="#DejaVuSans-97"/>
     <use x="1030.126953" xlink:href="#DejaVuSans-105"/>
     <use x="1057.910156" xlink:href="#DejaVuSans-118"/>
     <use x="1117.089844" xlink:href="#DejaVuSans-101"/>
     <use x="1178.613281" xlink:href="#DejaVuSans-41"/>
    </g>
   </g>
  </g>
  <g id="axes_2">
   <g id="patch_7">
    <path d="M 482.025 251.6 
L 849.7 251.6 
L 849.7 26.8 
L 482.025 26.8 
z
"/>
   </g>
   <g id="matplotlib.axis_3">
    <g id="xtick_8">
     <g id="line2d_21">
      <g>
       <use style="fill:#ffffff;stroke:#ffffff;stroke-width:0.8;" x="498.7375" xlink:href="#m598823fee0" y="251.6"/>
      </g>
     </g>
     <g id="text_20">
      <!-- 0 -->
      <g style="fill:#ffffff;" transform="translate(495.55625 266.198437)scale(0.1 -0.1)">
       <use xlink:href="#DejaVuSans-48"/>
      </g>
     </g>
    </g>
    <g id="xtick_9">
     <g id="line2d_22">
      <g>
       <use style="fill:#ffffff;stroke:#ffffff;stroke-width:0.8;" x="551.962022" xlink:href="#m598823fee0" y="251.6"/>
      </g>
     </g>
     <g id="text_21">
      <!-- 50 -->
      <g style="fill:#ffffff;" transform="translate(545.599522 266.198437)scale(0.1 -0.1)">
       <use xlink:href="#DejaVuSans-53"/>
       <use x="63.623047" xlink:href="#DejaVuSans-48"/>
      </g>
     </g>
    </g>
    <g id="xtick_10">
     <g id="line2d_23">
      <g>
       <use style="fill:#ffffff;stroke:#ffffff;stroke-width:0.8;" x="605.186545" xlink:href="#m598823fee0" y="251.6"/>
      </g>
     </g>
     <g id="text_22">
      <!-- 100 -->
      <g style="fill:#ffffff;" transform="translate(595.642795 266.198437)scale(0.1 -0.1)">
       <use xlink:href="#DejaVuSans-49"/>
       <use x="63.623047" xlink:href="#DejaVuSans-48"/>
       <use x="127.246094" xlink:href="#DejaVuSans-48"/>
      </g>
     </g>
    </g>
    <g id="xtick_11">
     <g id="line2d_24">
      <g>
       <use style="fill:#ffffff;stroke:#ffffff;stroke-width:0.8;" x="658.411067" xlink:href="#m598823fee0" y="251.6"/>
      </g>
     </g>
     <g id="text_23">
      <!-- 150 -->
      <g style="fill:#ffffff;" transform="translate(648.867317 266.198437)scale(0.1 -0.1)">
       <use xlink:href="#DejaVuSans-49"/>
       <use x="63.623047" xlink:href="#DejaVuSans-53"/>
       <use x="127.246094" xlink:href="#DejaVuSans-48"/>
      </g>
     </g>
    </g>
    <g id="xtick_12">
     <g id="line2d_25">
      <g>
       <use style="fill:#ffffff;stroke:#ffffff;stroke-width:0.8;" x="711.635589" xlink:href="#m598823fee0" y="251.6"/>
      </g>
     </g>
     <g id="text_24">
      <!-- 200 -->
      <g style="fill:#ffffff;" transform="translate(702.091839 266.198437)scale(0.1 -0.1)">
       <use xlink:href="#DejaVuSans-50"/>
       <use x="63.623047" xlink:href="#DejaVuSans-48"/>
       <use x="127.246094" xlink:href="#DejaVuSans-48"/>
      </g>
     </g>
    </g>
    <g id="xtick_13">
     <g id="line2d_26">
      <g>
       <use style="fill:#ffffff;stroke:#ffffff;stroke-width:0.8;" x="764.860111" xlink:href="#m598823fee0" y="251.6"/>
      </g>
     </g>
     <g id="text_25">
      <!-- 250 -->
      <g style="fill:#ffffff;" transform="translate(755.316361 266.198437)scale(0.1 -0.1)">
       <use xlink:href="#DejaVuSans-50"/>
       <use x="63.623047" xlink:href="#DejaVuSans-53"/>
       <use x="127.246094" xlink:href="#DejaVuSans-48"/>
      </g>
     </g>
    </g>
    <g id="xtick_14">
     <g id="line2d_27">
      <g>
       <use style="fill:#ffffff;stroke:#ffffff;stroke-width:0.8;" x="818.084634" xlink:href="#m598823fee0" y="251.6"/>
      </g>
     </g>
     <g id="text_26">
      <!-- 300 -->
      <g style="fill:#ffffff;" transform="translate(808.540884 266.198437)scale(0.1 -0.1)">
       <use xlink:href="#DejaVuSans-51"/>
       <use x="63.623047" xlink:href="#DejaVuSans-48"/>
       <use x="127.246094" xlink:href="#DejaVuSans-48"/>
      </g>
     </g>
    </g>
    <g id="text_27">
     <!-- Time -->
     <g style="fill:#ffffff;" transform="translate(653.475 279.876562)scale(0.1 -0.1)">
      <use xlink:href="#DejaVuSans-84"/>
      <use x="61.037109" xlink:href="#DejaVuSans-105"/>
      <use x="88.820312" xlink:href="#DejaVuSans-109"/>
      <use x="186.232422" xlink:href="#DejaVuSans-101"/>
     </g>
    </g>
   </g>
   <g id="matplotlib.axis_4">
    <g id="ytick_10">
     <g id="line2d_28">
      <g>
       <use style="fill:#ffffff;stroke:#ffffff;stroke-width:0.8;" x="482.025" xlink:href="#m42db72685d" y="241.652771"/>
      </g>
     </g>
     <g id="text_28">
      <!-- −1.00 -->
      <g style="fill:#ffffff;" transform="translate(444.379688 245.451989)scale(0.1 -0.1)">
       <use xlink:href="#DejaVuSans-8722"/>
       <use x="83.789062" xlink:href="#DejaVuSans-49"/>
       <use x="147.412109" xlink:href="#DejaVuSans-46"/>
       <use x="179.199219" xlink:href="#DejaVuSans-48"/>
       <use x="242.822266" xlink:href="#DejaVuSans-48"/>
      </g>
     </g>
    </g>
    <g id="ytick_11">
     <g id="line2d_29">
      <g>
       <use style="fill:#ffffff;stroke:#ffffff;stroke-width:0.8;" x="482.025" xlink:href="#m42db72685d" y="216.073447"/>
      </g>
     </g>
     <g id="text_29">
      <!-- −0.75 -->
      <g style="fill:#ffffff;" transform="translate(444.379688 219.872666)scale(0.1 -0.1)">
       <use xlink:href="#DejaVuSans-8722"/>
       <use x="83.789062" xlink:href="#DejaVuSans-48"/>
       <use x="147.412109" xlink:href="#DejaVuSans-46"/>
       <use x="179.199219" xlink:href="#DejaVuSans-55"/>
       <use x="242.822266" xlink:href="#DejaVuSans-53"/>
      </g>
     </g>
    </g>
    <g id="ytick_12">
     <g id="line2d_30">
      <g>
       <use style="fill:#ffffff;stroke:#ffffff;stroke-width:0.8;" x="482.025" xlink:href="#m42db72685d" y="190.494123"/>
      </g>
     </g>
     <g id="text_30">
      <!-- −0.50 -->
      <g style="fill:#ffffff;" transform="translate(444.379688 194.293342)scale(0.1 -0.1)">
       <use xlink:href="#DejaVuSans-8722"/>
       <use x="83.789062" xlink:href="#DejaVuSans-48"/>
       <use x="147.412109" xlink:href="#DejaVuSans-46"/>
       <use x="179.199219" xlink:href="#DejaVuSans-53"/>
       <use x="242.822266" xlink:href="#DejaVuSans-48"/>
      </g>
     </g>
    </g>
    <g id="ytick_13">
     <g id="line2d_31">
      <g>
       <use style="fill:#ffffff;stroke:#ffffff;stroke-width:0.8;" x="482.025" xlink:href="#m42db72685d" y="164.9148"/>
      </g>
     </g>
     <g id="text_31">
      <!-- −0.25 -->
      <g style="fill:#ffffff;" transform="translate(444.379688 168.714019)scale(0.1 -0.1)">
       <use xlink:href="#DejaVuSans-8722"/>
       <use x="83.789062" xlink:href="#DejaVuSans-48"/>
       <use x="147.412109" xlink:href="#DejaVuSans-46"/>
       <use x="179.199219" xlink:href="#DejaVuSans-50"/>
       <use x="242.822266" xlink:href="#DejaVuSans-53"/>
      </g>
     </g>
    </g>
    <g id="ytick_14">
     <g id="line2d_32">
      <g>
       <use style="fill:#ffffff;stroke:#ffffff;stroke-width:0.8;" x="482.025" xlink:href="#m42db72685d" y="139.335476"/>
      </g>
     </g>
     <g id="text_32">
      <!-- 0.00 -->
      <g style="fill:#ffffff;" transform="translate(452.759375 143.134695)scale(0.1 -0.1)">
       <use xlink:href="#DejaVuSans-48"/>
       <use x="63.623047" xlink:href="#DejaVuSans-46"/>
       <use x="95.410156" xlink:href="#DejaVuSans-48"/>
       <use x="159.033203" xlink:href="#DejaVuSans-48"/>
      </g>
     </g>
    </g>
    <g id="ytick_15">
     <g id="line2d_33">
      <g>
       <use style="fill:#ffffff;stroke:#ffffff;stroke-width:0.8;" x="482.025" xlink:href="#m42db72685d" y="113.756153"/>
      </g>
     </g>
     <g id="text_33">
      <!-- 0.25 -->
      <g style="fill:#ffffff;" transform="translate(452.759375 117.555371)scale(0.1 -0.1)">
       <use xlink:href="#DejaVuSans-48"/>
       <use x="63.623047" xlink:href="#DejaVuSans-46"/>
       <use x="95.410156" xlink:href="#DejaVuSans-50"/>
       <use x="159.033203" xlink:href="#DejaVuSans-53"/>
      </g>
     </g>
    </g>
    <g id="ytick_16">
     <g id="line2d_34">
      <g>
       <use style="fill:#ffffff;stroke:#ffffff;stroke-width:0.8;" x="482.025" xlink:href="#m42db72685d" y="88.176829"/>
      </g>
     </g>
     <g id="text_34">
      <!-- 0.50 -->
      <g style="fill:#ffffff;" transform="translate(452.759375 91.976048)scale(0.1 -0.1)">
       <use xlink:href="#DejaVuSans-48"/>
       <use x="63.623047" xlink:href="#DejaVuSans-46"/>
       <use x="95.410156" xlink:href="#DejaVuSans-53"/>
       <use x="159.033203" xlink:href="#DejaVuSans-48"/>
      </g>
     </g>
    </g>
    <g id="ytick_17">
     <g id="line2d_35">
      <g>
       <use style="fill:#ffffff;stroke:#ffffff;stroke-width:0.8;" x="482.025" xlink:href="#m42db72685d" y="62.597505"/>
      </g>
     </g>
     <g id="text_35">
      <!-- 0.75 -->
      <g style="fill:#ffffff;" transform="translate(452.759375 66.396724)scale(0.1 -0.1)">
       <use xlink:href="#DejaVuSans-48"/>
       <use x="63.623047" xlink:href="#DejaVuSans-46"/>
       <use x="95.410156" xlink:href="#DejaVuSans-55"/>
       <use x="159.033203" xlink:href="#DejaVuSans-53"/>
      </g>
     </g>
    </g>
    <g id="ytick_18">
     <g id="line2d_36">
      <g>
       <use style="fill:#ffffff;stroke:#ffffff;stroke-width:0.8;" x="482.025" xlink:href="#m42db72685d" y="37.018182"/>
      </g>
     </g>
     <g id="text_36">
      <!-- 1.00 -->
      <g style="fill:#ffffff;" transform="translate(452.759375 40.817401)scale(0.1 -0.1)">
       <use xlink:href="#DejaVuSans-49"/>
       <use x="63.623047" xlink:href="#DejaVuSans-46"/>
       <use x="95.410156" xlink:href="#DejaVuSans-48"/>
       <use x="159.033203" xlink:href="#DejaVuSans-48"/>
      </g>
     </g>
    </g>
   </g>
   <g id="line2d_37">
    <path clip-path="url(#pa807213d64)" d="M 498.7375 139.335476 
L 500.866481 88.608009 
L 501.930971 67.638456 
L 502.995462 51.515285 
L 504.059952 41.183663 
L 505.124443 37.091929 
L 506.188933 39.156288 
L 507.253424 46.772786 
L 508.317914 58.875448 
L 510.446895 90.591761 
L 511.511385 106.803501 
L 512.575876 121.007146 
L 513.640366 131.767746 
L 514.704857 138.008669 
L 515.769347 139.108924 
L 516.833838 134.959269 
L 517.898328 125.972079 
L 518.962818 113.044092 
L 523.22078 51.336678 
L 524.285271 41.701329 
L 525.349761 37.226038 
L 526.414252 38.716498 
L 527.478742 46.477024 
L 528.543232 60.279003 
L 529.607723 79.376672 
L 530.672213 102.568866 
L 534.930175 202.829612 
L 535.994666 221.109507 
L 537.059156 233.934239 
L 538.123646 240.641888 
L 539.188137 241.093642 
L 540.252627 235.681599 
L 541.317118 225.289419 
L 542.381608 211.209391 
L 545.57508 163.228692 
L 546.63957 150.882106 
L 547.704061 142.65802 
L 548.768551 139.376272 
L 549.833041 141.362871 
L 550.897532 148.420542 
L 551.962022 159.84655 
L 553.026513 174.496192 
L 556.219984 222.086923 
L 557.284475 233.52679 
L 558.348965 240.272715 
L 559.413455 241.330504 
L 560.477946 236.180812 
L 561.542436 224.829782 
L 562.606927 207.813026 
L 563.671417 186.152562 
L 565.800398 134.867129 
L 567.929379 84.796825 
L 568.993869 64.556975 
L 570.05836 49.354297 
L 571.12285 40.054841 
L 572.187341 37.018667 
L 573.251831 40.072387 
L 574.316322 48.529089 
L 575.380812 61.253843 
L 579.638774 123.091712 
L 580.703264 133.15624 
L 581.767755 138.562727 
L 582.832245 138.773527 
L 583.896736 133.76771 
L 584.961226 124.042958 
L 586.025717 110.570598 
L 589.219188 62.408394 
L 590.283678 49.403632 
L 591.348169 40.560182 
L 592.412659 37.044599 
L 593.47715 39.582441 
L 594.54164 48.389345 
L 595.606131 63.171151 
L 596.670621 83.098958 
L 598.799602 132.786392 
L 600.928583 183.763626 
L 601.993073 205.219923 
L 603.057564 221.990632 
L 604.122054 233.076464 
L 605.186545 237.98601 
L 606.251035 236.77137 
L 607.315525 230.012525 
L 608.380016 218.752539 
L 610.508997 188.541936 
L 611.573487 172.883714 
L 612.637978 158.993204 
L 613.702468 148.202532 
L 614.766959 141.478459 
L 615.831449 139.340045 
L 616.895939 141.821146 
L 617.96043 148.48045 
L 619.02492 158.457097 
L 623.282882 205.65534 
L 624.347373 212.520424 
L 625.411863 215.333142 
L 626.476354 213.652956 
L 627.540844 207.464309 
L 628.605334 197.167083 
L 629.669825 183.527081 
L 631.798806 150.586694 
L 633.927787 118.398753 
L 634.992277 105.456267 
L 636.056768 95.723426 
L 637.121258 89.641663 
L 638.185748 87.305605 
L 639.250239 88.475406 
L 640.314729 92.621808 
L 641.37922 98.9978 
L 645.637182 129.387362 
L 646.701672 134.500977 
L 647.766162 137.782978 
L 648.830653 139.228557 
L 649.895143 139.055662 
L 650.959634 137.658006 
L 654.153105 131.276101 
L 655.217596 130.036081 
L 656.282086 129.774301 
L 657.346576 130.559938 
L 658.411067 132.278395 
L 660.540048 137.282848 
L 661.604538 139.709032 
L 662.669029 141.47212 
L 663.733519 142.182226 
L 664.79801 141.575498 
L 665.8625 139.555646 
L 666.92699 136.214209 
L 667.991481 131.826691 
L 671.184952 117.170738 
L 672.249443 113.647884 
L 673.313933 111.622634 
L 674.378424 111.373941 
L 675.442914 112.969104 
L 676.507404 116.242164 
L 677.571895 120.799633 
L 679.700876 131.282954 
L 680.765366 135.706812 
L 681.829857 138.579112 
L 682.894347 139.277559 
L 683.958838 137.38686 
L 685.023328 132.763112 
L 686.087818 125.57172 
L 687.152309 116.29337 
L 690.34578 84.656796 
L 691.410271 76.507752 
L 692.474761 71.399254 
L 693.539252 70.202665 
L 694.603742 73.488289 
L 695.668232 81.452053 
L 696.732723 93.876598 
L 697.797213 110.132077 
L 699.926194 149.843164 
L 702.055175 189.783609 
L 703.119666 206.159861 
L 704.184156 218.474558 
L 705.248646 225.883885 
L 706.313137 227.977838 
L 707.377627 224.826125 
L 708.442118 216.978447 
L 709.506608 205.418182 
L 713.76457 151.012147 
L 714.829061 142.950576 
L 715.893551 139.440902 
L 716.958041 140.953673 
L 718.022532 147.443633 
L 719.087022 158.346172 
L 720.151513 172.624122 
L 723.344984 220.45852 
L 724.409475 232.380134 
L 725.473965 239.710692 
L 726.538455 241.381818 
L 727.602946 236.808213 
L 728.667436 225.951635 
L 729.731927 209.354577 
L 730.796417 188.016376 
L 732.925398 136.982732 
L 735.054379 86.588934 
L 736.118869 65.99878 
L 737.18336 50.356953 
L 738.24785 40.567242 
L 739.312341 37.031627 
L 740.376831 39.619092 
L 741.441322 47.681793 
L 742.505812 60.117096 
L 744.634793 92.065986 
L 745.699283 108.16475 
L 746.763774 122.117105 
L 747.828264 132.514983 
L 748.892755 138.318706 
L 749.957245 138.950971 
L 751.021736 134.349004 
L 752.086226 124.970234 
L 753.150717 111.750962 
L 757.408678 50.30474 
L 758.473169 41.081998 
L 759.537659 37.109189 
L 760.60215 39.150079 
L 761.66664 47.462401 
L 762.731131 61.770434 
L 763.795621 81.284973 
L 765.924602 130.642811 
L 768.053583 182.364014 
L 769.118073 204.641581 
L 770.182564 222.477928 
L 771.247054 234.780504 
L 772.311545 240.932161 
L 773.376035 240.841463 
L 774.440525 234.946281 
L 775.505016 224.170381 
L 776.569506 209.836941 
L 779.762978 161.998877 
L 780.827468 149.972645 
L 781.891959 142.159788 
L 782.956449 139.338803 
L 784.020939 141.789883 
L 785.08543 149.269603 
L 786.14992 161.032908 
L 787.214411 175.900439 
L 789.343392 208.728773 
L 790.407882 223.255689 
L 791.472373 234.330803 
L 792.536863 240.606937 
L 793.601354 241.128756 
L 794.665844 235.422048 
L 795.730334 223.540359 
L 796.794825 206.064763 
L 797.859315 184.056762 
L 802.117277 82.832887 
L 803.181768 62.992143 
L 804.246258 48.284072 
L 805.310748 39.532235 
L 806.375239 37.049892 
L 807.439729 40.616704 
L 808.50422 49.50283 
L 809.56871 62.538231 
L 813.826672 124.147577 
L 814.891162 133.834045 
L 815.955653 138.794973 
L 817.020143 138.537155 
L 818.084634 133.086188 
L 819.149124 122.984159 
L 820.213615 109.240667 
L 823.407086 61.126162 
L 824.471576 48.433226 
L 825.536067 40.020112 
L 826.600557 37.018182 
L 827.665048 40.110009 
L 828.729538 49.464263 
L 829.794029 64.716198 
L 830.858519 84.995533 
L 832.9875 135.103005 
L 832.9875 135.103005 
" style="fill:none;stroke:#8dd3c7;stroke-linecap:square;stroke-width:1.5;"/>
   </g>
   <g id="patch_8">
    <path d="M 482.025 251.6 
L 482.025 26.8 
" style="fill:none;stroke:#ffffff;stroke-linecap:square;stroke-linejoin:miter;stroke-width:0.8;"/>
   </g>
   <g id="patch_9">
    <path d="M 849.7 251.6 
L 849.7 26.8 
" style="fill:none;stroke:#ffffff;stroke-linecap:square;stroke-linejoin:miter;stroke-width:0.8;"/>
   </g>
   <g id="patch_10">
    <path d="M 482.025 251.6 
L 849.7 251.6 
" style="fill:none;stroke:#ffffff;stroke-linecap:square;stroke-linejoin:miter;stroke-width:0.8;"/>
   </g>
   <g id="patch_11">
    <path d="M 482.025 26.8 
L 849.7 26.8 
" style="fill:none;stroke:#ffffff;stroke-linecap:square;stroke-linejoin:miter;stroke-width:0.8;"/>
   </g>
   <g id="text_37">
    <!-- Output signal -->
    <defs>
     <path d="M 39.40625 66.21875 
Q 28.65625 66.21875 22.328125 58.203125 
Q 16.015625 50.203125 16.015625 36.375 
Q 16.015625 22.609375 22.328125 14.59375 
Q 28.65625 6.59375 39.40625 6.59375 
Q 50.140625 6.59375 56.421875 14.59375 
Q 62.703125 22.609375 62.703125 36.375 
Q 62.703125 50.203125 56.421875 58.203125 
Q 50.140625 66.21875 39.40625 66.21875 
z
M 39.40625 74.21875 
Q 54.734375 74.21875 63.90625 63.9375 
Q 73.09375 53.65625 73.09375 36.375 
Q 73.09375 19.140625 63.90625 8.859375 
Q 54.734375 -1.421875 39.40625 -1.421875 
Q 24.03125 -1.421875 14.8125 8.828125 
Q 5.609375 19.09375 5.609375 36.375 
Q 5.609375 53.65625 14.8125 63.9375 
Q 24.03125 74.21875 39.40625 74.21875 
z
" id="DejaVuSans-79"/>
     <path d="M 18.3125 70.21875 
L 18.3125 54.6875 
L 36.8125 54.6875 
L 36.8125 47.703125 
L 18.3125 47.703125 
L 18.3125 18.015625 
Q 18.3125 11.328125 20.140625 9.421875 
Q 21.96875 7.515625 27.59375 7.515625 
L 36.8125 7.515625 
L 36.8125 0 
L 27.59375 0 
Q 17.1875 0 13.234375 3.875 
Q 9.28125 7.765625 9.28125 18.015625 
L 9.28125 47.703125 
L 2.6875 47.703125 
L 2.6875 54.6875 
L 9.28125 54.6875 
L 9.28125 70.21875 
z
" id="DejaVuSans-116"/>
     <path d="M 18.109375 8.203125 
L 18.109375 -20.796875 
L 9.078125 -20.796875 
L 9.078125 54.6875 
L 18.109375 54.6875 
L 18.109375 46.390625 
Q 20.953125 51.265625 25.265625 53.625 
Q 29.59375 56 35.59375 56 
Q 45.5625 56 51.78125 48.09375 
Q 58.015625 40.1875 58.015625 27.296875 
Q 58.015625 14.40625 51.78125 6.484375 
Q 45.5625 -1.421875 35.59375 -1.421875 
Q 29.59375 -1.421875 25.265625 0.953125 
Q 20.953125 3.328125 18.109375 8.203125 
z
M 48.6875 27.296875 
Q 48.6875 37.203125 44.609375 42.84375 
Q 40.53125 48.484375 33.40625 48.484375 
Q 26.265625 48.484375 22.1875 42.84375 
Q 18.109375 37.203125 18.109375 27.296875 
Q 18.109375 17.390625 22.1875 11.75 
Q 26.265625 6.109375 33.40625 6.109375 
Q 40.53125 6.109375 44.609375 11.75 
Q 48.6875 17.390625 48.6875 27.296875 
z
" id="DejaVuSans-112"/>
    </defs>
    <g style="fill:#ffffff;" transform="translate(625.36625 20.8)scale(0.12 -0.12)">
     <use xlink:href="#DejaVuSans-79"/>
     <use x="78.710938" xlink:href="#DejaVuSans-117"/>
     <use x="142.089844" xlink:href="#DejaVuSans-116"/>
     <use x="181.298828" xlink:href="#DejaVuSans-112"/>
     <use x="244.775391" xlink:href="#DejaVuSans-117"/>
     <use x="308.154297" xlink:href="#DejaVuSans-116"/>
     <use x="347.363281" xlink:href="#DejaVuSans-32"/>
     <use x="379.150391" xlink:href="#DejaVuSans-115"/>
     <use x="431.25" xlink:href="#DejaVuSans-105"/>
     <use x="459.033203" xlink:href="#DejaVuSans-103"/>
     <use x="522.509766" xlink:href="#DejaVuSans-110"/>
     <use x="585.888672" xlink:href="#DejaVuSans-97"/>
     <use x="647.167969" xlink:href="#DejaVuSans-108"/>
    </g>
   </g>
  </g>
  <g id="axes_3">
   <g id="patch_12">
    <path d="M 62.425 534.2 
L 430.1 534.2 
L 430.1 309.4 
L 62.425 309.4 
z
"/>
   </g>
   <g id="matplotlib.axis_5">
    <g id="xtick_15">
     <g id="line2d_38">
      <g>
       <use style="fill:#ffffff;stroke:#ffffff;stroke-width:0.8;" x="79.1375" xlink:href="#m598823fee0" y="534.2"/>
      </g>
     </g>
     <g id="text_38">
      <!-- 0 -->
      <g style="fill:#ffffff;" transform="translate(75.95625 548.798437)scale(0.1 -0.1)">
       <use xlink:href="#DejaVuSans-48"/>
      </g>
     </g>
    </g>
    <g id="xtick_16">
     <g id="line2d_39">
      <g>
       <use style="fill:#ffffff;stroke:#ffffff;stroke-width:0.8;" x="132.362022" xlink:href="#m598823fee0" y="534.2"/>
      </g>
     </g>
     <g id="text_39">
      <!-- 50 -->
      <g style="fill:#ffffff;" transform="translate(125.999522 548.798437)scale(0.1 -0.1)">
       <use xlink:href="#DejaVuSans-53"/>
       <use x="63.623047" xlink:href="#DejaVuSans-48"/>
      </g>
     </g>
    </g>
    <g id="xtick_17">
     <g id="line2d_40">
      <g>
       <use style="fill:#ffffff;stroke:#ffffff;stroke-width:0.8;" x="185.586545" xlink:href="#m598823fee0" y="534.2"/>
      </g>
     </g>
     <g id="text_40">
      <!-- 100 -->
      <g style="fill:#ffffff;" transform="translate(176.042795 548.798437)scale(0.1 -0.1)">
       <use xlink:href="#DejaVuSans-49"/>
       <use x="63.623047" xlink:href="#DejaVuSans-48"/>
       <use x="127.246094" xlink:href="#DejaVuSans-48"/>
      </g>
     </g>
    </g>
    <g id="xtick_18">
     <g id="line2d_41">
      <g>
       <use style="fill:#ffffff;stroke:#ffffff;stroke-width:0.8;" x="238.811067" xlink:href="#m598823fee0" y="534.2"/>
      </g>
     </g>
     <g id="text_41">
      <!-- 150 -->
      <g style="fill:#ffffff;" transform="translate(229.267317 548.798437)scale(0.1 -0.1)">
       <use xlink:href="#DejaVuSans-49"/>
       <use x="63.623047" xlink:href="#DejaVuSans-53"/>
       <use x="127.246094" xlink:href="#DejaVuSans-48"/>
      </g>
     </g>
    </g>
    <g id="xtick_19">
     <g id="line2d_42">
      <g>
       <use style="fill:#ffffff;stroke:#ffffff;stroke-width:0.8;" x="292.035589" xlink:href="#m598823fee0" y="534.2"/>
      </g>
     </g>
     <g id="text_42">
      <!-- 200 -->
      <g style="fill:#ffffff;" transform="translate(282.491839 548.798437)scale(0.1 -0.1)">
       <use xlink:href="#DejaVuSans-50"/>
       <use x="63.623047" xlink:href="#DejaVuSans-48"/>
       <use x="127.246094" xlink:href="#DejaVuSans-48"/>
      </g>
     </g>
    </g>
    <g id="xtick_20">
     <g id="line2d_43">
      <g>
       <use style="fill:#ffffff;stroke:#ffffff;stroke-width:0.8;" x="345.260111" xlink:href="#m598823fee0" y="534.2"/>
      </g>
     </g>
     <g id="text_43">
      <!-- 250 -->
      <g style="fill:#ffffff;" transform="translate(335.716361 548.798437)scale(0.1 -0.1)">
       <use xlink:href="#DejaVuSans-50"/>
       <use x="63.623047" xlink:href="#DejaVuSans-53"/>
       <use x="127.246094" xlink:href="#DejaVuSans-48"/>
      </g>
     </g>
    </g>
    <g id="xtick_21">
     <g id="line2d_44">
      <g>
       <use style="fill:#ffffff;stroke:#ffffff;stroke-width:0.8;" x="398.484634" xlink:href="#m598823fee0" y="534.2"/>
      </g>
     </g>
     <g id="text_44">
      <!-- 300 -->
      <g style="fill:#ffffff;" transform="translate(388.940884 548.798437)scale(0.1 -0.1)">
       <use xlink:href="#DejaVuSans-51"/>
       <use x="63.623047" xlink:href="#DejaVuSans-48"/>
       <use x="127.246094" xlink:href="#DejaVuSans-48"/>
      </g>
     </g>
    </g>
    <g id="text_45">
     <!-- Time -->
     <g style="fill:#ffffff;" transform="translate(233.875 562.476562)scale(0.1 -0.1)">
      <use xlink:href="#DejaVuSans-84"/>
      <use x="61.037109" xlink:href="#DejaVuSans-105"/>
      <use x="88.820312" xlink:href="#DejaVuSans-109"/>
      <use x="186.232422" xlink:href="#DejaVuSans-101"/>
     </g>
    </g>
   </g>
   <g id="matplotlib.axis_6">
    <g id="ytick_19">
     <g id="line2d_45">
      <g>
       <use style="fill:#ffffff;stroke:#ffffff;stroke-width:0.8;" x="62.425" xlink:href="#m42db72685d" y="523.981818"/>
      </g>
     </g>
     <g id="text_46">
      <!-- −1.00 -->
      <g style="fill:#ffffff;" transform="translate(24.779688 527.781037)scale(0.1 -0.1)">
       <use xlink:href="#DejaVuSans-8722"/>
       <use x="83.789062" xlink:href="#DejaVuSans-49"/>
       <use x="147.412109" xlink:href="#DejaVuSans-46"/>
       <use x="179.199219" xlink:href="#DejaVuSans-48"/>
       <use x="242.822266" xlink:href="#DejaVuSans-48"/>
      </g>
     </g>
    </g>
    <g id="ytick_20">
     <g id="line2d_46">
      <g>
       <use style="fill:#ffffff;stroke:#ffffff;stroke-width:0.8;" x="62.425" xlink:href="#m42db72685d" y="498.436364"/>
      </g>
     </g>
     <g id="text_47">
      <!-- −0.75 -->
      <g style="fill:#ffffff;" transform="translate(24.779688 502.235582)scale(0.1 -0.1)">
       <use xlink:href="#DejaVuSans-8722"/>
       <use x="83.789062" xlink:href="#DejaVuSans-48"/>
       <use x="147.412109" xlink:href="#DejaVuSans-46"/>
       <use x="179.199219" xlink:href="#DejaVuSans-55"/>
       <use x="242.822266" xlink:href="#DejaVuSans-53"/>
      </g>
     </g>
    </g>
    <g id="ytick_21">
     <g id="line2d_47">
      <g>
       <use style="fill:#ffffff;stroke:#ffffff;stroke-width:0.8;" x="62.425" xlink:href="#m42db72685d" y="472.890909"/>
      </g>
     </g>
     <g id="text_48">
      <!-- −0.50 -->
      <g style="fill:#ffffff;" transform="translate(24.779688 476.690128)scale(0.1 -0.1)">
       <use xlink:href="#DejaVuSans-8722"/>
       <use x="83.789062" xlink:href="#DejaVuSans-48"/>
       <use x="147.412109" xlink:href="#DejaVuSans-46"/>
       <use x="179.199219" xlink:href="#DejaVuSans-53"/>
       <use x="242.822266" xlink:href="#DejaVuSans-48"/>
      </g>
     </g>
    </g>
    <g id="ytick_22">
     <g id="line2d_48">
      <g>
       <use style="fill:#ffffff;stroke:#ffffff;stroke-width:0.8;" x="62.425" xlink:href="#m42db72685d" y="447.345455"/>
      </g>
     </g>
     <g id="text_49">
      <!-- −0.25 -->
      <g style="fill:#ffffff;" transform="translate(24.779688 451.144673)scale(0.1 -0.1)">
       <use xlink:href="#DejaVuSans-8722"/>
       <use x="83.789062" xlink:href="#DejaVuSans-48"/>
       <use x="147.412109" xlink:href="#DejaVuSans-46"/>
       <use x="179.199219" xlink:href="#DejaVuSans-50"/>
       <use x="242.822266" xlink:href="#DejaVuSans-53"/>
      </g>
     </g>
    </g>
    <g id="ytick_23">
     <g id="line2d_49">
      <g>
       <use style="fill:#ffffff;stroke:#ffffff;stroke-width:0.8;" x="62.425" xlink:href="#m42db72685d" y="421.8"/>
      </g>
     </g>
     <g id="text_50">
      <!-- 0.00 -->
      <g style="fill:#ffffff;" transform="translate(33.159375 425.599219)scale(0.1 -0.1)">
       <use xlink:href="#DejaVuSans-48"/>
       <use x="63.623047" xlink:href="#DejaVuSans-46"/>
       <use x="95.410156" xlink:href="#DejaVuSans-48"/>
       <use x="159.033203" xlink:href="#DejaVuSans-48"/>
      </g>
     </g>
    </g>
    <g id="ytick_24">
     <g id="line2d_50">
      <g>
       <use style="fill:#ffffff;stroke:#ffffff;stroke-width:0.8;" x="62.425" xlink:href="#m42db72685d" y="396.254545"/>
      </g>
     </g>
     <g id="text_51">
      <!-- 0.25 -->
      <g style="fill:#ffffff;" transform="translate(33.159375 400.053764)scale(0.1 -0.1)">
       <use xlink:href="#DejaVuSans-48"/>
       <use x="63.623047" xlink:href="#DejaVuSans-46"/>
       <use x="95.410156" xlink:href="#DejaVuSans-50"/>
       <use x="159.033203" xlink:href="#DejaVuSans-53"/>
      </g>
     </g>
    </g>
    <g id="ytick_25">
     <g id="line2d_51">
      <g>
       <use style="fill:#ffffff;stroke:#ffffff;stroke-width:0.8;" x="62.425" xlink:href="#m42db72685d" y="370.709091"/>
      </g>
     </g>
     <g id="text_52">
      <!-- 0.50 -->
      <g style="fill:#ffffff;" transform="translate(33.159375 374.50831)scale(0.1 -0.1)">
       <use xlink:href="#DejaVuSans-48"/>
       <use x="63.623047" xlink:href="#DejaVuSans-46"/>
       <use x="95.410156" xlink:href="#DejaVuSans-53"/>
       <use x="159.033203" xlink:href="#DejaVuSans-48"/>
      </g>
     </g>
    </g>
    <g id="ytick_26">
     <g id="line2d_52">
      <g>
       <use style="fill:#ffffff;stroke:#ffffff;stroke-width:0.8;" x="62.425" xlink:href="#m42db72685d" y="345.163636"/>
      </g>
     </g>
     <g id="text_53">
      <!-- 0.75 -->
      <g style="fill:#ffffff;" transform="translate(33.159375 348.962855)scale(0.1 -0.1)">
       <use xlink:href="#DejaVuSans-48"/>
       <use x="63.623047" xlink:href="#DejaVuSans-46"/>
       <use x="95.410156" xlink:href="#DejaVuSans-55"/>
       <use x="159.033203" xlink:href="#DejaVuSans-53"/>
      </g>
     </g>
    </g>
    <g id="ytick_27">
     <g id="line2d_53">
      <g>
       <use style="fill:#ffffff;stroke:#ffffff;stroke-width:0.8;" x="62.425" xlink:href="#m42db72685d" y="319.618182"/>
      </g>
     </g>
     <g id="text_54">
      <!-- 1.00 -->
      <g style="fill:#ffffff;" transform="translate(33.159375 323.417401)scale(0.1 -0.1)">
       <use xlink:href="#DejaVuSans-49"/>
       <use x="63.623047" xlink:href="#DejaVuSans-46"/>
       <use x="95.410156" xlink:href="#DejaVuSans-48"/>
       <use x="159.033203" xlink:href="#DejaVuSans-48"/>
      </g>
     </g>
    </g>
    <g id="text_55">
     <!-- Signal -->
     <g style="fill:#ffffff;" transform="translate(18.7 437.159375)rotate(-90)scale(0.1 -0.1)">
      <use xlink:href="#DejaVuSans-83"/>
      <use x="63.476562" xlink:href="#DejaVuSans-105"/>
      <use x="91.259766" xlink:href="#DejaVuSans-103"/>
      <use x="154.736328" xlink:href="#DejaVuSans-110"/>
      <use x="218.115234" xlink:href="#DejaVuSans-97"/>
      <use x="279.394531" xlink:href="#DejaVuSans-108"/>
     </g>
    </g>
   </g>
   <g id="line2d_54">
    <path clip-path="url(#pa1ef1b73e8)" d="M 79.1375 421.8 
L 81.266481 371.1397 
L 82.330971 350.197912 
L 83.395462 334.09609 
L 84.459952 323.778147 
L 85.524443 319.691831 
L 86.588933 321.753457 
L 87.653424 329.35987 
L 88.717914 341.446507 
L 90.846895 373.120826 
L 91.911385 389.311099 
L 92.975876 403.495938 
L 94.040366 414.24229 
L 95.104857 420.47495 
L 96.169347 421.573748 
L 97.233838 417.429588 
L 98.298328 408.454297 
L 99.362818 395.543428 
L 103.62078 333.917719 
L 104.685271 324.295128 
L 105.749761 319.825763 
L 106.814252 321.314249 
L 107.878742 329.0645 
L 108.943232 342.848204 
L 110.007723 361.920587 
L 111.072213 385.082072 
L 115.330175 485.210065 
L 116.394666 503.465755 
L 117.459156 516.273506 
L 118.523646 522.972274 
L 119.588137 523.42343 
L 120.652627 518.018553 
L 121.717118 507.640133 
L 122.781608 493.578748 
L 125.97508 445.661579 
L 127.03957 433.331341 
L 128.104061 425.118144 
L 129.168551 421.840742 
L 130.233041 423.82471 
L 131.297532 430.873037 
L 132.362022 442.283915 
L 133.426513 456.914161 
L 136.619984 504.441878 
L 137.684475 515.866597 
L 138.748965 522.60359 
L 139.813455 523.659978 
L 140.877946 518.517105 
L 141.942436 507.181105 
L 143.006927 490.18688 
L 144.071417 468.555097 
L 146.200398 417.33757 
L 148.329379 367.333562 
L 149.393869 347.120512 
L 150.45836 331.937963 
L 151.52285 322.65082 
L 152.587341 319.618667 
L 153.651831 322.668343 
L 154.716322 331.113848 
L 155.780812 343.821753 
L 160.038774 405.577744 
L 161.103264 415.628946 
L 162.167755 421.028274 
L 163.232245 421.238795 
L 164.296736 416.239606 
L 165.361226 406.52773 
L 166.425717 393.073209 
L 169.619188 344.974775 
L 170.683678 331.987233 
L 171.748169 323.155492 
L 172.812659 319.644564 
L 173.87715 322.179046 
L 174.94164 330.974288 
L 176.006131 345.724635 
L 177.070621 365.602805 
L 179.199602 415.243168 
L 181.328583 466.421262 
L 182.393073 488.10748 
L 183.457564 505.185156 
L 184.522054 516.627224 
L 185.586545 521.90042 
L 186.651035 521.006398 
L 187.715525 514.473828 
L 188.780016 503.302547 
L 189.844506 488.865276 
L 191.973487 456.73953 
L 193.037978 442.390199 
L 194.102468 431.144835 
L 195.166959 424.073358 
L 196.231449 421.804882 
L 197.295939 424.475553 
L 198.36043 431.722798 
L 199.42492 442.725939 
L 201.553901 470.956387 
L 202.618392 485.153587 
L 203.682882 497.334023 
L 204.747373 506.123844 
L 205.811863 510.447983 
L 206.876354 509.627188 
L 207.940844 503.437328 
L 209.005334 492.126115 
L 210.069825 476.386359 
L 211.134315 457.289016 
L 214.327787 393.974446 
L 215.392277 375.799678 
L 216.456768 361.21602 
L 217.521258 351.059838 
L 218.585748 345.770299 
L 219.650239 345.362959 
L 220.714729 349.442504 
L 221.77922 357.252433 
L 222.84371 367.756101 
L 226.037182 403.12378 
L 227.101672 412.263727 
L 228.166162 418.566276 
L 229.230653 421.56346 
L 230.295143 421.137951 
L 231.359634 417.520018 
L 232.424124 411.252211 
L 233.488615 403.126165 
L 235.617596 385.193838 
L 236.682086 377.406259 
L 237.746576 371.605548 
L 238.811067 368.459788 
L 239.875557 368.379172 
L 240.940048 371.48609 
L 242.004538 377.613176 
L 243.069029 386.328391 
L 244.133519 396.983668 
L 247.32699 432.337931 
L 248.391481 442.461945 
L 249.455971 450.600927 
L 250.520462 456.328938 
L 251.584952 459.445303 
L 252.649443 459.979483 
L 253.713933 458.174422 
L 254.778424 454.45108 
L 255.842914 449.358536 
L 259.036385 432.030862 
L 260.100876 427.441356 
L 261.165366 424.117855 
L 262.229857 422.241455 
L 263.294347 421.830943 
L 264.358838 422.754338 
L 265.423328 424.754234 
L 266.487818 427.483496 
L 268.616799 433.545381 
L 269.68129 436.114741 
L 270.74578 437.961181 
L 271.810271 438.884564 
L 272.874761 438.791402 
L 273.939252 437.695907 
L 275.003742 435.710078 
L 276.068232 433.024687 
L 280.326194 420.370889 
L 281.390685 417.932734 
L 282.455175 416.114209 
L 283.519666 414.968193 
L 284.584156 414.481166 
L 285.648646 414.582231 
L 286.713137 415.157228 
L 287.777627 416.065872 
L 290.971099 419.365118 
L 292.035589 420.272371 
L 293.10008 420.969891 
L 294.16457 421.442464 
L 295.229061 421.705595 
L 296.293551 421.79768 
L 298.422532 421.678901 
L 301.616003 421.45282 
L 304.809475 421.604432 
L 308.002946 421.793299 
L 326.099283 421.8 
L 413.3875 421.8 
L 413.3875 421.8 
" style="fill:none;stroke:#8dd3c7;stroke-linecap:square;stroke-width:1.5;"/>
   </g>
   <g id="line2d_55">
    <path clip-path="url(#pa1ef1b73e8)" d="M 79.1375 421.8 
L 180.264092 421.877392 
L 182.393073 422.310269 
L 187.715525 423.916842 
L 188.780016 423.990639 
L 189.844506 423.896547 
L 190.908997 423.634991 
L 193.037978 422.7585 
L 195.166959 421.933212 
L 196.231449 421.800318 
L 197.295939 421.993174 
L 198.36043 422.589933 
L 199.42492 423.629636 
L 200.489411 425.100199 
L 201.553901 426.931176 
L 204.747373 433.035798 
L 205.811863 434.550944 
L 206.876354 435.40811 
L 207.940844 435.398704 
L 209.005334 434.371082 
L 210.069825 432.253267 
L 211.134315 429.069269 
L 212.198806 424.946563 
L 214.327787 414.883447 
L 216.456768 404.770324 
L 217.521258 400.687853 
L 218.585748 397.731279 
L 219.650239 396.155686 
L 220.714729 396.094319 
L 221.77922 397.536698 
L 222.84371 400.320163 
L 223.908201 404.13668 
L 227.101672 417.091825 
L 228.166162 420.116718 
L 229.230653 421.670238 
L 230.295143 421.417395 
L 231.359634 419.195267 
L 232.424124 415.042242 
L 233.488615 409.208721 
L 235.617596 394.48092 
L 236.682086 386.954774 
L 237.746576 380.369467 
L 238.811067 375.507526 
L 239.875557 373.056297 
L 240.940048 373.536 
L 242.004538 377.240115 
L 243.069029 384.194577 
L 244.133519 394.140688 
L 245.19801 406.544521 
L 249.455971 463.095304 
L 250.520462 473.895233 
L 251.584952 481.580693 
L 252.649443 485.633062 
L 253.713933 485.850571 
L 254.778424 482.375592 
L 255.842914 475.689998 
L 256.907404 466.577961 
L 260.100876 435.483216 
L 261.165366 427.741715 
L 262.229857 422.996818 
L 263.294347 421.888783 
L 264.358838 424.700373 
L 265.423328 431.317895 
L 266.487818 441.229028 
L 268.616799 467.140463 
L 269.68129 480.618067 
L 270.74578 492.567463 
L 271.810271 501.629099 
L 272.874761 506.637671 
L 273.939252 506.737181 
L 275.003742 501.470078 
L 276.068232 490.831469 
L 277.132723 475.282551 
L 278.197213 455.721139 
L 282.455175 365.732873 
L 283.519666 348.232289 
L 284.584156 335.446871 
L 285.648646 328.148419 
L 286.713137 326.632236 
L 287.777627 330.68842 
L 288.842118 339.619536 
L 289.906608 352.303535 
L 293.10008 397.644105 
L 294.16457 409.781254 
L 295.229061 418.095282 
L 296.293551 421.692394 
L 297.358041 420.154356 
L 298.422532 413.58148 
L 299.487022 402.587374 
L 300.551513 388.245611 
L 303.744984 340.507473 
L 304.809475 328.682973 
L 305.873965 321.44635 
L 306.938455 319.844668 
L 308.002946 324.449624 
L 309.067436 335.298528 
L 310.131927 351.87361 
L 311.196417 373.183557 
L 313.325398 424.149629 
L 315.454379 474.476702 
L 316.518869 495.039593 
L 317.58336 510.660708 
L 318.64785 520.437457 
L 319.712341 523.968391 
L 320.776831 521.384352 
L 321.841322 513.332326 
L 322.905812 500.913489 
L 325.034793 469.006902 
L 326.099283 452.929454 
L 327.163774 438.995572 
L 328.228264 428.611463 
L 329.292755 422.815424 
L 330.357245 422.183996 
L 331.421736 426.779869 
L 332.486226 436.146222 
L 333.550717 449.34799 
L 337.808678 510.712852 
L 338.873169 519.923383 
L 339.937659 523.890932 
L 341.00215 521.852744 
L 342.06664 513.551428 
L 343.131131 499.262339 
L 344.195621 479.77364 
L 346.324602 430.481155 
L 348.453583 378.828435 
L 349.518073 356.580365 
L 350.582564 338.767636 
L 351.647054 326.481349 
L 352.711545 320.337837 
L 353.776035 320.428415 
L 354.840525 326.315791 
L 355.905016 337.077423 
L 356.969506 351.391884 
L 360.162978 399.166607 
L 361.227468 411.176915 
L 362.291959 418.979428 
L 363.356449 421.796678 
L 364.420939 419.348843 
L 365.48543 411.879027 
L 366.54992 400.131297 
L 367.614411 385.283453 
L 369.743392 352.498586 
L 370.807882 337.990905 
L 371.872373 326.930455 
L 372.936863 320.662631 
L 374.001354 320.141503 
L 375.065844 325.840654 
L 376.130334 337.706611 
L 377.194825 355.159068 
L 378.259315 377.137929 
L 382.517277 478.227775 
L 383.581768 498.042248 
L 384.646258 512.730845 
L 385.710748 521.471094 
L 386.775239 523.95015 
L 387.839729 520.38806 
L 388.90422 511.5137 
L 389.96871 498.49556 
L 394.226672 436.967789 
L 395.291162 427.294147 
L 396.355653 422.339788 
L 397.420143 422.597264 
L 398.484634 428.041014 
L 399.549124 438.129667 
L 400.613615 451.854961 
L 403.807086 499.905759 
L 404.871576 512.581888 
L 405.936067 520.983863 
L 407.000557 523.981818 
L 408.065048 520.894085 
L 409.129538 511.552217 
L 410.194029 496.320476 
L 411.258519 476.067993 
L 413.3875 426.026867 
L 413.3875 426.026867 
" style="fill:none;stroke:#feffb3;stroke-linecap:square;stroke-width:1.5;"/>
   </g>
   <g id="line2d_56">
    <path clip-path="url(#pa1ef1b73e8)" d="M 79.1375 319.618182 
L 177.070621 319.682032 
L 180.264092 320.01681 
L 183.457564 320.636598 
L 186.651035 321.537913 
L 189.844506 322.715685 
L 193.037978 324.163294 
L 196.231449 325.8726 
L 199.42492 327.833993 
L 202.618392 330.036446 
L 205.811863 332.467575 
L 210.069825 336.040999 
L 214.327787 339.960814 
L 218.585748 344.187857 
L 223.908201 349.839096 
L 229.230653 355.816005 
L 236.682086 364.552495 
L 254.778424 386.01253 
L 260.100876 391.970411 
L 265.423328 397.596516 
L 269.68129 401.799315 
L 273.939252 405.691471 
L 278.197213 409.234094 
L 281.390685 411.640247 
L 284.584156 413.816269 
L 287.777627 415.749927 
L 290.971099 417.430349 
L 294.16457 418.848087 
L 297.358041 419.99517 
L 300.551513 420.865149 
L 303.744984 421.453132 
L 306.938455 421.755814 
L 311.196417 421.8 
L 413.3875 421.8 
L 413.3875 421.8 
" style="fill:none;stroke:#bfbbd9;stroke-linecap:square;stroke-width:1.5;"/>
   </g>
   <g id="line2d_57">
    <path clip-path="url(#pa1ef1b73e8)" d="M 79.1375 421.8 
L 177.070621 421.73615 
L 180.264092 421.401372 
L 183.457564 420.781583 
L 186.651035 419.880269 
L 189.844506 418.702497 
L 193.037978 417.254888 
L 196.231449 415.545582 
L 199.42492 413.584189 
L 202.618392 411.381736 
L 205.811863 408.950607 
L 210.069825 405.377183 
L 214.327787 401.457367 
L 218.585748 397.230325 
L 223.908201 391.579086 
L 229.230653 385.602177 
L 236.682086 376.865687 
L 254.778424 355.405652 
L 260.100876 349.447771 
L 265.423328 343.821665 
L 269.68129 339.618866 
L 273.939252 335.726711 
L 278.197213 332.184087 
L 281.390685 329.777935 
L 284.584156 327.601913 
L 287.777627 325.668255 
L 290.971099 323.987833 
L 294.16457 322.570095 
L 297.358041 321.423012 
L 300.551513 320.553033 
L 303.744984 319.96505 
L 306.938455 319.662368 
L 311.196417 319.618182 
L 413.3875 319.618182 
L 413.3875 319.618182 
" style="fill:none;stroke:#fa8174;stroke-linecap:square;stroke-width:1.5;"/>
   </g>
   <g id="patch_13">
    <path d="M 62.425 534.2 
L 62.425 309.4 
" style="fill:none;stroke:#ffffff;stroke-linecap:square;stroke-linejoin:miter;stroke-width:0.8;"/>
   </g>
   <g id="patch_14">
    <path d="M 430.1 534.2 
L 430.1 309.4 
" style="fill:none;stroke:#ffffff;stroke-linecap:square;stroke-linejoin:miter;stroke-width:0.8;"/>
   </g>
   <g id="patch_15">
    <path d="M 62.425 534.2 
L 430.1 534.2 
" style="fill:none;stroke:#ffffff;stroke-linecap:square;stroke-linejoin:miter;stroke-width:0.8;"/>
   </g>
   <g id="patch_16">
    <path d="M 62.425 309.4 
L 430.1 309.4 
" style="fill:none;stroke:#ffffff;stroke-linecap:square;stroke-linejoin:miter;stroke-width:0.8;"/>
   </g>
   <g id="text_56">
    <!-- Individual waves (overlap maximized) -->
    <defs>
     <path d="M 30.609375 48.390625 
Q 23.390625 48.390625 19.1875 42.75 
Q 14.984375 37.109375 14.984375 27.296875 
Q 14.984375 17.484375 19.15625 11.84375 
Q 23.34375 6.203125 30.609375 6.203125 
Q 37.796875 6.203125 41.984375 11.859375 
Q 46.1875 17.53125 46.1875 27.296875 
Q 46.1875 37.015625 41.984375 42.703125 
Q 37.796875 48.390625 30.609375 48.390625 
z
M 30.609375 56 
Q 42.328125 56 49.015625 48.375 
Q 55.71875 40.765625 55.71875 27.296875 
Q 55.71875 13.875 49.015625 6.21875 
Q 42.328125 -1.421875 30.609375 -1.421875 
Q 18.84375 -1.421875 12.171875 6.21875 
Q 5.515625 13.875 5.515625 27.296875 
Q 5.515625 40.765625 12.171875 48.375 
Q 18.84375 56 30.609375 56 
z
" id="DejaVuSans-111"/>
     <path d="M 41.109375 46.296875 
Q 39.59375 47.171875 37.8125 47.578125 
Q 36.03125 48 33.890625 48 
Q 26.265625 48 22.1875 43.046875 
Q 18.109375 38.09375 18.109375 28.8125 
L 18.109375 0 
L 9.078125 0 
L 9.078125 54.6875 
L 18.109375 54.6875 
L 18.109375 46.1875 
Q 20.953125 51.171875 25.484375 53.578125 
Q 30.03125 56 36.53125 56 
Q 37.453125 56 38.578125 55.875 
Q 39.703125 55.765625 41.0625 55.515625 
z
" id="DejaVuSans-114"/>
     <path d="M 54.890625 54.6875 
L 35.109375 28.078125 
L 55.90625 0 
L 45.3125 0 
L 29.390625 21.484375 
L 13.484375 0 
L 2.875 0 
L 24.125 28.609375 
L 4.6875 54.6875 
L 15.28125 54.6875 
L 29.78125 35.203125 
L 44.28125 54.6875 
z
" id="DejaVuSans-120"/>
     <path d="M 5.515625 54.6875 
L 48.1875 54.6875 
L 48.1875 46.484375 
L 14.40625 7.171875 
L 48.1875 7.171875 
L 48.1875 0 
L 4.296875 0 
L 4.296875 8.203125 
L 38.09375 47.515625 
L 5.515625 47.515625 
z
" id="DejaVuSans-122"/>
    </defs>
    <g style="fill:#ffffff;" transform="translate(132.25125 303.4)scale(0.12 -0.12)">
     <use xlink:href="#DejaVuSans-73"/>
     <use x="29.492188" xlink:href="#DejaVuSans-110"/>
     <use x="92.871094" xlink:href="#DejaVuSans-100"/>
     <use x="156.347656" xlink:href="#DejaVuSans-105"/>
     <use x="184.130859" xlink:href="#DejaVuSans-118"/>
     <use x="243.310547" xlink:href="#DejaVuSans-105"/>
     <use x="271.09375" xlink:href="#DejaVuSans-100"/>
     <use x="334.570312" xlink:href="#DejaVuSans-117"/>
     <use x="397.949219" xlink:href="#DejaVuSans-97"/>
     <use x="459.228516" xlink:href="#DejaVuSans-108"/>
     <use x="487.011719" xlink:href="#DejaVuSans-32"/>
     <use x="518.798828" xlink:href="#DejaVuSans-119"/>
     <use x="600.585938" xlink:href="#DejaVuSans-97"/>
     <use x="661.865234" xlink:href="#DejaVuSans-118"/>
     <use x="721.044922" xlink:href="#DejaVuSans-101"/>
     <use x="782.568359" xlink:href="#DejaVuSans-115"/>
     <use x="834.667969" xlink:href="#DejaVuSans-32"/>
     <use x="866.455078" xlink:href="#DejaVuSans-40"/>
     <use x="905.46875" xlink:href="#DejaVuSans-111"/>
     <use x="966.650391" xlink:href="#DejaVuSans-118"/>
     <use x="1025.830078" xlink:href="#DejaVuSans-101"/>
     <use x="1087.353516" xlink:href="#DejaVuSans-114"/>
     <use x="1128.466797" xlink:href="#DejaVuSans-108"/>
     <use x="1156.25" xlink:href="#DejaVuSans-97"/>
     <use x="1217.529297" xlink:href="#DejaVuSans-112"/>
     <use x="1281.005859" xlink:href="#DejaVuSans-32"/>
     <use x="1312.792969" xlink:href="#DejaVuSans-109"/>
     <use x="1410.205078" xlink:href="#DejaVuSans-97"/>
     <use x="1471.484375" xlink:href="#DejaVuSans-120"/>
     <use x="1530.664062" xlink:href="#DejaVuSans-105"/>
     <use x="1558.447266" xlink:href="#DejaVuSans-109"/>
     <use x="1655.859375" xlink:href="#DejaVuSans-105"/>
     <use x="1683.642578" xlink:href="#DejaVuSans-122"/>
     <use x="1736.132812" xlink:href="#DejaVuSans-101"/>
     <use x="1797.65625" xlink:href="#DejaVuSans-100"/>
     <use x="1861.132812" xlink:href="#DejaVuSans-41"/>
    </g>
   </g>
  </g>
  <g id="axes_4">
   <g id="patch_17">
    <path d="M 482.025 534.2 
L 849.7 534.2 
L 849.7 309.4 
L 482.025 309.4 
z
"/>
   </g>
   <g id="matplotlib.axis_7">
    <g id="xtick_22">
     <g id="line2d_58">
      <g>
       <use style="fill:#ffffff;stroke:#ffffff;stroke-width:0.8;" x="498.7375" xlink:href="#m598823fee0" y="534.2"/>
      </g>
     </g>
     <g id="text_57">
      <!-- 0 -->
      <g style="fill:#ffffff;" transform="translate(495.55625 548.798437)scale(0.1 -0.1)">
       <use xlink:href="#DejaVuSans-48"/>
      </g>
     </g>
    </g>
    <g id="xtick_23">
     <g id="line2d_59">
      <g>
       <use style="fill:#ffffff;stroke:#ffffff;stroke-width:0.8;" x="551.962022" xlink:href="#m598823fee0" y="534.2"/>
      </g>
     </g>
     <g id="text_58">
      <!-- 50 -->
      <g style="fill:#ffffff;" transform="translate(545.599522 548.798437)scale(0.1 -0.1)">
       <use xlink:href="#DejaVuSans-53"/>
       <use x="63.623047" xlink:href="#DejaVuSans-48"/>
      </g>
     </g>
    </g>
    <g id="xtick_24">
     <g id="line2d_60">
      <g>
       <use style="fill:#ffffff;stroke:#ffffff;stroke-width:0.8;" x="605.186545" xlink:href="#m598823fee0" y="534.2"/>
      </g>
     </g>
     <g id="text_59">
      <!-- 100 -->
      <g style="fill:#ffffff;" transform="translate(595.642795 548.798437)scale(0.1 -0.1)">
       <use xlink:href="#DejaVuSans-49"/>
       <use x="63.623047" xlink:href="#DejaVuSans-48"/>
       <use x="127.246094" xlink:href="#DejaVuSans-48"/>
      </g>
     </g>
    </g>
    <g id="xtick_25">
     <g id="line2d_61">
      <g>
       <use style="fill:#ffffff;stroke:#ffffff;stroke-width:0.8;" x="658.411067" xlink:href="#m598823fee0" y="534.2"/>
      </g>
     </g>
     <g id="text_60">
      <!-- 150 -->
      <g style="fill:#ffffff;" transform="translate(648.867317 548.798437)scale(0.1 -0.1)">
       <use xlink:href="#DejaVuSans-49"/>
       <use x="63.623047" xlink:href="#DejaVuSans-53"/>
       <use x="127.246094" xlink:href="#DejaVuSans-48"/>
      </g>
     </g>
    </g>
    <g id="xtick_26">
     <g id="line2d_62">
      <g>
       <use style="fill:#ffffff;stroke:#ffffff;stroke-width:0.8;" x="711.635589" xlink:href="#m598823fee0" y="534.2"/>
      </g>
     </g>
     <g id="text_61">
      <!-- 200 -->
      <g style="fill:#ffffff;" transform="translate(702.091839 548.798437)scale(0.1 -0.1)">
       <use xlink:href="#DejaVuSans-50"/>
       <use x="63.623047" xlink:href="#DejaVuSans-48"/>
       <use x="127.246094" xlink:href="#DejaVuSans-48"/>
      </g>
     </g>
    </g>
    <g id="xtick_27">
     <g id="line2d_63">
      <g>
       <use style="fill:#ffffff;stroke:#ffffff;stroke-width:0.8;" x="764.860111" xlink:href="#m598823fee0" y="534.2"/>
      </g>
     </g>
     <g id="text_62">
      <!-- 250 -->
      <g style="fill:#ffffff;" transform="translate(755.316361 548.798437)scale(0.1 -0.1)">
       <use xlink:href="#DejaVuSans-50"/>
       <use x="63.623047" xlink:href="#DejaVuSans-53"/>
       <use x="127.246094" xlink:href="#DejaVuSans-48"/>
      </g>
     </g>
    </g>
    <g id="xtick_28">
     <g id="line2d_64">
      <g>
       <use style="fill:#ffffff;stroke:#ffffff;stroke-width:0.8;" x="818.084634" xlink:href="#m598823fee0" y="534.2"/>
      </g>
     </g>
     <g id="text_63">
      <!-- 300 -->
      <g style="fill:#ffffff;" transform="translate(808.540884 548.798437)scale(0.1 -0.1)">
       <use xlink:href="#DejaVuSans-51"/>
       <use x="63.623047" xlink:href="#DejaVuSans-48"/>
       <use x="127.246094" xlink:href="#DejaVuSans-48"/>
      </g>
     </g>
    </g>
    <g id="text_64">
     <!-- Time -->
     <g style="fill:#ffffff;" transform="translate(653.475 562.476562)scale(0.1 -0.1)">
      <use xlink:href="#DejaVuSans-84"/>
      <use x="61.037109" xlink:href="#DejaVuSans-105"/>
      <use x="88.820312" xlink:href="#DejaVuSans-109"/>
      <use x="186.232422" xlink:href="#DejaVuSans-101"/>
     </g>
    </g>
   </g>
   <g id="matplotlib.axis_8">
    <g id="ytick_28">
     <g id="line2d_65">
      <g>
       <use style="fill:#ffffff;stroke:#ffffff;stroke-width:0.8;" x="482.025" xlink:href="#m42db72685d" y="523.981818"/>
      </g>
     </g>
     <g id="text_65">
      <!-- −1.00 -->
      <g style="fill:#ffffff;" transform="translate(444.379688 527.781037)scale(0.1 -0.1)">
       <use xlink:href="#DejaVuSans-8722"/>
       <use x="83.789062" xlink:href="#DejaVuSans-49"/>
       <use x="147.412109" xlink:href="#DejaVuSans-46"/>
       <use x="179.199219" xlink:href="#DejaVuSans-48"/>
       <use x="242.822266" xlink:href="#DejaVuSans-48"/>
      </g>
     </g>
    </g>
    <g id="ytick_29">
     <g id="line2d_66">
      <g>
       <use style="fill:#ffffff;stroke:#ffffff;stroke-width:0.8;" x="482.025" xlink:href="#m42db72685d" y="498.436303"/>
      </g>
     </g>
     <g id="text_66">
      <!-- −0.75 -->
      <g style="fill:#ffffff;" transform="translate(444.379688 502.235522)scale(0.1 -0.1)">
       <use xlink:href="#DejaVuSans-8722"/>
       <use x="83.789062" xlink:href="#DejaVuSans-48"/>
       <use x="147.412109" xlink:href="#DejaVuSans-46"/>
       <use x="179.199219" xlink:href="#DejaVuSans-55"/>
       <use x="242.822266" xlink:href="#DejaVuSans-53"/>
      </g>
     </g>
    </g>
    <g id="ytick_30">
     <g id="line2d_67">
      <g>
       <use style="fill:#ffffff;stroke:#ffffff;stroke-width:0.8;" x="482.025" xlink:href="#m42db72685d" y="472.890788"/>
      </g>
     </g>
     <g id="text_67">
      <!-- −0.50 -->
      <g style="fill:#ffffff;" transform="translate(444.379688 476.690007)scale(0.1 -0.1)">
       <use xlink:href="#DejaVuSans-8722"/>
       <use x="83.789062" xlink:href="#DejaVuSans-48"/>
       <use x="147.412109" xlink:href="#DejaVuSans-46"/>
       <use x="179.199219" xlink:href="#DejaVuSans-53"/>
       <use x="242.822266" xlink:href="#DejaVuSans-48"/>
      </g>
     </g>
    </g>
    <g id="ytick_31">
     <g id="line2d_68">
      <g>
       <use style="fill:#ffffff;stroke:#ffffff;stroke-width:0.8;" x="482.025" xlink:href="#m42db72685d" y="447.345273"/>
      </g>
     </g>
     <g id="text_68">
      <!-- −0.25 -->
      <g style="fill:#ffffff;" transform="translate(444.379688 451.144491)scale(0.1 -0.1)">
       <use xlink:href="#DejaVuSans-8722"/>
       <use x="83.789062" xlink:href="#DejaVuSans-48"/>
       <use x="147.412109" xlink:href="#DejaVuSans-46"/>
       <use x="179.199219" xlink:href="#DejaVuSans-50"/>
       <use x="242.822266" xlink:href="#DejaVuSans-53"/>
      </g>
     </g>
    </g>
    <g id="ytick_32">
     <g id="line2d_69">
      <g>
       <use style="fill:#ffffff;stroke:#ffffff;stroke-width:0.8;" x="482.025" xlink:href="#m42db72685d" y="421.799758"/>
      </g>
     </g>
     <g id="text_69">
      <!-- 0.00 -->
      <g style="fill:#ffffff;" transform="translate(452.759375 425.598976)scale(0.1 -0.1)">
       <use xlink:href="#DejaVuSans-48"/>
       <use x="63.623047" xlink:href="#DejaVuSans-46"/>
       <use x="95.410156" xlink:href="#DejaVuSans-48"/>
       <use x="159.033203" xlink:href="#DejaVuSans-48"/>
      </g>
     </g>
    </g>
    <g id="ytick_33">
     <g id="line2d_70">
      <g>
       <use style="fill:#ffffff;stroke:#ffffff;stroke-width:0.8;" x="482.025" xlink:href="#m42db72685d" y="396.254242"/>
      </g>
     </g>
     <g id="text_70">
      <!-- 0.25 -->
      <g style="fill:#ffffff;" transform="translate(452.759375 400.053461)scale(0.1 -0.1)">
       <use xlink:href="#DejaVuSans-48"/>
       <use x="63.623047" xlink:href="#DejaVuSans-46"/>
       <use x="95.410156" xlink:href="#DejaVuSans-50"/>
       <use x="159.033203" xlink:href="#DejaVuSans-53"/>
      </g>
     </g>
    </g>
    <g id="ytick_34">
     <g id="line2d_71">
      <g>
       <use style="fill:#ffffff;stroke:#ffffff;stroke-width:0.8;" x="482.025" xlink:href="#m42db72685d" y="370.708727"/>
      </g>
     </g>
     <g id="text_71">
      <!-- 0.50 -->
      <g style="fill:#ffffff;" transform="translate(452.759375 374.507946)scale(0.1 -0.1)">
       <use xlink:href="#DejaVuSans-48"/>
       <use x="63.623047" xlink:href="#DejaVuSans-46"/>
       <use x="95.410156" xlink:href="#DejaVuSans-53"/>
       <use x="159.033203" xlink:href="#DejaVuSans-48"/>
      </g>
     </g>
    </g>
    <g id="ytick_35">
     <g id="line2d_72">
      <g>
       <use style="fill:#ffffff;stroke:#ffffff;stroke-width:0.8;" x="482.025" xlink:href="#m42db72685d" y="345.163212"/>
      </g>
     </g>
     <g id="text_72">
      <!-- 0.75 -->
      <g style="fill:#ffffff;" transform="translate(452.759375 348.962431)scale(0.1 -0.1)">
       <use xlink:href="#DejaVuSans-48"/>
       <use x="63.623047" xlink:href="#DejaVuSans-46"/>
       <use x="95.410156" xlink:href="#DejaVuSans-55"/>
       <use x="159.033203" xlink:href="#DejaVuSans-53"/>
      </g>
     </g>
    </g>
    <g id="ytick_36">
     <g id="line2d_73">
      <g>
       <use style="fill:#ffffff;stroke:#ffffff;stroke-width:0.8;" x="482.025" xlink:href="#m42db72685d" y="319.617697"/>
      </g>
     </g>
     <g id="text_73">
      <!-- 1.00 -->
      <g style="fill:#ffffff;" transform="translate(452.759375 323.416916)scale(0.1 -0.1)">
       <use xlink:href="#DejaVuSans-49"/>
       <use x="63.623047" xlink:href="#DejaVuSans-46"/>
       <use x="95.410156" xlink:href="#DejaVuSans-48"/>
       <use x="159.033203" xlink:href="#DejaVuSans-48"/>
      </g>
     </g>
    </g>
   </g>
   <g id="line2d_74">
    <path clip-path="url(#p46ebd75540)" d="M 498.7375 421.799758 
L 500.866481 371.139337 
L 501.930971 350.1975 
L 502.995462 334.095639 
L 504.059952 323.777672 
L 505.124443 319.691346 
L 506.188933 321.752977 
L 507.253424 329.359408 
L 508.317914 341.446074 
L 510.446895 373.120468 
L 511.511385 389.31078 
L 512.575876 403.495652 
L 513.640366 414.24203 
L 514.704857 420.474704 
L 515.769347 421.573505 
L 516.833838 417.429335 
L 517.898328 408.454023 
L 518.962818 395.543123 
L 523.22078 333.917268 
L 524.285271 324.294654 
L 525.349761 319.825278 
L 526.414252 321.313768 
L 527.478742 329.064037 
L 528.543232 342.847774 
L 529.607723 361.920202 
L 530.672213 385.081742 
L 534.930175 485.209973 
L 535.994666 503.465707 
L 537.059156 516.273488 
L 538.123646 522.972271 
L 539.188137 523.423429 
L 540.252627 518.018539 
L 541.317118 507.640094 
L 542.381608 493.578676 
L 545.57508 445.661393 
L 546.63957 433.331126 
L 547.704061 425.11791 
L 548.768551 421.8405 
L 549.833041 423.824473 
L 550.897532 430.872816 
L 551.962022 442.283722 
L 553.026513 456.914001 
L 556.219984 504.441831 
L 557.284475 515.866578 
L 558.348965 522.603586 
L 559.413455 523.659977 
L 560.477946 518.517092 
L 561.542436 507.181065 
L 562.606927 490.186799 
L 563.671417 468.554965 
L 565.800398 417.337317 
L 567.929379 367.333191 
L 568.993869 347.120092 
L 570.05836 331.937507 
L 571.12285 322.650342 
L 572.187341 319.618182 
L 573.251831 322.667865 
L 574.316322 331.11339 
L 575.380812 343.821325 
L 579.638774 405.577463 
L 580.703264 415.628689 
L 581.767755 421.02803 
L 582.832245 421.238551 
L 583.896736 416.239351 
L 584.961226 406.527452 
L 586.025717 393.072898 
L 589.219188 344.97435 
L 590.283678 331.986777 
L 591.348169 323.155015 
L 592.412659 319.644079 
L 593.47715 322.178567 
L 594.54164 330.97383 
L 595.606131 345.712323 
L 596.670621 365.567292 
L 598.799602 415.226491 
L 600.928583 466.673065 
L 601.993073 488.617665 
L 603.057564 506.024556 
L 604.122054 517.837566 
L 605.186545 523.480926 
L 606.251035 522.905913 
L 607.315525 516.590652 
L 608.380016 505.493142 
L 609.444506 490.961744 
L 612.637978 443.348508 
L 613.702468 431.634135 
L 614.766959 424.206334 
L 615.831449 421.804957 
L 616.895939 424.668491 
L 617.96043 432.512514 
L 619.02492 444.555386 
L 621.153901 476.087449 
L 622.218392 492.346285 
L 623.282882 506.635954 
L 624.347373 517.359626 
L 625.411863 523.198926 
L 626.476354 523.235295 
L 627.540844 517.036016 
L 628.605334 504.697151 
L 629.669825 486.839538 
L 630.734315 464.558143 
L 634.992277 363.633325 
L 636.056768 344.185917 
L 637.121258 329.94723 
L 638.185748 321.701097 
L 639.250239 319.71816 
L 640.314729 323.736348 
L 641.37922 332.988678 
L 642.44371 346.275842 
L 645.637182 394.382196 
L 646.701672 407.555276 
L 647.766162 416.882739 
L 648.830653 421.433455 
L 649.895143 420.7551 
L 650.959634 414.915026 
L 652.024124 404.494169 
L 653.088615 390.534569 
L 656.282086 342.560602 
L 657.346576 330.174555 
L 658.411067 322.166835 
L 659.475557 319.634985 
L 660.540048 323.221614 
L 661.604538 333.052838 
L 662.669029 348.722553 
L 663.733519 369.323988 
L 665.8625 419.68585 
L 667.991481 470.622606 
L 669.055971 491.896155 
L 670.120462 508.424134 
L 671.184952 519.225985 
L 672.249443 523.812545 
L 673.313933 522.224989 
L 674.378424 515.026651 
L 675.442914 503.248485 
L 677.571895 471.805977 
L 678.636385 455.525363 
L 679.700876 441.124376 
L 680.765366 430.059346 
L 681.829857 423.438034 
L 682.894347 421.919484 
L 683.958838 425.654478 
L 685.023328 434.271916 
L 686.087818 446.912341 
L 688.216799 478.885737 
L 689.28129 494.932739 
L 690.34578 508.728608 
L 691.410271 518.713651 
L 692.474761 523.629071 
L 693.539252 522.633086 
L 694.603742 515.380136 
L 695.668232 502.056104 
L 696.732723 483.366318 
L 697.797213 460.477396 
L 702.055175 360.046692 
L 703.119666 341.400049 
L 704.184156 328.127572 
L 705.248646 320.930168 
L 706.313137 319.98898 
L 707.377627 324.953819 
L 708.442118 334.978789 
L 709.506608 348.801862 
L 712.70008 396.813694 
L 713.76457 409.423446 
L 714.829061 418.000625 
L 715.893551 421.689831 
L 716.958041 420.12452 
L 718.022532 413.460119 
L 719.087022 402.359985 
L 720.151513 387.935468 
L 723.344984 340.230141 
L 724.409475 328.486941 
L 725.473965 321.33453 
L 726.538455 319.800077 
L 727.602946 324.44245 
L 728.667436 335.29808 
L 729.731927 351.873202 
L 730.796417 373.183199 
L 732.925398 424.149392 
L 735.054379 474.476584 
L 736.118869 495.039524 
L 737.18336 510.660677 
L 738.24785 520.437449 
L 739.312341 523.968391 
L 740.376831 521.384346 
L 741.441322 513.332301 
L 742.505812 500.913435 
L 744.634793 469.006771 
L 745.699283 452.929285 
L 746.763774 438.995371 
L 747.828264 428.611236 
L 748.892755 422.815184 
L 749.957245 422.183755 
L 751.021736 426.779639 
L 752.086226 436.146013 
L 753.150717 449.347813 
L 757.408678 510.712821 
L 758.473169 519.923374 
L 759.537659 523.890932 
L 760.60215 521.852739 
L 761.66664 513.551403 
L 762.731131 499.262281 
L 763.795621 479.773535 
L 765.924602 430.480933 
L 768.053583 378.828091 
L 769.118073 356.579968 
L 770.182564 338.767196 
L 771.247054 326.48088 
L 772.311545 320.337354 
L 773.376035 320.427932 
L 774.440525 326.315322 
L 775.505016 337.07698 
L 776.569506 351.391475 
L 779.762978 399.166311 
L 780.827468 411.176648 
L 781.891959 418.979179 
L 782.956449 421.796435 
L 784.020939 419.348595 
L 785.08543 411.878761 
L 786.14992 400.131003 
L 787.214411 385.283123 
L 789.343392 352.498179 
L 790.407882 337.990463 
L 791.472373 326.929987 
L 792.536863 320.662149 
L 793.601354 320.141019 
L 794.665844 325.840184 
L 795.730334 337.706169 
L 796.794825 355.158667 
L 797.859315 377.137581 
L 802.117277 478.227667 
L 803.181768 498.042187 
L 804.246258 512.730818 
L 805.310748 521.471088 
L 806.375239 523.95015 
L 807.439729 520.388052 
L 808.50422 511.513671 
L 809.56871 498.495499 
L 813.826672 436.967582 
L 814.891162 427.293917 
L 815.955653 422.339547 
L 817.020143 422.597024 
L 818.084634 428.040786 
L 819.149124 438.129464 
L 820.213615 451.85479 
L 823.407086 499.905702 
L 824.471576 512.581861 
L 825.536067 520.983856 
L 826.600557 523.981818 
L 827.665048 520.894078 
L 828.729538 511.552187 
L 829.794029 496.32041 
L 830.858519 476.067879 
L 832.9875 426.026634 
L 832.9875 426.026634 
" style="fill:none;stroke:#8dd3c7;stroke-linecap:square;stroke-width:1.5;"/>
   </g>
   <g id="patch_18">
    <path d="M 482.025 534.2 
L 482.025 309.4 
" style="fill:none;stroke:#ffffff;stroke-linecap:square;stroke-linejoin:miter;stroke-width:0.8;"/>
   </g>
   <g id="patch_19">
    <path d="M 849.7 534.2 
L 849.7 309.4 
" style="fill:none;stroke:#ffffff;stroke-linecap:square;stroke-linejoin:miter;stroke-width:0.8;"/>
   </g>
   <g id="patch_20">
    <path d="M 482.025 534.2 
L 849.7 534.2 
" style="fill:none;stroke:#ffffff;stroke-linecap:square;stroke-linejoin:miter;stroke-width:0.8;"/>
   </g>
   <g id="patch_21">
    <path d="M 482.025 309.4 
L 849.7 309.4 
" style="fill:none;stroke:#ffffff;stroke-linecap:square;stroke-linejoin:miter;stroke-width:0.8;"/>
   </g>
   <g id="text_74">
    <!-- Output signal -->
    <g style="fill:#ffffff;" transform="translate(625.36625 303.4)scale(0.12 -0.12)">
     <use xlink:href="#DejaVuSans-79"/>
     <use x="78.710938" xlink:href="#DejaVuSans-117"/>
     <use x="142.089844" xlink:href="#DejaVuSans-116"/>
     <use x="181.298828" xlink:href="#DejaVuSans-112"/>
     <use x="244.775391" xlink:href="#DejaVuSans-117"/>
     <use x="308.154297" xlink:href="#DejaVuSans-116"/>
     <use x="347.363281" xlink:href="#DejaVuSans-32"/>
     <use x="379.150391" xlink:href="#DejaVuSans-115"/>
     <use x="431.25" xlink:href="#DejaVuSans-105"/>
     <use x="459.033203" xlink:href="#DejaVuSans-103"/>
     <use x="522.509766" xlink:href="#DejaVuSans-110"/>
     <use x="585.888672" xlink:href="#DejaVuSans-97"/>
     <use x="647.167969" xlink:href="#DejaVuSans-108"/>
    </g>
   </g>
  </g>
 </g>
 <defs>
  <clipPath id="p7497326a59">
   <rect height="224.8" width="367.675" x="62.425" y="26.8"/>
  </clipPath>
  <clipPath id="pa807213d64">
   <rect height="224.8" width="367.675" x="482.025" y="26.8"/>
  </clipPath>
  <clipPath id="pa1ef1b73e8">
   <rect height="224.8" width="367.675" x="62.425" y="309.4"/>
  </clipPath>
  <clipPath id="p46ebd75540">
   <rect height="224.8" width="367.675" x="482.025" y="309.4"/>
  </clipPath>
 </defs>
</svg>
