<?xml version="1.0" encoding="utf-8" standalone="no"?>
<!DOCTYPE svg PUBLIC "-//W3C//DTD SVG 1.1//EN"
  "http://www.w3.org/Graphics/SVG/1.1/DTD/svg11.dtd">
<!-- Created with matplotlib (https://matplotlib.org/) -->
<svg height="288pt" version="1.1" viewBox="0 0 720 288" width="720pt" xmlns="http://www.w3.org/2000/svg" xmlns:xlink="http://www.w3.org/1999/xlink">
 <defs>
  <style type="text/css">
*{stroke-linecap:butt;stroke-linejoin:round;}
  </style>
 </defs>
 <g id="figure_1">
  <g id="patch_1">
   <path d="M 0 288 
L 720 288 
L 720 0 
L 0 0 
z
" style="fill:none;opacity:0;"/>
  </g>
  <g id="axes_1">
   <g id="patch_2">
    <path d="M 90 252 
L 343.636364 252 
L 343.636364 34.56 
L 90 34.56 
z
"/>
   </g>
   <g id="matplotlib.axis_1">
    <g id="xtick_1">
     <g id="line2d_1">
      <defs>
       <path d="M 0 0 
L 0 3.5 
" id="m81d7be69a6" style="stroke:#ffffff;stroke-width:0.8;"/>
      </defs>
      <g>
       <use style="fill:#ffffff;stroke:#ffffff;stroke-width:0.8;" x="129.542987" xlink:href="#m81d7be69a6" y="252"/>
      </g>
     </g>
     <g id="text_1">
      <!-- $\mathdefault{10^{2}}$ -->
      <defs>
       <path d="M 12.40625 8.296875 
L 28.515625 8.296875 
L 28.515625 63.921875 
L 10.984375 60.40625 
L 10.984375 69.390625 
L 28.421875 72.90625 
L 38.28125 72.90625 
L 38.28125 8.296875 
L 54.390625 8.296875 
L 54.390625 0 
L 12.40625 0 
z
" id="DejaVuSans-49"/>
       <path d="M 31.78125 66.40625 
Q 24.171875 66.40625 20.328125 58.90625 
Q 16.5 51.421875 16.5 36.375 
Q 16.5 21.390625 20.328125 13.890625 
Q 24.171875 6.390625 31.78125 6.390625 
Q 39.453125 6.390625 43.28125 13.890625 
Q 47.125 21.390625 47.125 36.375 
Q 47.125 51.421875 43.28125 58.90625 
Q 39.453125 66.40625 31.78125 66.40625 
z
M 31.78125 74.21875 
Q 44.046875 74.21875 50.515625 64.515625 
Q 56.984375 54.828125 56.984375 36.375 
Q 56.984375 17.96875 50.515625 8.265625 
Q 44.046875 -1.421875 31.78125 -1.421875 
Q 19.53125 -1.421875 13.0625 8.265625 
Q 6.59375 17.96875 6.59375 36.375 
Q 6.59375 54.828125 13.0625 64.515625 
Q 19.53125 74.21875 31.78125 74.21875 
z
" id="DejaVuSans-48"/>
       <path d="M 19.1875 8.296875 
L 53.609375 8.296875 
L 53.609375 0 
L 7.328125 0 
L 7.328125 8.296875 
Q 12.9375 14.109375 22.625 23.890625 
Q 32.328125 33.6875 34.8125 36.53125 
Q 39.546875 41.84375 41.421875 45.53125 
Q 43.3125 49.21875 43.3125 52.78125 
Q 43.3125 58.59375 39.234375 62.25 
Q 35.15625 65.921875 28.609375 65.921875 
Q 23.96875 65.921875 18.8125 64.3125 
Q 13.671875 62.703125 7.8125 59.421875 
L 7.8125 69.390625 
Q 13.765625 71.78125 18.9375 73 
Q 24.125 74.21875 28.421875 74.21875 
Q 39.75 74.21875 46.484375 68.546875 
Q 53.21875 62.890625 53.21875 53.421875 
Q 53.21875 48.921875 51.53125 44.890625 
Q 49.859375 40.875 45.40625 35.40625 
Q 44.1875 33.984375 37.640625 27.21875 
Q 31.109375 20.453125 19.1875 8.296875 
z
" id="DejaVuSans-50"/>
      </defs>
      <g style="fill:#ffffff;" transform="translate(120.742987 266.598437)scale(0.1 -0.1)">
       <use transform="translate(0 0.765625)" xlink:href="#DejaVuSans-49"/>
       <use transform="translate(63.623047 0.765625)" xlink:href="#DejaVuSans-48"/>
       <use transform="translate(128.203125 39.046875)scale(0.7)" xlink:href="#DejaVuSans-50"/>
      </g>
     </g>
    </g>
    <g id="xtick_2">
     <g id="line2d_2">
      <g>
       <use style="fill:#ffffff;stroke:#ffffff;stroke-width:0.8;" x="214.676916" xlink:href="#m81d7be69a6" y="252"/>
      </g>
     </g>
     <g id="text_2">
      <!-- $\mathdefault{10^{3}}$ -->
      <defs>
       <path d="M 40.578125 39.3125 
Q 47.65625 37.796875 51.625 33 
Q 55.609375 28.21875 55.609375 21.1875 
Q 55.609375 10.40625 48.1875 4.484375 
Q 40.765625 -1.421875 27.09375 -1.421875 
Q 22.515625 -1.421875 17.65625 -0.515625 
Q 12.796875 0.390625 7.625 2.203125 
L 7.625 11.71875 
Q 11.71875 9.328125 16.59375 8.109375 
Q 21.484375 6.890625 26.8125 6.890625 
Q 36.078125 6.890625 40.9375 10.546875 
Q 45.796875 14.203125 45.796875 21.1875 
Q 45.796875 27.640625 41.28125 31.265625 
Q 36.765625 34.90625 28.71875 34.90625 
L 20.21875 34.90625 
L 20.21875 43.015625 
L 29.109375 43.015625 
Q 36.375 43.015625 40.234375 45.921875 
Q 44.09375 48.828125 44.09375 54.296875 
Q 44.09375 59.90625 40.109375 62.90625 
Q 36.140625 65.921875 28.71875 65.921875 
Q 24.65625 65.921875 20.015625 65.03125 
Q 15.375 64.15625 9.8125 62.3125 
L 9.8125 71.09375 
Q 15.4375 72.65625 20.34375 73.4375 
Q 25.25 74.21875 29.59375 74.21875 
Q 40.828125 74.21875 47.359375 69.109375 
Q 53.90625 64.015625 53.90625 55.328125 
Q 53.90625 49.265625 50.4375 45.09375 
Q 46.96875 40.921875 40.578125 39.3125 
z
" id="DejaVuSans-51"/>
      </defs>
      <g style="fill:#ffffff;" transform="translate(205.876916 266.598437)scale(0.1 -0.1)">
       <use transform="translate(0 0.765625)" xlink:href="#DejaVuSans-49"/>
       <use transform="translate(63.623047 0.765625)" xlink:href="#DejaVuSans-48"/>
       <use transform="translate(128.203125 39.046875)scale(0.7)" xlink:href="#DejaVuSans-51"/>
      </g>
     </g>
    </g>
    <g id="xtick_3">
     <g id="line2d_3">
      <g>
       <use style="fill:#ffffff;stroke:#ffffff;stroke-width:0.8;" x="299.810845" xlink:href="#m81d7be69a6" y="252"/>
      </g>
     </g>
     <g id="text_3">
      <!-- $\mathdefault{10^{4}}$ -->
      <defs>
       <path d="M 37.796875 64.3125 
L 12.890625 25.390625 
L 37.796875 25.390625 
z
M 35.203125 72.90625 
L 47.609375 72.90625 
L 47.609375 25.390625 
L 58.015625 25.390625 
L 58.015625 17.1875 
L 47.609375 17.1875 
L 47.609375 0 
L 37.796875 0 
L 37.796875 17.1875 
L 4.890625 17.1875 
L 4.890625 26.703125 
z
" id="DejaVuSans-52"/>
      </defs>
      <g style="fill:#ffffff;" transform="translate(291.010845 266.598437)scale(0.1 -0.1)">
       <use transform="translate(0 0.684375)" xlink:href="#DejaVuSans-49"/>
       <use transform="translate(63.623047 0.684375)" xlink:href="#DejaVuSans-48"/>
       <use transform="translate(128.203125 38.965625)scale(0.7)" xlink:href="#DejaVuSans-52"/>
      </g>
     </g>
    </g>
    <g id="xtick_4">
     <g id="line2d_4">
      <defs>
       <path d="M 0 0 
L 0 2 
" id="mc876ef6f8f" style="stroke:#ffffff;stroke-width:0.6;"/>
      </defs>
      <g>
       <use style="fill:#ffffff;stroke:#ffffff;stroke-width:0.6;" x="95.664791" xlink:href="#mc876ef6f8f" y="252"/>
      </g>
     </g>
    </g>
    <g id="xtick_5">
     <g id="line2d_5">
      <g>
       <use style="fill:#ffffff;stroke:#ffffff;stroke-width:0.6;" x="103.915121" xlink:href="#mc876ef6f8f" y="252"/>
      </g>
     </g>
    </g>
    <g id="xtick_6">
     <g id="line2d_6">
      <g>
       <use style="fill:#ffffff;stroke:#ffffff;stroke-width:0.6;" x="110.656132" xlink:href="#mc876ef6f8f" y="252"/>
      </g>
     </g>
    </g>
    <g id="xtick_7">
     <g id="line2d_7">
      <g>
       <use style="fill:#ffffff;stroke:#ffffff;stroke-width:0.6;" x="116.355575" xlink:href="#mc876ef6f8f" y="252"/>
      </g>
     </g>
    </g>
    <g id="xtick_8">
     <g id="line2d_8">
      <g>
       <use style="fill:#ffffff;stroke:#ffffff;stroke-width:0.6;" x="121.292657" xlink:href="#mc876ef6f8f" y="252"/>
      </g>
     </g>
    </g>
    <g id="xtick_9">
     <g id="line2d_9">
      <g>
       <use style="fill:#ffffff;stroke:#ffffff;stroke-width:0.6;" x="125.647472" xlink:href="#mc876ef6f8f" y="252"/>
      </g>
     </g>
    </g>
    <g id="xtick_10">
     <g id="line2d_10">
      <g>
       <use style="fill:#ffffff;stroke:#ffffff;stroke-width:0.6;" x="155.170853" xlink:href="#mc876ef6f8f" y="252"/>
      </g>
     </g>
    </g>
    <g id="xtick_11">
     <g id="line2d_11">
      <g>
       <use style="fill:#ffffff;stroke:#ffffff;stroke-width:0.6;" x="170.162194" xlink:href="#mc876ef6f8f" y="252"/>
      </g>
     </g>
    </g>
    <g id="xtick_12">
     <g id="line2d_12">
      <g>
       <use style="fill:#ffffff;stroke:#ffffff;stroke-width:0.6;" x="180.79872" xlink:href="#mc876ef6f8f" y="252"/>
      </g>
     </g>
    </g>
    <g id="xtick_13">
     <g id="line2d_13">
      <g>
       <use style="fill:#ffffff;stroke:#ffffff;stroke-width:0.6;" x="189.04905" xlink:href="#mc876ef6f8f" y="252"/>
      </g>
     </g>
    </g>
    <g id="xtick_14">
     <g id="line2d_14">
      <g>
       <use style="fill:#ffffff;stroke:#ffffff;stroke-width:0.6;" x="195.79006" xlink:href="#mc876ef6f8f" y="252"/>
      </g>
     </g>
    </g>
    <g id="xtick_15">
     <g id="line2d_15">
      <g>
       <use style="fill:#ffffff;stroke:#ffffff;stroke-width:0.6;" x="201.489504" xlink:href="#mc876ef6f8f" y="252"/>
      </g>
     </g>
    </g>
    <g id="xtick_16">
     <g id="line2d_16">
      <g>
       <use style="fill:#ffffff;stroke:#ffffff;stroke-width:0.6;" x="206.426586" xlink:href="#mc876ef6f8f" y="252"/>
      </g>
     </g>
    </g>
    <g id="xtick_17">
     <g id="line2d_17">
      <g>
       <use style="fill:#ffffff;stroke:#ffffff;stroke-width:0.6;" x="210.781401" xlink:href="#mc876ef6f8f" y="252"/>
      </g>
     </g>
    </g>
    <g id="xtick_18">
     <g id="line2d_18">
      <g>
       <use style="fill:#ffffff;stroke:#ffffff;stroke-width:0.6;" x="240.304782" xlink:href="#mc876ef6f8f" y="252"/>
      </g>
     </g>
    </g>
    <g id="xtick_19">
     <g id="line2d_19">
      <g>
       <use style="fill:#ffffff;stroke:#ffffff;stroke-width:0.6;" x="255.296123" xlink:href="#mc876ef6f8f" y="252"/>
      </g>
     </g>
    </g>
    <g id="xtick_20">
     <g id="line2d_20">
      <g>
       <use style="fill:#ffffff;stroke:#ffffff;stroke-width:0.6;" x="265.932649" xlink:href="#mc876ef6f8f" y="252"/>
      </g>
     </g>
    </g>
    <g id="xtick_21">
     <g id="line2d_21">
      <g>
       <use style="fill:#ffffff;stroke:#ffffff;stroke-width:0.6;" x="274.182979" xlink:href="#mc876ef6f8f" y="252"/>
      </g>
     </g>
    </g>
    <g id="xtick_22">
     <g id="line2d_22">
      <g>
       <use style="fill:#ffffff;stroke:#ffffff;stroke-width:0.6;" x="280.923989" xlink:href="#mc876ef6f8f" y="252"/>
      </g>
     </g>
    </g>
    <g id="xtick_23">
     <g id="line2d_23">
      <g>
       <use style="fill:#ffffff;stroke:#ffffff;stroke-width:0.6;" x="286.623433" xlink:href="#mc876ef6f8f" y="252"/>
      </g>
     </g>
    </g>
    <g id="xtick_24">
     <g id="line2d_24">
      <g>
       <use style="fill:#ffffff;stroke:#ffffff;stroke-width:0.6;" x="291.560515" xlink:href="#mc876ef6f8f" y="252"/>
      </g>
     </g>
    </g>
    <g id="xtick_25">
     <g id="line2d_25">
      <g>
       <use style="fill:#ffffff;stroke:#ffffff;stroke-width:0.6;" x="295.91533" xlink:href="#mc876ef6f8f" y="252"/>
      </g>
     </g>
    </g>
    <g id="xtick_26">
     <g id="line2d_26">
      <g>
       <use style="fill:#ffffff;stroke:#ffffff;stroke-width:0.6;" x="325.438711" xlink:href="#mc876ef6f8f" y="252"/>
      </g>
     </g>
    </g>
    <g id="xtick_27">
     <g id="line2d_27">
      <g>
       <use style="fill:#ffffff;stroke:#ffffff;stroke-width:0.6;" x="340.430052" xlink:href="#mc876ef6f8f" y="252"/>
      </g>
     </g>
    </g>
    <g id="text_4">
     <!-- Frequency [rad/sample] -->
     <defs>
      <path d="M 9.8125 72.90625 
L 51.703125 72.90625 
L 51.703125 64.59375 
L 19.671875 64.59375 
L 19.671875 43.109375 
L 48.578125 43.109375 
L 48.578125 34.8125 
L 19.671875 34.8125 
L 19.671875 0 
L 9.8125 0 
z
" id="DejaVuSans-70"/>
      <path d="M 41.109375 46.296875 
Q 39.59375 47.171875 37.8125 47.578125 
Q 36.03125 48 33.890625 48 
Q 26.265625 48 22.1875 43.046875 
Q 18.109375 38.09375 18.109375 28.8125 
L 18.109375 0 
L 9.078125 0 
L 9.078125 54.6875 
L 18.109375 54.6875 
L 18.109375 46.1875 
Q 20.953125 51.171875 25.484375 53.578125 
Q 30.03125 56 36.53125 56 
Q 37.453125 56 38.578125 55.875 
Q 39.703125 55.765625 41.0625 55.515625 
z
" id="DejaVuSans-114"/>
      <path d="M 56.203125 29.59375 
L 56.203125 25.203125 
L 14.890625 25.203125 
Q 15.484375 15.921875 20.484375 11.0625 
Q 25.484375 6.203125 34.421875 6.203125 
Q 39.59375 6.203125 44.453125 7.46875 
Q 49.3125 8.734375 54.109375 11.28125 
L 54.109375 2.78125 
Q 49.265625 0.734375 44.1875 -0.34375 
Q 39.109375 -1.421875 33.890625 -1.421875 
Q 20.796875 -1.421875 13.15625 6.1875 
Q 5.515625 13.8125 5.515625 26.8125 
Q 5.515625 40.234375 12.765625 48.109375 
Q 20.015625 56 32.328125 56 
Q 43.359375 56 49.78125 48.890625 
Q 56.203125 41.796875 56.203125 29.59375 
z
M 47.21875 32.234375 
Q 47.125 39.59375 43.09375 43.984375 
Q 39.0625 48.390625 32.421875 48.390625 
Q 24.90625 48.390625 20.390625 44.140625 
Q 15.875 39.890625 15.1875 32.171875 
z
" id="DejaVuSans-101"/>
      <path d="M 14.796875 27.296875 
Q 14.796875 17.390625 18.875 11.75 
Q 22.953125 6.109375 30.078125 6.109375 
Q 37.203125 6.109375 41.296875 11.75 
Q 45.40625 17.390625 45.40625 27.296875 
Q 45.40625 37.203125 41.296875 42.84375 
Q 37.203125 48.484375 30.078125 48.484375 
Q 22.953125 48.484375 18.875 42.84375 
Q 14.796875 37.203125 14.796875 27.296875 
z
M 45.40625 8.203125 
Q 42.578125 3.328125 38.25 0.953125 
Q 33.9375 -1.421875 27.875 -1.421875 
Q 17.96875 -1.421875 11.734375 6.484375 
Q 5.515625 14.40625 5.515625 27.296875 
Q 5.515625 40.1875 11.734375 48.09375 
Q 17.96875 56 27.875 56 
Q 33.9375 56 38.25 53.625 
Q 42.578125 51.265625 45.40625 46.390625 
L 45.40625 54.6875 
L 54.390625 54.6875 
L 54.390625 -20.796875 
L 45.40625 -20.796875 
z
" id="DejaVuSans-113"/>
      <path d="M 8.5 21.578125 
L 8.5 54.6875 
L 17.484375 54.6875 
L 17.484375 21.921875 
Q 17.484375 14.15625 20.5 10.265625 
Q 23.53125 6.390625 29.59375 6.390625 
Q 36.859375 6.390625 41.078125 11.03125 
Q 45.3125 15.671875 45.3125 23.6875 
L 45.3125 54.6875 
L 54.296875 54.6875 
L 54.296875 0 
L 45.3125 0 
L 45.3125 8.40625 
Q 42.046875 3.421875 37.71875 1 
Q 33.40625 -1.421875 27.6875 -1.421875 
Q 18.265625 -1.421875 13.375 4.4375 
Q 8.5 10.296875 8.5 21.578125 
z
M 31.109375 56 
z
" id="DejaVuSans-117"/>
      <path d="M 54.890625 33.015625 
L 54.890625 0 
L 45.90625 0 
L 45.90625 32.71875 
Q 45.90625 40.484375 42.875 44.328125 
Q 39.84375 48.1875 33.796875 48.1875 
Q 26.515625 48.1875 22.3125 43.546875 
Q 18.109375 38.921875 18.109375 30.90625 
L 18.109375 0 
L 9.078125 0 
L 9.078125 54.6875 
L 18.109375 54.6875 
L 18.109375 46.1875 
Q 21.34375 51.125 25.703125 53.5625 
Q 30.078125 56 35.796875 56 
Q 45.21875 56 50.046875 50.171875 
Q 54.890625 44.34375 54.890625 33.015625 
z
" id="DejaVuSans-110"/>
      <path d="M 48.78125 52.59375 
L 48.78125 44.1875 
Q 44.96875 46.296875 41.140625 47.34375 
Q 37.3125 48.390625 33.40625 48.390625 
Q 24.65625 48.390625 19.8125 42.84375 
Q 14.984375 37.3125 14.984375 27.296875 
Q 14.984375 17.28125 19.8125 11.734375 
Q 24.65625 6.203125 33.40625 6.203125 
Q 37.3125 6.203125 41.140625 7.25 
Q 44.96875 8.296875 48.78125 10.40625 
L 48.78125 2.09375 
Q 45.015625 0.34375 40.984375 -0.53125 
Q 36.96875 -1.421875 32.421875 -1.421875 
Q 20.0625 -1.421875 12.78125 6.34375 
Q 5.515625 14.109375 5.515625 27.296875 
Q 5.515625 40.671875 12.859375 48.328125 
Q 20.21875 56 33.015625 56 
Q 37.15625 56 41.109375 55.140625 
Q 45.0625 54.296875 48.78125 52.59375 
z
" id="DejaVuSans-99"/>
      <path d="M 32.171875 -5.078125 
Q 28.375 -14.84375 24.75 -17.8125 
Q 21.140625 -20.796875 15.09375 -20.796875 
L 7.90625 -20.796875 
L 7.90625 -13.28125 
L 13.1875 -13.28125 
Q 16.890625 -13.28125 18.9375 -11.515625 
Q 21 -9.765625 23.484375 -3.21875 
L 25.09375 0.875 
L 2.984375 54.6875 
L 12.5 54.6875 
L 29.59375 11.921875 
L 46.6875 54.6875 
L 56.203125 54.6875 
z
" id="DejaVuSans-121"/>
      <path id="DejaVuSans-32"/>
      <path d="M 8.59375 75.984375 
L 29.296875 75.984375 
L 29.296875 69 
L 17.578125 69 
L 17.578125 -6.203125 
L 29.296875 -6.203125 
L 29.296875 -13.1875 
L 8.59375 -13.1875 
z
" id="DejaVuSans-91"/>
      <path d="M 34.28125 27.484375 
Q 23.390625 27.484375 19.1875 25 
Q 14.984375 22.515625 14.984375 16.5 
Q 14.984375 11.71875 18.140625 8.90625 
Q 21.296875 6.109375 26.703125 6.109375 
Q 34.1875 6.109375 38.703125 11.40625 
Q 43.21875 16.703125 43.21875 25.484375 
L 43.21875 27.484375 
z
M 52.203125 31.203125 
L 52.203125 0 
L 43.21875 0 
L 43.21875 8.296875 
Q 40.140625 3.328125 35.546875 0.953125 
Q 30.953125 -1.421875 24.3125 -1.421875 
Q 15.921875 -1.421875 10.953125 3.296875 
Q 6 8.015625 6 15.921875 
Q 6 25.140625 12.171875 29.828125 
Q 18.359375 34.515625 30.609375 34.515625 
L 43.21875 34.515625 
L 43.21875 35.40625 
Q 43.21875 41.609375 39.140625 45 
Q 35.0625 48.390625 27.6875 48.390625 
Q 23 48.390625 18.546875 47.265625 
Q 14.109375 46.140625 10.015625 43.890625 
L 10.015625 52.203125 
Q 14.9375 54.109375 19.578125 55.046875 
Q 24.21875 56 28.609375 56 
Q 40.484375 56 46.34375 49.84375 
Q 52.203125 43.703125 52.203125 31.203125 
z
" id="DejaVuSans-97"/>
      <path d="M 45.40625 46.390625 
L 45.40625 75.984375 
L 54.390625 75.984375 
L 54.390625 0 
L 45.40625 0 
L 45.40625 8.203125 
Q 42.578125 3.328125 38.25 0.953125 
Q 33.9375 -1.421875 27.875 -1.421875 
Q 17.96875 -1.421875 11.734375 6.484375 
Q 5.515625 14.40625 5.515625 27.296875 
Q 5.515625 40.1875 11.734375 48.09375 
Q 17.96875 56 27.875 56 
Q 33.9375 56 38.25 53.625 
Q 42.578125 51.265625 45.40625 46.390625 
z
M 14.796875 27.296875 
Q 14.796875 17.390625 18.875 11.75 
Q 22.953125 6.109375 30.078125 6.109375 
Q 37.203125 6.109375 41.296875 11.75 
Q 45.40625 17.390625 45.40625 27.296875 
Q 45.40625 37.203125 41.296875 42.84375 
Q 37.203125 48.484375 30.078125 48.484375 
Q 22.953125 48.484375 18.875 42.84375 
Q 14.796875 37.203125 14.796875 27.296875 
z
" id="DejaVuSans-100"/>
      <path d="M 25.390625 72.90625 
L 33.6875 72.90625 
L 8.296875 -9.28125 
L 0 -9.28125 
z
" id="DejaVuSans-47"/>
      <path d="M 44.28125 53.078125 
L 44.28125 44.578125 
Q 40.484375 46.53125 36.375 47.5 
Q 32.28125 48.484375 27.875 48.484375 
Q 21.1875 48.484375 17.84375 46.4375 
Q 14.5 44.390625 14.5 40.28125 
Q 14.5 37.15625 16.890625 35.375 
Q 19.28125 33.59375 26.515625 31.984375 
L 29.59375 31.296875 
Q 39.15625 29.25 43.1875 25.515625 
Q 47.21875 21.78125 47.21875 15.09375 
Q 47.21875 7.46875 41.1875 3.015625 
Q 35.15625 -1.421875 24.609375 -1.421875 
Q 20.21875 -1.421875 15.453125 -0.5625 
Q 10.6875 0.296875 5.421875 2 
L 5.421875 11.28125 
Q 10.40625 8.6875 15.234375 7.390625 
Q 20.0625 6.109375 24.8125 6.109375 
Q 31.15625 6.109375 34.5625 8.28125 
Q 37.984375 10.453125 37.984375 14.40625 
Q 37.984375 18.0625 35.515625 20.015625 
Q 33.0625 21.96875 24.703125 23.78125 
L 21.578125 24.515625 
Q 13.234375 26.265625 9.515625 29.90625 
Q 5.8125 33.546875 5.8125 39.890625 
Q 5.8125 47.609375 11.28125 51.796875 
Q 16.75 56 26.8125 56 
Q 31.78125 56 36.171875 55.265625 
Q 40.578125 54.546875 44.28125 53.078125 
z
" id="DejaVuSans-115"/>
      <path d="M 52 44.1875 
Q 55.375 50.25 60.0625 53.125 
Q 64.75 56 71.09375 56 
Q 79.640625 56 84.28125 50.015625 
Q 88.921875 44.046875 88.921875 33.015625 
L 88.921875 0 
L 79.890625 0 
L 79.890625 32.71875 
Q 79.890625 40.578125 77.09375 44.375 
Q 74.3125 48.1875 68.609375 48.1875 
Q 61.625 48.1875 57.5625 43.546875 
Q 53.515625 38.921875 53.515625 30.90625 
L 53.515625 0 
L 44.484375 0 
L 44.484375 32.71875 
Q 44.484375 40.625 41.703125 44.40625 
Q 38.921875 48.1875 33.109375 48.1875 
Q 26.21875 48.1875 22.15625 43.53125 
Q 18.109375 38.875 18.109375 30.90625 
L 18.109375 0 
L 9.078125 0 
L 9.078125 54.6875 
L 18.109375 54.6875 
L 18.109375 46.1875 
Q 21.1875 51.21875 25.484375 53.609375 
Q 29.78125 56 35.6875 56 
Q 41.65625 56 45.828125 52.96875 
Q 50 49.953125 52 44.1875 
z
" id="DejaVuSans-109"/>
      <path d="M 18.109375 8.203125 
L 18.109375 -20.796875 
L 9.078125 -20.796875 
L 9.078125 54.6875 
L 18.109375 54.6875 
L 18.109375 46.390625 
Q 20.953125 51.265625 25.265625 53.625 
Q 29.59375 56 35.59375 56 
Q 45.5625 56 51.78125 48.09375 
Q 58.015625 40.1875 58.015625 27.296875 
Q 58.015625 14.40625 51.78125 6.484375 
Q 45.5625 -1.421875 35.59375 -1.421875 
Q 29.59375 -1.421875 25.265625 0.953125 
Q 20.953125 3.328125 18.109375 8.203125 
z
M 48.6875 27.296875 
Q 48.6875 37.203125 44.609375 42.84375 
Q 40.53125 48.484375 33.40625 48.484375 
Q 26.265625 48.484375 22.1875 42.84375 
Q 18.109375 37.203125 18.109375 27.296875 
Q 18.109375 17.390625 22.1875 11.75 
Q 26.265625 6.109375 33.40625 6.109375 
Q 40.53125 6.109375 44.609375 11.75 
Q 48.6875 17.390625 48.6875 27.296875 
z
" id="DejaVuSans-112"/>
      <path d="M 9.421875 75.984375 
L 18.40625 75.984375 
L 18.40625 0 
L 9.421875 0 
z
" id="DejaVuSans-108"/>
      <path d="M 30.421875 75.984375 
L 30.421875 -13.1875 
L 9.71875 -13.1875 
L 9.71875 -6.203125 
L 21.390625 -6.203125 
L 21.390625 69 
L 9.71875 69 
L 9.71875 75.984375 
z
" id="DejaVuSans-93"/>
     </defs>
     <g style="fill:#ffffff;" transform="translate(156.872869 280.276563)scale(0.1 -0.1)">
      <use xlink:href="#DejaVuSans-70"/>
      <use x="57.410156" xlink:href="#DejaVuSans-114"/>
      <use x="98.492188" xlink:href="#DejaVuSans-101"/>
      <use x="160.015625" xlink:href="#DejaVuSans-113"/>
      <use x="223.492188" xlink:href="#DejaVuSans-117"/>
      <use x="286.871094" xlink:href="#DejaVuSans-101"/>
      <use x="348.394531" xlink:href="#DejaVuSans-110"/>
      <use x="411.773438" xlink:href="#DejaVuSans-99"/>
      <use x="466.753906" xlink:href="#DejaVuSans-121"/>
      <use x="525.933594" xlink:href="#DejaVuSans-32"/>
      <use x="557.720703" xlink:href="#DejaVuSans-91"/>
      <use x="596.734375" xlink:href="#DejaVuSans-114"/>
      <use x="637.847656" xlink:href="#DejaVuSans-97"/>
      <use x="699.126953" xlink:href="#DejaVuSans-100"/>
      <use x="762.603516" xlink:href="#DejaVuSans-47"/>
      <use x="796.294922" xlink:href="#DejaVuSans-115"/>
      <use x="848.394531" xlink:href="#DejaVuSans-97"/>
      <use x="909.673828" xlink:href="#DejaVuSans-109"/>
      <use x="1007.085938" xlink:href="#DejaVuSans-112"/>
      <use x="1070.5625" xlink:href="#DejaVuSans-108"/>
      <use x="1098.345703" xlink:href="#DejaVuSans-101"/>
      <use x="1159.869141" xlink:href="#DejaVuSans-93"/>
     </g>
    </g>
   </g>
   <g id="matplotlib.axis_2">
    <g id="ytick_1">
     <g id="line2d_28">
      <defs>
       <path d="M 0 0 
L -3.5 0 
" id="m61821e4d09" style="stroke:#ffffff;stroke-width:0.8;"/>
      </defs>
      <g>
       <use style="fill:#ffffff;stroke:#ffffff;stroke-width:0.8;" x="90" xlink:href="#m61821e4d09" y="230.256"/>
      </g>
     </g>
     <g id="text_5">
      <!-- −20 -->
      <defs>
       <path d="M 10.59375 35.5 
L 73.1875 35.5 
L 73.1875 27.203125 
L 10.59375 27.203125 
z
" id="DejaVuSans-8722"/>
      </defs>
      <g style="fill:#ffffff;" transform="translate(61.895313 234.055219)scale(0.1 -0.1)">
       <use xlink:href="#DejaVuSans-8722"/>
       <use x="83.789062" xlink:href="#DejaVuSans-50"/>
       <use x="147.412109" xlink:href="#DejaVuSans-48"/>
      </g>
     </g>
    </g>
    <g id="ytick_2">
     <g id="line2d_29">
      <g>
       <use style="fill:#ffffff;stroke:#ffffff;stroke-width:0.8;" x="90" xlink:href="#m61821e4d09" y="186.768"/>
      </g>
     </g>
     <g id="text_6">
      <!-- −10 -->
      <g style="fill:#ffffff;" transform="translate(61.895313 190.567219)scale(0.1 -0.1)">
       <use xlink:href="#DejaVuSans-8722"/>
       <use x="83.789062" xlink:href="#DejaVuSans-49"/>
       <use x="147.412109" xlink:href="#DejaVuSans-48"/>
      </g>
     </g>
    </g>
    <g id="ytick_3">
     <g id="line2d_30">
      <g>
       <use style="fill:#ffffff;stroke:#ffffff;stroke-width:0.8;" x="90" xlink:href="#m61821e4d09" y="143.28"/>
      </g>
     </g>
     <g id="text_7">
      <!-- 0 -->
      <g style="fill:#ffffff;" transform="translate(76.6375 147.079219)scale(0.1 -0.1)">
       <use xlink:href="#DejaVuSans-48"/>
      </g>
     </g>
    </g>
    <g id="ytick_4">
     <g id="line2d_31">
      <g>
       <use style="fill:#ffffff;stroke:#ffffff;stroke-width:0.8;" x="90" xlink:href="#m61821e4d09" y="99.792"/>
      </g>
     </g>
     <g id="text_8">
      <!-- 10 -->
      <g style="fill:#ffffff;" transform="translate(70.275 103.591219)scale(0.1 -0.1)">
       <use xlink:href="#DejaVuSans-49"/>
       <use x="63.623047" xlink:href="#DejaVuSans-48"/>
      </g>
     </g>
    </g>
    <g id="ytick_5">
     <g id="line2d_32">
      <g>
       <use style="fill:#ffffff;stroke:#ffffff;stroke-width:0.8;" x="90" xlink:href="#m61821e4d09" y="56.304"/>
      </g>
     </g>
     <g id="text_9">
      <!-- 20 -->
      <g style="fill:#ffffff;" transform="translate(70.275 60.103219)scale(0.1 -0.1)">
       <use xlink:href="#DejaVuSans-50"/>
       <use x="63.623047" xlink:href="#DejaVuSans-48"/>
      </g>
     </g>
    </g>
    <g id="text_10">
     <!-- Amplitude [dB] -->
     <defs>
      <path d="M 34.1875 63.1875 
L 20.796875 26.90625 
L 47.609375 26.90625 
z
M 28.609375 72.90625 
L 39.796875 72.90625 
L 67.578125 0 
L 57.328125 0 
L 50.6875 18.703125 
L 17.828125 18.703125 
L 11.1875 0 
L 0.78125 0 
z
" id="DejaVuSans-65"/>
      <path d="M 9.421875 54.6875 
L 18.40625 54.6875 
L 18.40625 0 
L 9.421875 0 
z
M 9.421875 75.984375 
L 18.40625 75.984375 
L 18.40625 64.59375 
L 9.421875 64.59375 
z
" id="DejaVuSans-105"/>
      <path d="M 18.3125 70.21875 
L 18.3125 54.6875 
L 36.8125 54.6875 
L 36.8125 47.703125 
L 18.3125 47.703125 
L 18.3125 18.015625 
Q 18.3125 11.328125 20.140625 9.421875 
Q 21.96875 7.515625 27.59375 7.515625 
L 36.8125 7.515625 
L 36.8125 0 
L 27.59375 0 
Q 17.1875 0 13.234375 3.875 
Q 9.28125 7.765625 9.28125 18.015625 
L 9.28125 47.703125 
L 2.6875 47.703125 
L 2.6875 54.6875 
L 9.28125 54.6875 
L 9.28125 70.21875 
z
" id="DejaVuSans-116"/>
      <path d="M 19.671875 34.8125 
L 19.671875 8.109375 
L 35.5 8.109375 
Q 43.453125 8.109375 47.28125 11.40625 
Q 51.125 14.703125 51.125 21.484375 
Q 51.125 28.328125 47.28125 31.5625 
Q 43.453125 34.8125 35.5 34.8125 
z
M 19.671875 64.796875 
L 19.671875 42.828125 
L 34.28125 42.828125 
Q 41.5 42.828125 45.03125 45.53125 
Q 48.578125 48.25 48.578125 53.8125 
Q 48.578125 59.328125 45.03125 62.0625 
Q 41.5 64.796875 34.28125 64.796875 
z
M 9.8125 72.90625 
L 35.015625 72.90625 
Q 46.296875 72.90625 52.390625 68.21875 
Q 58.5 63.53125 58.5 54.890625 
Q 58.5 48.1875 55.375 44.234375 
Q 52.25 40.28125 46.1875 39.3125 
Q 53.46875 37.75 57.5 32.78125 
Q 61.53125 27.828125 61.53125 20.40625 
Q 61.53125 10.640625 54.890625 5.3125 
Q 48.25 0 35.984375 0 
L 9.8125 0 
z
" id="DejaVuSans-66"/>
     </defs>
     <g style="fill:#ffffff;" transform="translate(55.815625 180.997969)rotate(-90)scale(0.1 -0.1)">
      <use xlink:href="#DejaVuSans-65"/>
      <use x="68.408203" xlink:href="#DejaVuSans-109"/>
      <use x="165.820312" xlink:href="#DejaVuSans-112"/>
      <use x="229.296875" xlink:href="#DejaVuSans-108"/>
      <use x="257.080078" xlink:href="#DejaVuSans-105"/>
      <use x="284.863281" xlink:href="#DejaVuSans-116"/>
      <use x="324.072266" xlink:href="#DejaVuSans-117"/>
      <use x="387.451172" xlink:href="#DejaVuSans-100"/>
      <use x="450.927734" xlink:href="#DejaVuSans-101"/>
      <use x="512.451172" xlink:href="#DejaVuSans-32"/>
      <use x="544.238281" xlink:href="#DejaVuSans-91"/>
      <use x="583.251953" xlink:href="#DejaVuSans-100"/>
      <use x="646.728516" xlink:href="#DejaVuSans-66"/>
      <use x="715.332031" xlink:href="#DejaVuSans-93"/>
     </g>
    </g>
   </g>
   <g id="line2d_33">
    <path clip-path="url(#p853cb5db42)" d="M -1 143.28 
L 332.107438 143.28 
L 332.107438 143.28 
" style="fill:none;stroke:#00bfbf;stroke-linecap:square;stroke-width:1.5;"/>
   </g>
   <g id="line2d_34">
    <path clip-path="url(#p853cb5db42)" d="M -1 195.417623 
L 101.528926 195.417565 
L 127.156792 195.274067 
L 142.148133 195.036904 
L 152.784658 194.709002 
L 161.034988 194.294321 
L 167.775999 193.797717 
L 173.475442 193.224798 
L 178.412524 192.581758 
L 182.76734 191.875205 
L 186.662855 191.112002 
L 193.403865 189.443451 
L 199.103308 187.630633 
L 204.040391 185.724137 
L 208.395206 183.768443 
L 212.290721 181.800904 
L 217.458166 178.891334 
L 223.386547 175.196424 
L 230.805983 170.226161 
L 241.442509 163.060472 
L 246.901084 159.651251 
L 251.656479 156.941053 
L 255.869362 154.77906 
L 260.160922 152.823459 
L 264.459418 151.115922 
L 268.713899 149.664231 
L 273.246899 148.359427 
L 277.916381 147.249307 
L 282.892609 146.292809 
L 288.474491 145.452561 
L 294.741479 144.744386 
L 301.943426 144.165174 
L 310.389555 143.717133 
L 320.666321 143.404197 
L 332.035013 143.280023 
L 332.107438 143.280006 
L 332.107438 143.280006 
" style="fill:none;stroke:#8dd3c7;stroke-linecap:square;stroke-width:1.5;"/>
   </g>
   <g id="line2d_35">
    <path clip-path="url(#p853cb5db42)" d="M -1 247.531516 
L 101.528926 247.531372 
L 127.156792 247.174446 
L 142.148133 246.587932 
L 152.784658 245.783798 
L 161.034988 244.77774 
L 167.775999 243.588274 
L 173.475442 242.235779 
L 178.412524 240.741563 
L 182.76734 239.127033 
L 186.662855 237.413005 
L 190.186776 235.619182 
L 193.403865 233.763791 
L 196.3633 231.863369 
L 199.103308 229.932661 
L 204.040391 226.030468 
L 208.395206 222.140764 
L 212.290721 218.323446 
L 217.458166 212.818526 
L 221.991166 207.64561 
L 228.494406 199.839327 
L 243.086033 182.100008 
L 248.323305 176.158628 
L 252.909928 171.314857 
L 256.989848 167.344715 
L 260.663966 164.069951 
L 264.459418 161.000525 
L 267.901269 158.495948 
L 271.42519 156.202552 
L 274.983048 154.155044 
L 278.537794 152.363171 
L 282.34076 150.70601 
L 286.291832 149.242109 
L 290.312046 147.991977 
L 294.741479 146.857484 
L 299.404223 145.897115 
L 304.624961 145.057493 
L 310.389555 144.364057 
L 316.82554 143.819347 
L 323.965481 143.442546 
L 331.154657 143.282875 
L 332.107438 143.280015 
L 332.107438 143.280015 
" style="fill:none;stroke:#feffb3;stroke-linecap:square;stroke-width:1.5;"/>
   </g>
   <g id="patch_3">
    <path d="M 90 252 
L 90 34.56 
" style="fill:none;stroke:#ffffff;stroke-linecap:square;stroke-linejoin:miter;stroke-width:0.8;"/>
   </g>
   <g id="patch_4">
    <path d="M 343.636364 252 
L 343.636364 34.56 
" style="fill:none;stroke:#ffffff;stroke-linecap:square;stroke-linejoin:miter;stroke-width:0.8;"/>
   </g>
   <g id="patch_5">
    <path d="M 90 252 
L 343.636364 252 
" style="fill:none;stroke:#ffffff;stroke-linecap:square;stroke-linejoin:miter;stroke-width:0.8;"/>
   </g>
   <g id="patch_6">
    <path d="M 90 34.56 
L 343.636364 34.56 
" style="fill:none;stroke:#ffffff;stroke-linecap:square;stroke-linejoin:miter;stroke-width:0.8;"/>
   </g>
   <g id="text_11">
    <!-- Pre-emphasis filter -->
    <defs>
     <path d="M 19.671875 64.796875 
L 19.671875 37.40625 
L 32.078125 37.40625 
Q 38.96875 37.40625 42.71875 40.96875 
Q 46.484375 44.53125 46.484375 51.125 
Q 46.484375 57.671875 42.71875 61.234375 
Q 38.96875 64.796875 32.078125 64.796875 
z
M 9.8125 72.90625 
L 32.078125 72.90625 
Q 44.34375 72.90625 50.609375 67.359375 
Q 56.890625 61.8125 56.890625 51.125 
Q 56.890625 40.328125 50.609375 34.8125 
Q 44.34375 29.296875 32.078125 29.296875 
L 19.671875 29.296875 
L 19.671875 0 
L 9.8125 0 
z
" id="DejaVuSans-80"/>
     <path d="M 4.890625 31.390625 
L 31.203125 31.390625 
L 31.203125 23.390625 
L 4.890625 23.390625 
z
" id="DejaVuSans-45"/>
     <path d="M 54.890625 33.015625 
L 54.890625 0 
L 45.90625 0 
L 45.90625 32.71875 
Q 45.90625 40.484375 42.875 44.328125 
Q 39.84375 48.1875 33.796875 48.1875 
Q 26.515625 48.1875 22.3125 43.546875 
Q 18.109375 38.921875 18.109375 30.90625 
L 18.109375 0 
L 9.078125 0 
L 9.078125 75.984375 
L 18.109375 75.984375 
L 18.109375 46.1875 
Q 21.34375 51.125 25.703125 53.5625 
Q 30.078125 56 35.796875 56 
Q 45.21875 56 50.046875 50.171875 
Q 54.890625 44.34375 54.890625 33.015625 
z
" id="DejaVuSans-104"/>
     <path d="M 37.109375 75.984375 
L 37.109375 68.5 
L 28.515625 68.5 
Q 23.6875 68.5 21.796875 66.546875 
Q 19.921875 64.59375 19.921875 59.515625 
L 19.921875 54.6875 
L 34.71875 54.6875 
L 34.71875 47.703125 
L 19.921875 47.703125 
L 19.921875 0 
L 10.890625 0 
L 10.890625 47.703125 
L 2.296875 47.703125 
L 2.296875 54.6875 
L 10.890625 54.6875 
L 10.890625 58.5 
Q 10.890625 67.625 15.140625 71.796875 
Q 19.390625 75.984375 28.609375 75.984375 
z
" id="DejaVuSans-102"/>
    </defs>
    <g style="fill:#ffffff;" transform="translate(160.273807 28.56)scale(0.12 -0.12)">
     <use xlink:href="#DejaVuSans-80"/>
     <use x="60.287109" xlink:href="#DejaVuSans-114"/>
     <use x="101.369141" xlink:href="#DejaVuSans-101"/>
     <use x="162.892578" xlink:href="#DejaVuSans-45"/>
     <use x="198.976562" xlink:href="#DejaVuSans-101"/>
     <use x="260.5" xlink:href="#DejaVuSans-109"/>
     <use x="357.912109" xlink:href="#DejaVuSans-112"/>
     <use x="421.388672" xlink:href="#DejaVuSans-104"/>
     <use x="484.767578" xlink:href="#DejaVuSans-97"/>
     <use x="546.046875" xlink:href="#DejaVuSans-115"/>
     <use x="598.146484" xlink:href="#DejaVuSans-105"/>
     <use x="625.929688" xlink:href="#DejaVuSans-115"/>
     <use x="678.029297" xlink:href="#DejaVuSans-32"/>
     <use x="709.816406" xlink:href="#DejaVuSans-102"/>
     <use x="745.021484" xlink:href="#DejaVuSans-105"/>
     <use x="772.804688" xlink:href="#DejaVuSans-108"/>
     <use x="800.587891" xlink:href="#DejaVuSans-116"/>
     <use x="839.796875" xlink:href="#DejaVuSans-101"/>
     <use x="901.320312" xlink:href="#DejaVuSans-114"/>
    </g>
   </g>
   <g id="legend_1">
    <g id="patch_7">
     <path d="M 233.883239 86.594375 
L 336.636364 86.594375 
Q 338.636364 86.594375 338.636364 84.594375 
L 338.636364 41.56 
Q 338.636364 39.56 336.636364 39.56 
L 233.883239 39.56 
Q 231.883239 39.56 231.883239 41.56 
L 231.883239 84.594375 
Q 231.883239 86.594375 233.883239 86.594375 
z
" style="opacity:0.8;stroke:#cccccc;stroke-linejoin:miter;"/>
    </g>
    <g id="line2d_36">
     <path d="M 235.883239 47.658438 
L 255.883239 47.658438 
" style="fill:none;stroke:#00bfbf;stroke-linecap:square;stroke-width:1.5;"/>
    </g>
    <g id="line2d_37"/>
    <g id="text_12">
     <!-- Warmth = 0 -->
     <defs>
      <path d="M 3.328125 72.90625 
L 13.28125 72.90625 
L 28.609375 11.28125 
L 43.890625 72.90625 
L 54.984375 72.90625 
L 70.3125 11.28125 
L 85.59375 72.90625 
L 95.609375 72.90625 
L 77.296875 0 
L 64.890625 0 
L 49.515625 63.28125 
L 33.984375 0 
L 21.578125 0 
z
" id="DejaVuSans-87"/>
      <path d="M 10.59375 45.40625 
L 73.1875 45.40625 
L 73.1875 37.203125 
L 10.59375 37.203125 
z
M 10.59375 25.484375 
L 73.1875 25.484375 
L 73.1875 17.1875 
L 10.59375 17.1875 
z
" id="DejaVuSans-61"/>
     </defs>
     <g style="fill:#ffffff;" transform="translate(263.883239 51.158438)scale(0.1 -0.1)">
      <use xlink:href="#DejaVuSans-87"/>
      <use x="98.783203" xlink:href="#DejaVuSans-97"/>
      <use x="160.0625" xlink:href="#DejaVuSans-114"/>
      <use x="201.160156" xlink:href="#DejaVuSans-109"/>
      <use x="298.572266" xlink:href="#DejaVuSans-116"/>
      <use x="337.78125" xlink:href="#DejaVuSans-104"/>
      <use x="401.160156" xlink:href="#DejaVuSans-32"/>
      <use x="432.947266" xlink:href="#DejaVuSans-61"/>
      <use x="516.736328" xlink:href="#DejaVuSans-32"/>
      <use x="548.523438" xlink:href="#DejaVuSans-48"/>
     </g>
    </g>
    <g id="line2d_38">
     <path d="M 235.883239 62.336563 
L 255.883239 62.336563 
" style="fill:none;stroke:#8dd3c7;stroke-linecap:square;stroke-width:1.5;"/>
    </g>
    <g id="line2d_39"/>
    <g id="text_13">
     <!-- Warmth = 0.5 -->
     <defs>
      <path d="M 10.6875 12.40625 
L 21 12.40625 
L 21 0 
L 10.6875 0 
z
" id="DejaVuSans-46"/>
      <path d="M 10.796875 72.90625 
L 49.515625 72.90625 
L 49.515625 64.59375 
L 19.828125 64.59375 
L 19.828125 46.734375 
Q 21.96875 47.46875 24.109375 47.828125 
Q 26.265625 48.1875 28.421875 48.1875 
Q 40.625 48.1875 47.75 41.5 
Q 54.890625 34.8125 54.890625 23.390625 
Q 54.890625 11.625 47.5625 5.09375 
Q 40.234375 -1.421875 26.90625 -1.421875 
Q 22.3125 -1.421875 17.546875 -0.640625 
Q 12.796875 0.140625 7.71875 1.703125 
L 7.71875 11.625 
Q 12.109375 9.234375 16.796875 8.0625 
Q 21.484375 6.890625 26.703125 6.890625 
Q 35.15625 6.890625 40.078125 11.328125 
Q 45.015625 15.765625 45.015625 23.390625 
Q 45.015625 31 40.078125 35.4375 
Q 35.15625 39.890625 26.703125 39.890625 
Q 22.75 39.890625 18.8125 39.015625 
Q 14.890625 38.140625 10.796875 36.28125 
z
" id="DejaVuSans-53"/>
     </defs>
     <g style="fill:#ffffff;" transform="translate(263.883239 65.836563)scale(0.1 -0.1)">
      <use xlink:href="#DejaVuSans-87"/>
      <use x="98.783203" xlink:href="#DejaVuSans-97"/>
      <use x="160.0625" xlink:href="#DejaVuSans-114"/>
      <use x="201.160156" xlink:href="#DejaVuSans-109"/>
      <use x="298.572266" xlink:href="#DejaVuSans-116"/>
      <use x="337.78125" xlink:href="#DejaVuSans-104"/>
      <use x="401.160156" xlink:href="#DejaVuSans-32"/>
      <use x="432.947266" xlink:href="#DejaVuSans-61"/>
      <use x="516.736328" xlink:href="#DejaVuSans-32"/>
      <use x="548.523438" xlink:href="#DejaVuSans-48"/>
      <use x="612.146484" xlink:href="#DejaVuSans-46"/>
      <use x="643.933594" xlink:href="#DejaVuSans-53"/>
     </g>
    </g>
    <g id="line2d_40">
     <path d="M 235.883239 77.014688 
L 255.883239 77.014688 
" style="fill:none;stroke:#feffb3;stroke-linecap:square;stroke-width:1.5;"/>
    </g>
    <g id="line2d_41"/>
    <g id="text_14">
     <!-- Warmth = 1.0 -->
     <g style="fill:#ffffff;" transform="translate(263.883239 80.514688)scale(0.1 -0.1)">
      <use xlink:href="#DejaVuSans-87"/>
      <use x="98.783203" xlink:href="#DejaVuSans-97"/>
      <use x="160.0625" xlink:href="#DejaVuSans-114"/>
      <use x="201.160156" xlink:href="#DejaVuSans-109"/>
      <use x="298.572266" xlink:href="#DejaVuSans-116"/>
      <use x="337.78125" xlink:href="#DejaVuSans-104"/>
      <use x="401.160156" xlink:href="#DejaVuSans-32"/>
      <use x="432.947266" xlink:href="#DejaVuSans-61"/>
      <use x="516.736328" xlink:href="#DejaVuSans-32"/>
      <use x="548.523438" xlink:href="#DejaVuSans-49"/>
      <use x="612.146484" xlink:href="#DejaVuSans-46"/>
      <use x="643.933594" xlink:href="#DejaVuSans-48"/>
     </g>
    </g>
   </g>
  </g>
  <g id="axes_2">
   <g id="patch_8">
    <path d="M 394.363636 252 
L 648 252 
L 648 34.56 
L 394.363636 34.56 
z
"/>
   </g>
   <g id="matplotlib.axis_3">
    <g id="xtick_28">
     <g id="line2d_42">
      <g>
       <use style="fill:#ffffff;stroke:#ffffff;stroke-width:0.8;" x="433.906624" xlink:href="#m81d7be69a6" y="252"/>
      </g>
     </g>
     <g id="text_15">
      <!-- $\mathdefault{10^{2}}$ -->
      <g style="fill:#ffffff;" transform="translate(425.106624 266.598437)scale(0.1 -0.1)">
       <use transform="translate(0 0.765625)" xlink:href="#DejaVuSans-49"/>
       <use transform="translate(63.623047 0.765625)" xlink:href="#DejaVuSans-48"/>
       <use transform="translate(128.203125 39.046875)scale(0.7)" xlink:href="#DejaVuSans-50"/>
      </g>
     </g>
    </g>
    <g id="xtick_29">
     <g id="line2d_43">
      <g>
       <use style="fill:#ffffff;stroke:#ffffff;stroke-width:0.8;" x="519.040553" xlink:href="#m81d7be69a6" y="252"/>
      </g>
     </g>
     <g id="text_16">
      <!-- $\mathdefault{10^{3}}$ -->
      <g style="fill:#ffffff;" transform="translate(510.240553 266.598437)scale(0.1 -0.1)">
       <use transform="translate(0 0.765625)" xlink:href="#DejaVuSans-49"/>
       <use transform="translate(63.623047 0.765625)" xlink:href="#DejaVuSans-48"/>
       <use transform="translate(128.203125 39.046875)scale(0.7)" xlink:href="#DejaVuSans-51"/>
      </g>
     </g>
    </g>
    <g id="xtick_30">
     <g id="line2d_44">
      <g>
       <use style="fill:#ffffff;stroke:#ffffff;stroke-width:0.8;" x="604.174481" xlink:href="#m81d7be69a6" y="252"/>
      </g>
     </g>
     <g id="text_17">
      <!-- $\mathdefault{10^{4}}$ -->
      <g style="fill:#ffffff;" transform="translate(595.374481 266.598437)scale(0.1 -0.1)">
       <use transform="translate(0 0.684375)" xlink:href="#DejaVuSans-49"/>
       <use transform="translate(63.623047 0.684375)" xlink:href="#DejaVuSans-48"/>
       <use transform="translate(128.203125 38.965625)scale(0.7)" xlink:href="#DejaVuSans-52"/>
      </g>
     </g>
    </g>
    <g id="xtick_31">
     <g id="line2d_45">
      <g>
       <use style="fill:#ffffff;stroke:#ffffff;stroke-width:0.6;" x="400.028427" xlink:href="#mc876ef6f8f" y="252"/>
      </g>
     </g>
    </g>
    <g id="xtick_32">
     <g id="line2d_46">
      <g>
       <use style="fill:#ffffff;stroke:#ffffff;stroke-width:0.6;" x="408.278757" xlink:href="#mc876ef6f8f" y="252"/>
      </g>
     </g>
    </g>
    <g id="xtick_33">
     <g id="line2d_47">
      <g>
       <use style="fill:#ffffff;stroke:#ffffff;stroke-width:0.6;" x="415.019768" xlink:href="#mc876ef6f8f" y="252"/>
      </g>
     </g>
    </g>
    <g id="xtick_34">
     <g id="line2d_48">
      <g>
       <use style="fill:#ffffff;stroke:#ffffff;stroke-width:0.6;" x="420.719211" xlink:href="#mc876ef6f8f" y="252"/>
      </g>
     </g>
    </g>
    <g id="xtick_35">
     <g id="line2d_49">
      <g>
       <use style="fill:#ffffff;stroke:#ffffff;stroke-width:0.6;" x="425.656293" xlink:href="#mc876ef6f8f" y="252"/>
      </g>
     </g>
    </g>
    <g id="xtick_36">
     <g id="line2d_50">
      <g>
       <use style="fill:#ffffff;stroke:#ffffff;stroke-width:0.6;" x="430.011109" xlink:href="#mc876ef6f8f" y="252"/>
      </g>
     </g>
    </g>
    <g id="xtick_37">
     <g id="line2d_51">
      <g>
       <use style="fill:#ffffff;stroke:#ffffff;stroke-width:0.6;" x="459.53449" xlink:href="#mc876ef6f8f" y="252"/>
      </g>
     </g>
    </g>
    <g id="xtick_38">
     <g id="line2d_52">
      <g>
       <use style="fill:#ffffff;stroke:#ffffff;stroke-width:0.6;" x="474.525831" xlink:href="#mc876ef6f8f" y="252"/>
      </g>
     </g>
    </g>
    <g id="xtick_39">
     <g id="line2d_53">
      <g>
       <use style="fill:#ffffff;stroke:#ffffff;stroke-width:0.6;" x="485.162356" xlink:href="#mc876ef6f8f" y="252"/>
      </g>
     </g>
    </g>
    <g id="xtick_40">
     <g id="line2d_54">
      <g>
       <use style="fill:#ffffff;stroke:#ffffff;stroke-width:0.6;" x="493.412686" xlink:href="#mc876ef6f8f" y="252"/>
      </g>
     </g>
    </g>
    <g id="xtick_41">
     <g id="line2d_55">
      <g>
       <use style="fill:#ffffff;stroke:#ffffff;stroke-width:0.6;" x="500.153697" xlink:href="#mc876ef6f8f" y="252"/>
      </g>
     </g>
    </g>
    <g id="xtick_42">
     <g id="line2d_56">
      <g>
       <use style="fill:#ffffff;stroke:#ffffff;stroke-width:0.6;" x="505.85314" xlink:href="#mc876ef6f8f" y="252"/>
      </g>
     </g>
    </g>
    <g id="xtick_43">
     <g id="line2d_57">
      <g>
       <use style="fill:#ffffff;stroke:#ffffff;stroke-width:0.6;" x="510.790222" xlink:href="#mc876ef6f8f" y="252"/>
      </g>
     </g>
    </g>
    <g id="xtick_44">
     <g id="line2d_58">
      <g>
       <use style="fill:#ffffff;stroke:#ffffff;stroke-width:0.6;" x="515.145038" xlink:href="#mc876ef6f8f" y="252"/>
      </g>
     </g>
    </g>
    <g id="xtick_45">
     <g id="line2d_59">
      <g>
       <use style="fill:#ffffff;stroke:#ffffff;stroke-width:0.6;" x="544.668419" xlink:href="#mc876ef6f8f" y="252"/>
      </g>
     </g>
    </g>
    <g id="xtick_46">
     <g id="line2d_60">
      <g>
       <use style="fill:#ffffff;stroke:#ffffff;stroke-width:0.6;" x="559.65976" xlink:href="#mc876ef6f8f" y="252"/>
      </g>
     </g>
    </g>
    <g id="xtick_47">
     <g id="line2d_61">
      <g>
       <use style="fill:#ffffff;stroke:#ffffff;stroke-width:0.6;" x="570.296285" xlink:href="#mc876ef6f8f" y="252"/>
      </g>
     </g>
    </g>
    <g id="xtick_48">
     <g id="line2d_62">
      <g>
       <use style="fill:#ffffff;stroke:#ffffff;stroke-width:0.6;" x="578.546615" xlink:href="#mc876ef6f8f" y="252"/>
      </g>
     </g>
    </g>
    <g id="xtick_49">
     <g id="line2d_63">
      <g>
       <use style="fill:#ffffff;stroke:#ffffff;stroke-width:0.6;" x="585.287626" xlink:href="#mc876ef6f8f" y="252"/>
      </g>
     </g>
    </g>
    <g id="xtick_50">
     <g id="line2d_64">
      <g>
       <use style="fill:#ffffff;stroke:#ffffff;stroke-width:0.6;" x="590.987069" xlink:href="#mc876ef6f8f" y="252"/>
      </g>
     </g>
    </g>
    <g id="xtick_51">
     <g id="line2d_65">
      <g>
       <use style="fill:#ffffff;stroke:#ffffff;stroke-width:0.6;" x="595.924151" xlink:href="#mc876ef6f8f" y="252"/>
      </g>
     </g>
    </g>
    <g id="xtick_52">
     <g id="line2d_66">
      <g>
       <use style="fill:#ffffff;stroke:#ffffff;stroke-width:0.6;" x="600.278966" xlink:href="#mc876ef6f8f" y="252"/>
      </g>
     </g>
    </g>
    <g id="xtick_53">
     <g id="line2d_67">
      <g>
       <use style="fill:#ffffff;stroke:#ffffff;stroke-width:0.6;" x="629.802348" xlink:href="#mc876ef6f8f" y="252"/>
      </g>
     </g>
    </g>
    <g id="xtick_54">
     <g id="line2d_68">
      <g>
       <use style="fill:#ffffff;stroke:#ffffff;stroke-width:0.6;" x="644.793688" xlink:href="#mc876ef6f8f" y="252"/>
      </g>
     </g>
    </g>
    <g id="text_18">
     <!-- Frequency [Hz] -->
     <defs>
      <path d="M 9.8125 72.90625 
L 19.671875 72.90625 
L 19.671875 43.015625 
L 55.515625 43.015625 
L 55.515625 72.90625 
L 65.375 72.90625 
L 65.375 0 
L 55.515625 0 
L 55.515625 34.71875 
L 19.671875 34.71875 
L 19.671875 0 
L 9.8125 0 
z
" id="DejaVuSans-72"/>
      <path d="M 5.515625 54.6875 
L 48.1875 54.6875 
L 48.1875 46.484375 
L 14.40625 7.171875 
L 48.1875 7.171875 
L 48.1875 0 
L 4.296875 0 
L 4.296875 8.203125 
L 38.09375 47.515625 
L 5.515625 47.515625 
z
" id="DejaVuSans-122"/>
     </defs>
     <g style="fill:#ffffff;" transform="translate(483.009162 280.276563)scale(0.1 -0.1)">
      <use xlink:href="#DejaVuSans-70"/>
      <use x="57.410156" xlink:href="#DejaVuSans-114"/>
      <use x="98.492188" xlink:href="#DejaVuSans-101"/>
      <use x="160.015625" xlink:href="#DejaVuSans-113"/>
      <use x="223.492188" xlink:href="#DejaVuSans-117"/>
      <use x="286.871094" xlink:href="#DejaVuSans-101"/>
      <use x="348.394531" xlink:href="#DejaVuSans-110"/>
      <use x="411.773438" xlink:href="#DejaVuSans-99"/>
      <use x="466.753906" xlink:href="#DejaVuSans-121"/>
      <use x="525.933594" xlink:href="#DejaVuSans-32"/>
      <use x="557.720703" xlink:href="#DejaVuSans-91"/>
      <use x="596.734375" xlink:href="#DejaVuSans-72"/>
      <use x="671.929688" xlink:href="#DejaVuSans-122"/>
      <use x="724.419922" xlink:href="#DejaVuSans-93"/>
     </g>
    </g>
   </g>
   <g id="matplotlib.axis_4">
    <g id="ytick_6">
     <g id="line2d_69">
      <g>
       <use style="fill:#ffffff;stroke:#ffffff;stroke-width:0.8;" x="394.363636" xlink:href="#m61821e4d09" y="230.256"/>
      </g>
     </g>
     <g id="text_19">
      <!-- −20 -->
      <g style="fill:#ffffff;" transform="translate(366.258949 234.055219)scale(0.1 -0.1)">
       <use xlink:href="#DejaVuSans-8722"/>
       <use x="83.789062" xlink:href="#DejaVuSans-50"/>
       <use x="147.412109" xlink:href="#DejaVuSans-48"/>
      </g>
     </g>
    </g>
    <g id="ytick_7">
     <g id="line2d_70">
      <g>
       <use style="fill:#ffffff;stroke:#ffffff;stroke-width:0.8;" x="394.363636" xlink:href="#m61821e4d09" y="186.768"/>
      </g>
     </g>
     <g id="text_20">
      <!-- −10 -->
      <g style="fill:#ffffff;" transform="translate(366.258949 190.567219)scale(0.1 -0.1)">
       <use xlink:href="#DejaVuSans-8722"/>
       <use x="83.789062" xlink:href="#DejaVuSans-49"/>
       <use x="147.412109" xlink:href="#DejaVuSans-48"/>
      </g>
     </g>
    </g>
    <g id="ytick_8">
     <g id="line2d_71">
      <g>
       <use style="fill:#ffffff;stroke:#ffffff;stroke-width:0.8;" x="394.363636" xlink:href="#m61821e4d09" y="143.28"/>
      </g>
     </g>
     <g id="text_21">
      <!-- 0 -->
      <g style="fill:#ffffff;" transform="translate(381.001136 147.079219)scale(0.1 -0.1)">
       <use xlink:href="#DejaVuSans-48"/>
      </g>
     </g>
    </g>
    <g id="ytick_9">
     <g id="line2d_72">
      <g>
       <use style="fill:#ffffff;stroke:#ffffff;stroke-width:0.8;" x="394.363636" xlink:href="#m61821e4d09" y="99.792"/>
      </g>
     </g>
     <g id="text_22">
      <!-- 10 -->
      <g style="fill:#ffffff;" transform="translate(374.638636 103.591219)scale(0.1 -0.1)">
       <use xlink:href="#DejaVuSans-49"/>
       <use x="63.623047" xlink:href="#DejaVuSans-48"/>
      </g>
     </g>
    </g>
    <g id="ytick_10">
     <g id="line2d_73">
      <g>
       <use style="fill:#ffffff;stroke:#ffffff;stroke-width:0.8;" x="394.363636" xlink:href="#m61821e4d09" y="56.304"/>
      </g>
     </g>
     <g id="text_23">
      <!-- 20 -->
      <g style="fill:#ffffff;" transform="translate(374.638636 60.103219)scale(0.1 -0.1)">
       <use xlink:href="#DejaVuSans-50"/>
       <use x="63.623047" xlink:href="#DejaVuSans-48"/>
      </g>
     </g>
    </g>
    <g id="text_24">
     <!-- Amplitude [dB] -->
     <g style="fill:#ffffff;" transform="translate(360.179261 180.997969)rotate(-90)scale(0.1 -0.1)">
      <use xlink:href="#DejaVuSans-65"/>
      <use x="68.408203" xlink:href="#DejaVuSans-109"/>
      <use x="165.820312" xlink:href="#DejaVuSans-112"/>
      <use x="229.296875" xlink:href="#DejaVuSans-108"/>
      <use x="257.080078" xlink:href="#DejaVuSans-105"/>
      <use x="284.863281" xlink:href="#DejaVuSans-116"/>
      <use x="324.072266" xlink:href="#DejaVuSans-117"/>
      <use x="387.451172" xlink:href="#DejaVuSans-100"/>
      <use x="450.927734" xlink:href="#DejaVuSans-101"/>
      <use x="512.451172" xlink:href="#DejaVuSans-32"/>
      <use x="544.238281" xlink:href="#DejaVuSans-91"/>
      <use x="583.251953" xlink:href="#DejaVuSans-100"/>
      <use x="646.728516" xlink:href="#DejaVuSans-66"/>
      <use x="715.332031" xlink:href="#DejaVuSans-93"/>
     </g>
    </g>
   </g>
   <g id="line2d_74">
    <path clip-path="url(#p6d6d20dd8f)" d="M -1 143.28 
L 636.471074 143.28 
L 636.471074 143.28 
" style="fill:none;stroke:#00bfbf;stroke-linecap:square;stroke-width:1.5;"/>
   </g>
   <g id="line2d_75">
    <path clip-path="url(#p6d6d20dd8f)" d="M -1 91.142206 
L 405.892562 91.142435 
L 431.520428 91.285933 
L 446.511769 91.523096 
L 457.148294 91.850998 
L 465.398625 92.265679 
L 472.139635 92.762283 
L 477.839078 93.335202 
L 482.776161 93.978242 
L 487.130976 94.684795 
L 491.026491 95.447998 
L 497.767501 97.116549 
L 503.466945 98.929367 
L 508.404027 100.835863 
L 512.758842 102.791557 
L 516.654357 104.759096 
L 521.821803 107.668666 
L 527.750183 111.363576 
L 535.16962 116.333839 
L 545.806145 123.499528 
L 551.26472 126.908749 
L 556.020115 129.618947 
L 560.232999 131.78094 
L 564.524558 133.736541 
L 568.823054 135.444078 
L 573.077535 136.895769 
L 577.610535 138.200573 
L 582.280018 139.310693 
L 587.256246 140.267191 
L 592.838127 141.107439 
L 599.105116 141.815614 
L 606.307063 142.394826 
L 614.753191 142.842867 
L 625.029957 143.155803 
L 636.398649 143.279977 
L 636.471074 143.279994 
L 636.471074 143.279994 
" style="fill:none;stroke:#8dd3c7;stroke-linecap:square;stroke-width:1.5;"/>
   </g>
   <g id="line2d_76">
    <path clip-path="url(#p6d6d20dd8f)" d="M -1 39.028056 
L 405.892562 39.028628 
L 431.520428 39.385554 
L 446.511769 39.972068 
L 457.148294 40.776202 
L 465.398625 41.78226 
L 472.139635 42.971726 
L 477.839078 44.324221 
L 482.776161 45.818437 
L 487.130976 47.432967 
L 491.026491 49.146995 
L 494.550413 50.940818 
L 497.767501 52.796209 
L 500.726936 54.696631 
L 503.466945 56.627339 
L 508.404027 60.529532 
L 512.758842 64.419236 
L 516.654357 68.236554 
L 521.821803 73.741474 
L 526.354802 78.91439 
L 532.858042 86.720673 
L 547.449669 104.459992 
L 552.686941 110.401372 
L 557.273564 115.245143 
L 561.353484 119.215285 
L 565.027602 122.490049 
L 568.823054 125.559475 
L 572.264905 128.064052 
L 575.788827 130.357448 
L 579.346685 132.404956 
L 582.90143 134.196829 
L 586.704397 135.85399 
L 590.655469 137.317891 
L 594.675682 138.568023 
L 599.105116 139.702516 
L 603.767859 140.662885 
L 608.988597 141.502507 
L 614.753191 142.195943 
L 621.189177 142.740653 
L 628.329117 143.117454 
L 635.518293 143.277125 
L 636.471074 143.279985 
L 636.471074 143.279985 
" style="fill:none;stroke:#feffb3;stroke-linecap:square;stroke-width:1.5;"/>
   </g>
   <g id="patch_9">
    <path d="M 394.363636 252 
L 394.363636 34.56 
" style="fill:none;stroke:#ffffff;stroke-linecap:square;stroke-linejoin:miter;stroke-width:0.8;"/>
   </g>
   <g id="patch_10">
    <path d="M 648 252 
L 648 34.56 
" style="fill:none;stroke:#ffffff;stroke-linecap:square;stroke-linejoin:miter;stroke-width:0.8;"/>
   </g>
   <g id="patch_11">
    <path d="M 394.363636 252 
L 648 252 
" style="fill:none;stroke:#ffffff;stroke-linecap:square;stroke-linejoin:miter;stroke-width:0.8;"/>
   </g>
   <g id="patch_12">
    <path d="M 394.363636 34.56 
L 648 34.56 
" style="fill:none;stroke:#ffffff;stroke-linecap:square;stroke-linejoin:miter;stroke-width:0.8;"/>
   </g>
   <g id="text_25">
    <!-- Post-emphasis filter -->
    <defs>
     <path d="M 30.609375 48.390625 
Q 23.390625 48.390625 19.1875 42.75 
Q 14.984375 37.109375 14.984375 27.296875 
Q 14.984375 17.484375 19.15625 11.84375 
Q 23.34375 6.203125 30.609375 6.203125 
Q 37.796875 6.203125 41.984375 11.859375 
Q 46.1875 17.53125 46.1875 27.296875 
Q 46.1875 37.015625 41.984375 42.703125 
Q 37.796875 48.390625 30.609375 48.390625 
z
M 30.609375 56 
Q 42.328125 56 49.015625 48.375 
Q 55.71875 40.765625 55.71875 27.296875 
Q 55.71875 13.875 49.015625 6.21875 
Q 42.328125 -1.421875 30.609375 -1.421875 
Q 18.84375 -1.421875 12.171875 6.21875 
Q 5.515625 13.875 5.515625 27.296875 
Q 5.515625 40.765625 12.171875 48.375 
Q 18.84375 56 30.609375 56 
z
" id="DejaVuSans-111"/>
    </defs>
    <g style="fill:#ffffff;" transform="translate(461.646818 28.56)scale(0.12 -0.12)">
     <use xlink:href="#DejaVuSans-80"/>
     <use x="60.255859" xlink:href="#DejaVuSans-111"/>
     <use x="121.4375" xlink:href="#DejaVuSans-115"/>
     <use x="173.537109" xlink:href="#DejaVuSans-116"/>
     <use x="212.746094" xlink:href="#DejaVuSans-45"/>
     <use x="248.830078" xlink:href="#DejaVuSans-101"/>
     <use x="310.353516" xlink:href="#DejaVuSans-109"/>
     <use x="407.765625" xlink:href="#DejaVuSans-112"/>
     <use x="471.242188" xlink:href="#DejaVuSans-104"/>
     <use x="534.621094" xlink:href="#DejaVuSans-97"/>
     <use x="595.900391" xlink:href="#DejaVuSans-115"/>
     <use x="648" xlink:href="#DejaVuSans-105"/>
     <use x="675.783203" xlink:href="#DejaVuSans-115"/>
     <use x="727.882812" xlink:href="#DejaVuSans-32"/>
     <use x="759.669922" xlink:href="#DejaVuSans-102"/>
     <use x="794.875" xlink:href="#DejaVuSans-105"/>
     <use x="822.658203" xlink:href="#DejaVuSans-108"/>
     <use x="850.441406" xlink:href="#DejaVuSans-116"/>
     <use x="889.650391" xlink:href="#DejaVuSans-101"/>
     <use x="951.173828" xlink:href="#DejaVuSans-114"/>
    </g>
   </g>
  </g>
 </g>
 <defs>
  <clipPath id="p853cb5db42">
   <rect height="217.44" width="253.636364" x="90" y="34.56"/>
  </clipPath>
  <clipPath id="p6d6d20dd8f">
   <rect height="217.44" width="253.636364" x="394.363636" y="34.56"/>
  </clipPath>
 </defs>
</svg>
